<?xml version="1.0" encoding="UTF-8"?>
<svg xmlns="http://www.w3.org/2000/svg" width="378" height="303">
    <path d="M161 92c39.795.534 73.961 14.867 102 43.5 26.73 32.687 30.73 68.02 12 106-17.329 27.639-41.829 45.806-73.5 54.5-49.048 13.052-93.715 4.385-134-26-36.551-33.424-44.385-72.59-23.5-117.5 22.648-34.762 54.815-54.429 97-59.5 10-1 16-1 20-1z" fill="#f08e00"/>
    <path d="M108.5-.5A60.67 60.67 0 0098.5 3 96.589 96.589 0 01120 28C52 35 8.242 91.847 1.5 151.5 1 154 0 168 1.5 181.5 5.748 218.245 17.748 252.245 37.5 283.5 34.91 275.56 32.41 267.56 30 259.5 24.15 237.897 21.984 216.064 23.5 194 33.667 127.401 72.334 90.9 138 84L140 96C131 100 131 105 141 108 145 109 147 109 150 109S156 109 160 108C169 105 169 100 160 96L158 84C170 84 178 85 188 87 267 106 330.17 161.337 365 240.5 369.762 229.425 373.262 218.092 375.5 206.5V203.5C356.55 153.711 326.216 112.211 284.5 79 240.741 44.526 191.074 26.526 136 27 127.927 15.622 119.593 7.122 110.5-.5H104Z" fill="#689021"/>
</svg>
