<?xml version="1.0" encoding="UTF-8" standalone="no"?>
<!--
  - @copyright Limbas GmbH <https://limbas.com>
  - @license https://opensource.org/licenses/GPL-2.0 GPL-2.0
  -
  - This program is free software; you can redistribute it and/or modify it under the terms of the GNU General Public License as published by the Free Software Foundation; either version 2 of the License, or (at your option) any later version.
  - This program is distributed in the hope that it will be useful, but WITHOUT ANY WARRANTY; without even the implied warranty of MERCHANTABILITY or FITNESS FOR A PARTICULAR PURPOSE. See the GNU General Public License for more details.
  -->

<!-- Created with Inkscape (http://www.inkscape.org/) -->

<svg
   xmlns:dc="http://purl.org/dc/elements/1.1/"
   xmlns:cc="http://creativecommons.org/ns#"
   xmlns:rdf="http://www.w3.org/1999/02/22-rdf-syntax-ns#"
   xmlns:svg="http://www.w3.org/2000/svg"
   xmlns="http://www.w3.org/2000/svg"
   xmlns:sodipodi="http://sodipodi.sourceforge.net/DTD/sodipodi-0.dtd"
   xmlns:inkscape="http://www.inkscape.org/namespaces/inkscape"
   width="32"
   height="32"
   viewBox="0 0 32.000005 32.000008"
   id="svg6063"
   version="1.1"
   inkscape:version="0.91 r13725"
   sodipodi:docname="calendar_view_month.svg">
  <defs
     id="defs6065" />
  <sodipodi:namedview
     id="base"
     pagecolor="#ffffff"
     bordercolor="#666666"
     borderopacity="1.0"
     inkscape:pageopacity="0.0"
     inkscape:pageshadow="2"
     inkscape:zoom="15.839192"
     inkscape:cx="11.050374"
     inkscape:cy="16.274051"
     inkscape:document-units="px"
     inkscape:current-layer="layer1"
     showgrid="true"
     units="px"
     inkscape:window-width="1920"
     inkscape:window-height="1007"
     inkscape:window-x="0"
     inkscape:window-y="0"
     inkscape:window-maximized="1">
    <inkscape:grid
       type="xygrid"
       id="grid6071"
       empspacing="4" />
  </sodipodi:namedview>
  <metadata
     id="metadata6068">
    <rdf:RDF>
      <cc:Work
         rdf:about="">
        <dc:format>image/svg+xml</dc:format>
        <dc:type
           rdf:resource="http://purl.org/dc/dcmitype/StillImage" />
        <dc:title></dc:title>
      </cc:Work>
    </rdf:RDF>
  </metadata>
  <g
     inkscape:label="Ebene 1"
     inkscape:groupmode="layer"
     id="layer1"
     transform="translate(0,-1020.2988)">
    <path
       id="path4296"
       d="m 3.5287056,1049.9046 5.1024126,0 0,-5.1024 -5.1024126,0 0,5.1024 z m 6.2354012,0 5.6689062,0 0,-5.1024 -5.6689062,0 0,5.1024 z m -6.2354012,-6.2354 5.1024126,0 0,-5.669 -5.1024126,0 0,5.669 z m 6.2354012,0 5.6689062,0 0,-5.669 -5.6689062,0 0,5.669 z m -6.2354012,-6.8039 5.1024126,0 0,-5.1024 -5.1024126,0 0,5.1024 z m 13.0392794,13.0393 5.668905,0 0,-5.1024 -5.668905,0 0,5.1024 z m -6.8038782,-13.0393 5.6689062,0 0,-5.1024 -5.6689062,0 0,5.1024 z m 13.6067632,13.0393 5.102412,0 0,-5.1024 -5.102412,0 0,5.1024 z m -6.802885,-6.2354 5.668905,0 0,-5.669 -5.668905,0 0,5.669 z m -6.236393,-15.3072 0,-5.1025 q 0,-0.2302 -0.168659,-0.3988 -0.1686579,-0.1687 -0.3988262,-0.1687 l -1.1339809,0 q -0.2301688,0 -0.3988271,0.1687 -0.1686584,0.1686 -0.1686584,0.3988 l 0,5.1025 q 0,0.2302 0.1686584,0.3988 0.1686583,0.1687 0.3988271,0.1687 l 1.1339809,0 q 0.2301683,0 0.3988262,-0.1687 0.168659,-0.1686 0.168659,-0.3988 z m 13.039278,15.3072 5.102412,0 0,-5.669 -5.102412,0 0,5.669 z m -6.802885,-6.8039 5.668905,0 0,-5.1024 -5.668905,0 0,5.1024 z m 6.802885,0 5.102412,0 0,-5.1024 -5.102412,0 0,5.1024 z m 0.566494,-8.5033 0,-5.1025 q 0,-0.2302 -0.168658,-0.3988 -0.168659,-0.1687 -0.398828,-0.1687 l -1.13398,0 q -0.230168,0 -0.398826,0.1687 -0.168659,0.1686 -0.168659,0.3988 l 0,5.1025 q 0,0.2302 0.168659,0.3988 0.168658,0.1687 0.398826,0.1687 l 1.13398,0 q 0.230169,0 0.398828,-0.1687 0.168658,-0.1686 0.168658,-0.3988 z m 6.802885,-1.134 0,22.6766 q 0,0.9216 -0.67364,1.5943 -0.673643,0.6726 -1.594317,0.6736 l -24.9445787,0 q -0.9216682,0 -1.5943176,-0.6736 -0.6726491,-0.6736 -0.6736413,-1.5943 l 0,-22.6766 q 0,-0.9217 0.6736413,-1.5944 0.6736414,-0.6726 1.5943176,-0.6736 l 2.2679601,0 0,-1.7005 q 0,-1.1697 0.8323786,-2.002 0.8323787,-0.8324 2.0020739,-0.8324 l 1.1339809,0 q 1.1696952,0 2.0020742,0.8324 0.832378,0.8323 0.832378,2.002 l 0,1.7005 6.802886,0 0,-1.7005 q 0,-1.1697 0.83238,-2.002 0.832378,-0.8324 2.002073,-0.8324 l 1.13398,0 q 1.169695,0 2.002075,0.8324 0.832379,0.8323 0.832379,2.002 l 0,1.7005 2.26796,0 q 0.921668,0 1.594317,0.6736 0.67265,0.6736 0.67364,1.5944 z"
       inkscape:connector-curvature="0" />
  </g>
</svg>
