<?xml version="1.0" encoding="UTF-8" standalone="no"?>
<!--
  - @copyright Limbas GmbH <https://limbas.com>
  - @license https://opensource.org/licenses/GPL-2.0 GPL-2.0
  -
  - This program is free software; you can redistribute it and/or modify it under the terms of the GNU General Public License as published by the Free Software Foundation; either version 2 of the License, or (at your option) any later version.
  - This program is distributed in the hope that it will be useful, but WITHOUT ANY WARRANTY; without even the implied warranty of MERCHANTABILITY or FITNESS FOR A PARTICULAR PURPOSE. See the GNU General Public License for more details.
  -->

<!-- Created with Inkscape (http://www.inkscape.org/) -->

<svg
   xmlns:dc="http://purl.org/dc/elements/1.1/"
   xmlns:cc="http://creativecommons.org/ns#"
   xmlns:rdf="http://www.w3.org/1999/02/22-rdf-syntax-ns#"
   xmlns:svg="http://www.w3.org/2000/svg"
   xmlns="http://www.w3.org/2000/svg"
   xmlns:sodipodi="http://sodipodi.sourceforge.net/DTD/sodipodi-0.dtd"
   xmlns:inkscape="http://www.inkscape.org/namespaces/inkscape"
   width="32"
   height="32"
   viewBox="0 0 32.000006 32.000008"
   id="svg6063"
   version="1.1"
   inkscape:version="0.91 r13725"
   sodipodi:docname="chart_user.svg">
  <defs
     id="defs6065" />
  <sodipodi:namedview
     id="base"
     pagecolor="#ffffff"
     bordercolor="#666666"
     borderopacity="1.0"
     inkscape:pageopacity="0.0"
     inkscape:pageshadow="2"
     inkscape:zoom="11.313709"
     inkscape:cx="-4.4896873"
     inkscape:cy="5.5368999"
     inkscape:document-units="px"
     inkscape:current-layer="layer1"
     showgrid="true"
     units="px"
     inkscape:window-width="1920"
     inkscape:window-height="1007"
     inkscape:window-x="0"
     inkscape:window-y="0"
     inkscape:window-maximized="1">
    <inkscape:grid
       type="xygrid"
       id="grid6071"
       empspacing="4" />
  </sodipodi:namedview>
  <metadata
     id="metadata6068">
    <rdf:RDF>
      <cc:Work
         rdf:about="">
        <dc:format>image/svg+xml</dc:format>
        <dc:type
           rdf:resource="http://purl.org/dc/dcmitype/StillImage" />
        <dc:title></dc:title>
      </cc:Work>
    </rdf:RDF>
  </metadata>
  <g
     inkscape:label="Ebene 1"
     inkscape:groupmode="layer"
     id="layer1"
     transform="translate(0,-1020.2988)">
    <path
       id="path4168"
       d="m 31.999235,1048.7172 q 0,1.6595 -1.009831,2.6206 -1.00983,0.961 -2.682555,0.961 l -12.086209,0 q -1.673499,0 -2.682555,-0.961 -1.009055,-0.9611 -1.00983,-2.6206 0,-0.7326 0.04879,-1.4312 0.04879,-0.6985 0.193602,-1.507 0.144815,-0.8084 0.366296,-1.5008 0.221481,-0.6923 0.594746,-1.3482 0.373266,-0.6559 0.857272,-1.1198 0.484006,-0.4639 1.182523,-0.7396 0.698518,-0.2757 1.54185,-0.2764 0.12468,0 0.580807,0.2973 0.456127,0.2974 1.029964,0.6637 0.573838,0.3663 1.493837,0.6637 0.919998,0.2974 1.846192,0.2974 0.926194,0 1.846193,-0.2974 0.919998,-0.2974 1.493835,-0.6637 0.573837,-0.3663 1.029965,-0.6637 0.456127,-0.2973 0.580807,-0.2973 0.843332,0 1.541849,0.2764 0.698518,0.2765 1.182524,0.7396 0.484006,0.4631 0.857271,1.1198 0.373265,0.6567 0.594747,1.3482 0.221481,0.6916 0.366295,1.5008 0.144815,0.8093 0.193603,1.507 0.04879,0.6978 0.04879,1.4312 z m -4.424977,-12.3488 q 0,2.1986 -1.555789,3.7544 -1.555788,1.5558 -3.754337,1.5558 -2.198549,0 -3.754338,-1.5558 -1.555788,-1.5558 -1.555788,-3.7544 0,-2.1985 1.555788,-3.7543 1.555789,-1.5558 3.754338,-1.5558 2.198549,0 3.754337,1.5558 1.555789,1.5558 1.555789,3.7543 z"
       inkscape:connector-curvature="0" />
    <path
       id="path4209"
       d="m 8.0031884,1032.3019 0,8.0024 -4.0007505,0 0,-8.0024 z m 6.0015636,-8.0024 0,16.0048 -4.00075,0 0,-16.0048 z m -1.996125,18.0056 -0.03125,2.0008 -11.97737795367461,0 0,-24.0071 2.00081315367461,0 0,22.0063 10.0086908,0 z m 15.999256,-20.0064 0,8.9422 c -0.940344,-1.1941 -2.505983,-1.9122 -4.000752,-2.1875 l 0,-6.7547 z"
       inkscape:connector-curvature="0"
       sodipodi:nodetypes="ccccccccccccccccccccccc" />
  </g>
</svg>
