<?xml version="1.0" encoding="UTF-8" standalone="no"?>
<!--
  - @copyright Limbas GmbH <https://limbas.com>
  - @license https://opensource.org/licenses/GPL-2.0 GPL-2.0
  -
  - This program is free software; you can redistribute it and/or modify it under the terms of the GNU General Public License as published by the Free Software Foundation; either version 2 of the License, or (at your option) any later version.
  - This program is distributed in the hope that it will be useful, but WITHOUT ANY WARRANTY; without even the implied warranty of MERCHANTABILITY or FITNESS FOR A PARTICULAR PURPOSE. See the GNU General Public License for more details.
  -->

<!-- Created with Inkscape (http://www.inkscape.org/) -->

<svg
   xmlns:dc="http://purl.org/dc/elements/1.1/"
   xmlns:cc="http://creativecommons.org/ns#"
   xmlns:rdf="http://www.w3.org/1999/02/22-rdf-syntax-ns#"
   xmlns:svg="http://www.w3.org/2000/svg"
   xmlns="http://www.w3.org/2000/svg"
   xmlns:sodipodi="http://sodipodi.sourceforge.net/DTD/sodipodi-0.dtd"
   xmlns:inkscape="http://www.inkscape.org/namespaces/inkscape"
   width="32"
   height="32"
   viewBox="0 0 32.000006 32.000008"
   id="svg6063"
   version="1.1"
   inkscape:version="0.91 r13725"
   sodipodi:docname="cog_add.svg">
  <defs
     id="defs6065" />
  <sodipodi:namedview
     id="base"
     pagecolor="#ffffff"
     bordercolor="#666666"
     borderopacity="1.0"
     inkscape:pageopacity="0.0"
     inkscape:pageshadow="2"
     inkscape:zoom="16"
     inkscape:cx="22.359437"
     inkscape:cy="9.3564626"
     inkscape:document-units="px"
     inkscape:current-layer="layer1"
     showgrid="true"
     units="px"
     inkscape:window-width="1920"
     inkscape:window-height="1007"
     inkscape:window-x="0"
     inkscape:window-y="0"
     inkscape:window-maximized="1">
    <inkscape:grid
       type="xygrid"
       id="grid6071"
       empspacing="4" />
  </sodipodi:namedview>
  <metadata
     id="metadata6068">
    <rdf:RDF>
      <cc:Work
         rdf:about="">
        <dc:format>image/svg+xml</dc:format>
        <dc:type
           rdf:resource="http://purl.org/dc/dcmitype/StillImage" />
        <dc:title></dc:title>
      </cc:Work>
    </rdf:RDF>
  </metadata>
  <g
     inkscape:label="Ebene 1"
     inkscape:groupmode="layer"
     id="layer1"
     transform="translate(0,-1020.2988)">
    <path
       id="path4187"
       d="m 18.284004,1034.0148 c 0,-1.262 -0.446333,-2.3393 -1.339,-3.232 -0.892667,-0.8927 -1.97,-1.339 -3.232001,-1.339 -1.262,0 -2.339334,0.4463 -3.232001,1.339 -0.8926667,0.8927 -1.339,1.97 -1.339,3.232 0,1.262 0.4463333,2.3393 1.339,3.232 0.892667,0.8927 1.970001,1.339 3.232001,1.339 1.262001,0 2.339334,-0.4463 3.232001,-1.339 0.892667,-0.8927 1.339,-1.97 1.339,-3.232 z m 9.143003,-1.946 0,3.964 c 0,0.1427 -0.04767,0.2797 -0.143,0.411 -0.09533,0.1313 -0.214333,0.2087 -0.357,0.232 l -3.304001,0.5 c -0.623,0.123 -1.732375,0.8105 -2.22725,1.1094 -1.306057,0.779 -3.208252,2.9511 -3.555376,3.5842 -0.305101,0.5065 -0.840376,1.4294 -0.984376,2.0384 -0.190667,1.6193 -0.363333,2.7263 -0.518,3.321 -0.08333,0.3333 -0.297667,0.5 -0.643,0.5 l -3.964001,0 c -0.166667,0 -0.312668,-0.051 -0.438001,-0.152 -0.125333,-0.1013 -0.193667,-0.2293 -0.205,-0.384 l -0.5,-3.286 c -0.583333,-0.1907 -1.119,-0.411 -1.607,-0.661 l -2.5180011,1.911 c -0.1193334,0.1073 -0.2680001,0.161 -0.4460002,0.161 -0.1666667,0 -0.3153334,-0.065 -0.4460001,-0.196 -1.5000005,-1.3573 -2.4820008,-2.3573 -2.9460009,-3 -0.083333,-0.1193 -0.125,-0.2563 -0.125,-0.411 0,-0.1427 0.047667,-0.2797 0.143,-0.411 0.1786667,-0.25 0.4823335,-0.646 0.9110003,-1.188 0.4286668,-0.542 0.7500002,-0.9617 0.9640003,-1.259 -0.3213335,-0.5953 -0.5653335,-1.1847 -0.7320002,-1.768 l -3.26800095,-0.482 c -0.15466667,-0.024 -0.2796667,-0.098 -0.3750001,-0.223 -0.09533334,-0.1247 -0.1430000036746,-0.2647 -0.1430000036746,-0.42 l 0,-3.964 c 0,-0.1427 0.0476666636746,-0.2797 0.1430000036746,-0.411 0.0953334,-0.1313 0.20833343,-0.2087 0.3390001,-0.232 l 3.32100095,-0.5 c 0.1666667,-0.5473 0.3986668,-1.095 0.6960002,-1.643 -0.4760001,-0.6787 -1.1130003,-1.5 -1.9110006,-2.464 -0.1193333,-0.1427 -0.179,-0.2857 -0.179,-0.429 0,-0.1193 0.053667,-0.2563 0.161,-0.411 0.3093335,-0.4287 0.895667,-1.0687 1.7590005,-1.92 0.8633336,-0.8513 1.4260004,-1.277 1.6880005,-1.277 0.1546667,0 0.3093335,0.06 0.4640002,0.179 l 2.4640011,1.911 c 0.524,-0.274 1.065667,-0.5003 1.625,-0.679 0.190667,-1.6193 0.363333,-2.7263 0.518,-3.321 0.08333,-0.3333 0.297667,-0.5 0.643001,-0.5 l 3.964001,0 c 0.166667,0 0.312667,0.051 0.438,0.152 0.125333,0.1013 0.193667,0.2293 0.205,0.384 l 0.5,3.286 c 0.583333,0.1907 1.119,0.411 1.607001,0.661 l 2.536,-1.911 c 0.107333,-0.1073 0.250333,-0.161 0.429,-0.161 0.154667,0 0.303334,0.06 0.446001,0.179 1.536,1.4167 2.518,2.4287 2.946,3.036 0.08333,0.095 0.125,0.2263 0.125,0.393 0,0.1427 -0.04767,0.2797 -0.143,0.411 -0.178667,0.25 -0.482333,0.646 -0.911,1.188 -0.428667,0.542 -0.75,0.9617 -0.964,1.259 0.309333,0.5953 0.553333,1.1787 0.732,1.75 l 3.268001,0.5 c 0.154667,0.024 0.279667,0.098 0.375,0.223 0.09533,0.1247 0.143,0.2647 0.143,0.42 z"
       inkscape:connector-curvature="0"
       sodipodi:nodetypes="ssssssssssssccccccsssccccsccscscccssssccccscssccccsssccccsccscscccss" />
    <path
       id="path4198"
       d="m 29.102799,1045.926 0,-1.1589 q 0,-0.2353 -0.171856,-0.4076 -0.171856,-0.1724 -0.407587,-0.1719 l -2.317261,0 0,-2.3172 q 0,-0.2353 -0.171856,-0.4076 -0.171855,-0.1724 -0.407587,-0.1719 l -1.158884,0 q -0.235224,0 -0.407586,0.1719 -0.172363,0.1718 -0.171856,0.4076 l 0,2.3172 -2.317262,0 q -0.235224,0 -0.407586,0.1719 -0.172363,0.1718 -0.171856,0.4076 l 0,1.1589 q 0,0.2352 0.171856,0.4075 0.171855,0.1724 0.407586,0.1719 l 2.317262,0 0,2.3173 q 0,0.2352 0.171856,0.4075 0.171855,0.1724 0.407586,0.1719 l 1.158884,0 q 0.235225,0 0.407587,-0.1719 0.172363,-0.1718 0.171856,-0.4075 l 0,-2.3173 2.317261,0 q 0.235224,0 0.407587,-0.1719 0.172363,-0.1718 0.171856,-0.4075 z m 2.89721,-0.5795 q 0,1.8919 -0.932278,3.4898 -0.932279,1.5979 -2.53018,2.5302 -1.597902,0.9323 -3.489834,0.9323 -1.891932,0 -3.489833,-0.9323 -1.597902,-0.9323 -2.53018,-2.5302 -0.932279,-1.5979 -0.932279,-3.4898 0,-1.8919 0.932279,-3.4898 0.932278,-1.5979 2.53018,-2.5302 1.597901,-0.9323 3.489833,-0.9323 1.891932,0 3.489834,0.9323 1.597901,0.9323 2.53018,2.5302 0.932278,1.5979 0.932278,3.4898 z"
       inkscape:connector-curvature="0" />
  </g>
</svg>
