<!--
  - @copyright Limbas GmbH <https://limbas.com>
  - @license https://opensource.org/licenses/GPL-2.0 GPL-2.0
  -
  - This program is free software; you can redistribute it and/or modify it under the terms of the GNU General Public License as published by the Free Software Foundation; either version 2 of the License, or (at your option) any later version.
  - This program is distributed in the hope that it will be useful, but WITHOUT ANY WARRANTY; without even the implied warranty of MERCHANTABILITY or FITNESS FOR A PARTICULAR PURPOSE. See the GNU General Public License for more details.
  -->

<!-- Generated by IcoMoon.io -->
<svg version="1.1" xmlns="http://www.w3.org/2000/svg" width="32" height="32" viewBox="0 0 32 32">
<title>copy-minus</title>
<path d="M16.876 32.106h-8.466c-0.476 0-0.881-0.167-1.214-0.5s-0.5-0.738-0.5-1.214v-5.143l-0-2.286v-4.571c0-0.476 0.119-1 0.357-1.571s0.524-1.024 0.857-1.357v0l5.643-5.643 2.286-2.143c0.81-0.476 1.571-0.714 2.286-0.714l7.428 0c0.476 0 0.881 0.167 1.214 0.5s0.5 0.738 0.5 1.214v4.813l-2.286-0.739v-3.503h-6.857v7.429c0 0.476-0.167 0.881-0.5 1.214s-0.738 0.5-1.214 0.5h-7.429v11.429h5.514zM15.839 10.767l-5.339 5.339h5.339z"></path>
<path d="M9.143 3.804l-5.339 5.339h5.339zM18.286 7.126v-4.84h-6.857v7.429c0 0.476-0.167 0.881-0.5 1.214s-0.738 0.5-1.214 0.5h-7.429v11.429c2.513 0 3.178 0 5.69-0l-0.053 2.286h-6.209c-0.476 0-0.881-0.167-1.214-0.5s-0.5-0.738-0.5-1.214v-5.143l-0-2.286v-4.571c0-0.476 0.119-1 0.357-1.571s0.524-1.024 0.857-1.357v0l5.643-5.643 2.286-2.143c0.81-0.476 1.571-0.714 2.286-0.714l7.429 0c0.476 0 0.881 0.167 1.214 0.5s0.5 0.738 0.5 1.214v5.372z"></path>
<path d="M28.305 23.73v-1.485q0-0.302-0.22-0.522t-0.522-0.22h-8.907q-0.302 0-0.522 0.22t-0.22 0.522v1.485q0 0.302 0.22 0.522t0.522 0.22h8.907q0.302 0 0.522-0.22t0.22-0.522zM32.016 22.988q0 2.424-1.195 4.471t-3.242 3.242-4.471 1.195-4.471-1.195-3.242-3.242-1.195-4.471 1.195-4.471 3.242-3.242 4.471-1.195 4.471 1.195 3.242 3.242 1.195 4.471z"></path>
</svg>
