<!--
  - @copyright Limbas GmbH <https://limbas.com>
  - @license https://opensource.org/licenses/GPL-2.0 GPL-2.0
  -
  - This program is free software; you can redistribute it and/or modify it under the terms of the GNU General Public License as published by the Free Software Foundation; either version 2 of the License, or (at your option) any later version.
  - This program is distributed in the hope that it will be useful, but WITHOUT ANY WARRANTY; without even the implied warranty of MERCHANTABILITY or FITNESS FOR A PARTICULAR PURPOSE. See the GNU General Public License for more details.
  -->

<!-- Generated by IcoMoon.io -->
<svg version="1.1" xmlns="http://www.w3.org/2000/svg" width="32" height="32" viewBox="0 0 32 32">
<title>copy-edit</title>
<path d="M10.735 32.106h-2.325c-0.476 0-0.881-0.167-1.214-0.5s-0.5-0.738-0.5-1.214v-5.143l-0-2.286v-4.571c0-0.476 0.119-1 0.357-1.571s0.524-1.024 0.857-1.357v0l5.643-5.643 2.286-2.143c0.81-0.476 1.571-0.714 2.286-0.714l7.428 0c0.476 0 0.881 0.167 1.214 0.5s0.5 0.738 0.5 1.214v1.198l-2.286 2.048v-2.674h-6.857v7.429c0 0.476-0.167 0.881-0.5 1.214s-0.738 0.5-1.214 0.5h-7.429v11.429h1.791zM15.839 10.767l-5.339 5.339h5.339z"></path>
<path d="M9.143 3.804l-5.339 5.339h5.339zM18.286 7.126v-4.84h-6.857v7.429c0 0.476-0.167 0.881-0.5 1.214s-0.738 0.5-1.214 0.5h-7.429v11.429c2.513 0 3.178 0 5.69-0l-0.053 2.286h-6.209c-0.476 0-0.881-0.167-1.214-0.5s-0.5-0.738-0.5-1.214v-5.143l-0-2.286v-4.571c0-0.476 0.119-1 0.357-1.571s0.524-1.024 0.857-1.357v0l5.643-5.643 2.286-2.143c0.81-0.476 1.571-0.714 2.286-0.714l7.429 0c0.476 0 0.881 0.167 1.214 0.5s0.5 0.738 0.5 1.214v5.372z"></path>
<path d="M17.309 30.287l1.16-1.16-2.995-2.995-1.16 1.16v1.364h1.631v1.631zM23.974 18.46q0-0.28-0.28-0.28-0.127 0-0.217 0.089l-6.907 6.907q-0.089 0.089-0.089 0.217 0 0.28 0.28 0.28 0.127 0 0.217-0.089l6.907-6.907q0.089-0.089 0.089-0.217zM23.286 16.014l5.302 5.302-10.603 10.603h-5.302v-5.302zM31.99 17.237q0 0.675-0.472 1.147l-2.116 2.116-5.302-5.302 2.116-2.103q0.459-0.484 1.147-0.484 0.675 0 1.16 0.484l2.995 2.982q0.472 0.497 0.472 1.16z"></path>
</svg>
