<!--
  - @copyright Limbas GmbH <https://limbas.com>
  - @license https://opensource.org/licenses/GPL-2.0 GPL-2.0
  -
  - This program is free software; you can redistribute it and/or modify it under the terms of the GNU General Public License as published by the Free Software Foundation; either version 2 of the License, or (at your option) any later version.
  - This program is distributed in the hope that it will be useful, but WITHOUT ANY WARRANTY; without even the implied warranty of MERCHANTABILITY or FITNESS FOR A PARTICULAR PURPOSE. See the GNU General Public License for more details.
  -->

<!-- Generated by IcoMoon.io -->
<svg version="1.1" xmlns="http://www.w3.org/2000/svg" width="32" height="32" viewBox="0 0 32 32">
<title>copy-eye</title>
<path d="M14.909 32.106h-6.499c-0.476 0-0.881-0.167-1.214-0.5s-0.5-0.738-0.5-1.214v-5.143l-0-2.286v-4.571c0-0.476 0.119-1 0.357-1.571s0.524-1.024 0.857-1.357v0l5.643-5.643 2.286-2.143c0.81-0.476 1.571-0.714 2.286-0.714l7.428 0c0.476 0 0.881 0.167 1.214 0.5s0.5 0.738 0.5 1.214v9.334l-2.286-0.771v-7.992h-6.857v7.429c0 0.476-0.167 0.881-0.5 1.214s-0.738 0.5-1.214 0.5h-7.429v11.429h2.806zM15.839 10.767l-5.339 5.339h5.339z"></path>
<path d="M9.143 3.804l-5.339 5.339h5.339zM18.286 7.126v-4.84h-6.857v7.429c0 0.476-0.167 0.881-0.5 1.214s-0.738 0.5-1.214 0.5h-7.429v11.429c2.513 0 3.178 0 5.69-0l-0.053 2.286h-6.209c-0.476 0-0.881-0.167-1.214-0.5s-0.5-0.738-0.5-1.214v-5.143l-0-2.286v-4.571c0-0.476 0.119-1 0.357-1.571s0.524-1.024 0.857-1.357v0l5.643-5.643 2.286-2.143c0.81-0.476 1.571-0.714 2.286-0.714l7.429 0c0.476 0 0.881 0.167 1.214 0.5s0.5 0.738 0.5 1.214v5.372z"></path>
<path d="M30.483 25.114q-1.801-2.797-4.515-4.184 0.723 1.233 0.723 2.667 0 2.192-1.558 3.751t-3.751 1.558-3.751-1.558-1.558-3.751q0-1.434 0.723-2.667-2.714 1.387-4.515 4.184 1.576 2.43 3.952 3.869t5.149 1.44 5.149-1.44 3.952-3.869zM21.95 20.564q0-0.237-0.166-0.403t-0.403-0.166q-1.481 0-2.542 1.061t-1.061 2.542q0 0.237 0.166 0.403t0.403 0.166 0.403-0.166 0.166-0.403q0-1.019 0.723-1.742t1.742-0.723q0.237 0 0.403-0.166t0.166-0.403zM32 25.114q0 0.403-0.237 0.818-1.659 2.726-4.462 4.367t-5.92 1.641-5.92-1.647-4.462-4.361q-0.237-0.415-0.237-0.818t0.237-0.818q1.659-2.714 4.462-4.361t5.92-1.647 5.92 1.647 4.462 4.361q0.237 0.415 0.237 0.818z"></path>
</svg>
