<?xml version="1.0" encoding="UTF-8" standalone="no"?>
<!--
  - @copyright Limbas GmbH <https://limbas.com>
  - @license https://opensource.org/licenses/GPL-2.0 GPL-2.0
  -
  - This program is free software; you can redistribute it and/or modify it under the terms of the GNU General Public License as published by the Free Software Foundation; either version 2 of the License, or (at your option) any later version.
  - This program is distributed in the hope that it will be useful, but WITHOUT ANY WARRANTY; without even the implied warranty of MERCHANTABILITY or FITNESS FOR A PARTICULAR PURPOSE. See the GNU General Public License for more details.
  -->

<!-- Created with Inkscape (http://www.inkscape.org/) -->

<svg
   xmlns:dc="http://purl.org/dc/elements/1.1/"
   xmlns:cc="http://creativecommons.org/ns#"
   xmlns:rdf="http://www.w3.org/1999/02/22-rdf-syntax-ns#"
   xmlns:svg="http://www.w3.org/2000/svg"
   xmlns="http://www.w3.org/2000/svg"
   xmlns:sodipodi="http://sodipodi.sourceforge.net/DTD/sodipodi-0.dtd"
   xmlns:inkscape="http://www.inkscape.org/namespaces/inkscape"
   width="32"
   height="32"
   viewBox="0 0 32.000006 32.000008"
   id="svg6063"
   version="1.1"
   inkscape:version="0.91 r13725"
   sodipodi:docname="email_delete.svg">
  <defs
     id="defs6065" />
  <sodipodi:namedview
     id="base"
     pagecolor="#ffffff"
     bordercolor="#666666"
     borderopacity="1.0"
     inkscape:pageopacity="0.0"
     inkscape:pageshadow="2"
     inkscape:zoom="11.2"
     inkscape:cx="-17.114325"
     inkscape:cy="7.7172601"
     inkscape:document-units="px"
     inkscape:current-layer="layer1"
     showgrid="true"
     units="px"
     inkscape:window-width="1920"
     inkscape:window-height="1007"
     inkscape:window-x="0"
     inkscape:window-y="0"
     inkscape:window-maximized="1">
    <inkscape:grid
       type="xygrid"
       id="grid6071"
       empspacing="4" />
  </sodipodi:namedview>
  <metadata
     id="metadata6068">
    <rdf:RDF>
      <cc:Work
         rdf:about="">
        <dc:format>image/svg+xml</dc:format>
        <dc:type
           rdf:resource="http://purl.org/dc/dcmitype/StillImage" />
        <dc:title></dc:title>
      </cc:Work>
    </rdf:RDF>
  </metadata>
  <g
     inkscape:label="Ebene 1"
     inkscape:groupmode="layer"
     id="layer1"
     transform="translate(0,-1020.2988)">
    <path
       inkscape:connector-curvature="0"
       d="m 16.911038,1043.6436 -0.03808,2.1346 11.136734,0.02 -0.01303,-2.2021 m 0,0 1.236632,-0.047 c 0.154551,-0.01 0.288667,-0.057 0.402,-0.17 0.113333,-0.1133 0.17,-0.2473 0.17,-0.402 l -0.002,-10e-4 0,-13.714 c -0.380667,0.4287 -0.791333,0.8217 -1.232,1.179 -3.190667,2.4527 -5.726335,4.4647 -7.607002,6.036 -0.607334,0.512 -1.101334,0.9107 -1.482001,1.196 -0.380666,0.2853 -0.895666,0.574 -1.544999,0.866 -0.649333,0.292 -1.259334,0.438 -1.830001,0.438 l -0.036,0 c -0.571333,0 -1.181333,-0.146 -1.83,-0.438 -0.648667,-0.292 -1.163668,-0.5807 -1.545001,-0.866 -0.381333,-0.2853 -0.875333,-0.684 -1.482,-1.196 -1.8806677,-1.5713 -4.4163354,-3.5833 -7.607003,-6.036 -0.4406668,-0.3573 -0.8513336,-0.7503 -1.2320004,-1.179 l 0,13.714 c 0,0.1547 0.056667,0.2887 0.1700001,0.402 0.1133333,0.1133 0.2473334,0.17 0.4020001,0.17 l 13.9637522,0.095 m 12.892255,-19.435 0,-0.438 -0.009,-0.232 c -0.006,-0.1547 -0.024,-0.229 -0.054,-0.223 -0.03,0.01 -0.06267,-0.047 -0.098,-0.161 -0.03533,-0.1133 -0.089,-0.158 -0.161,-0.134 -0.072,0.024 -0.155333,0.01 -0.25,-0.045 l -26.2860072,0 c -0.1546667,0 -0.2886668,0.057 -0.4020001,0.17 -0.1133334,0.1133 -0.1700001,0.2473 -0.1700001,0.402 0,2 0.8750003,3.6903 2.6250008,5.071 2.297334,1.8093 4.6843349,3.6963 7.1610026,5.661 0.07133,0.059 0.279667,0.235 0.625,0.527 0.345333,0.292 0.619,0.5153 0.821001,0.67 0.202,0.1547 0.467,0.3423 0.795,0.563 0.328,0.2207 0.628667,0.3843 0.902,0.491 0.273333,0.1067 0.529333,0.1603 0.768,0.161 l 0.036,0 c 0.238,0 0.494,-0.054 0.768001,-0.161 0.274,-0.1073 0.574667,-0.271 0.902,-0.491 0.327333,-0.22 0.592333,-0.4077 0.795,-0.563 0.202667,-0.1553 0.476333,-0.3787 0.820999,-0.67 0.344667,-0.2913 0.553,-0.467 0.625,-0.527 2.476001,-1.964 4.863002,-3.851 7.161003,-5.661 0.642667,-0.512 1.241,-1.1997 1.795,-2.063 0.554,-0.8633 0.830667,-1.646 0.83,-2.348 z m -1.807632,21.626 -11.085623,0 m 0,0 -13.9637522,0 c -0.7860003,0 -1.4586671,-0.2797 -2.01800047,-0.839 -0.55933353,-0.5593 -0.8390003,-1.232 -0.8390003,-2.018 l 0,-19.429 c 0,-0.786 0.27966677,-1.4587 0.8390003,-2.018 0.55933337,-0.5593 1.23200017,-0.839 2.01800047,-0.839 l 26.2860072,0 c 0.786001,0 1.458668,0.2797 2.018001,0.839 0.559333,0.5593 0.839,1.232 0.839,2.018 l 0,19.429 c 0,0.786 -0.279667,1.4587 -0.839,2.018 -0.559333,0.5593 -1.232,0.839 -2.018001,0.839 l -1.236632,0"
       id="path4"
       sodipodi:nodetypes="cccccsscccccsssssscccssscccsccscsssccsssscsssssccscccccssssssssssssc" />
    <path
       inkscape:connector-curvature="0"
       d="m 27.026029,1045.1747 0,-1.1846 q 0,-0.2405 -0.175676,-0.4167 -0.175676,-0.1762 -0.416648,-0.1757 l -7.106853,0 q -0.240453,0 -0.416647,0.1757 -0.176195,0.1757 -0.175677,0.4167 l 0,1.1846 q 0,0.2405 0.175677,0.4167 0.175675,0.1762 0.416647,0.1757 l 7.106853,0 q 0.240453,0 0.416648,-0.1757 0.176195,-0.1757 0.175676,-0.4167 z m 2.961621,-0.5923 q 0,1.934 -0.953004,3.5674 -0.953004,1.6335 -2.586431,2.5865 -1.633426,0.9529 -3.567418,0.9529 -1.933992,0 -3.567418,-0.9529 -1.633426,-0.953 -2.58643,-2.5865 -0.953005,-1.6334 -0.953005,-3.5674 0,-1.934 0.953005,-3.5674 0.953004,-1.6335 2.58643,-2.5865 1.633426,-0.9529 3.567418,-0.9529 1.933992,0 3.567418,0.9529 1.633427,0.953 2.586431,2.5865 0.953004,1.6334 0.953004,3.5674 z"
       id="path4-3"
       style="fill:#000000" />
  </g>
</svg>
