<?xml version="1.0" encoding="UTF-8" standalone="no"?>
<!--
  - @copyright Limbas GmbH <https://limbas.com>
  - @license https://opensource.org/licenses/GPL-2.0 GPL-2.0
  -
  - This program is free software; you can redistribute it and/or modify it under the terms of the GNU General Public License as published by the Free Software Foundation; either version 2 of the License, or (at your option) any later version.
  - This program is distributed in the hope that it will be useful, but WITHOUT ANY WARRANTY; without even the implied warranty of MERCHANTABILITY or FITNESS FOR A PARTICULAR PURPOSE. See the GNU General Public License for more details.
  -->

<!-- Created with Inkscape (http://www.inkscape.org/) -->

<svg
   xmlns:dc="http://purl.org/dc/elements/1.1/"
   xmlns:cc="http://creativecommons.org/ns#"
   xmlns:rdf="http://www.w3.org/1999/02/22-rdf-syntax-ns#"
   xmlns:svg="http://www.w3.org/2000/svg"
   xmlns="http://www.w3.org/2000/svg"
   xmlns:sodipodi="http://sodipodi.sourceforge.net/DTD/sodipodi-0.dtd"
   xmlns:inkscape="http://www.inkscape.org/namespaces/inkscape"
   width="32"
   height="32"
   viewBox="0 0 31.999999 31.999998"
   id="svg2"
   version="1.1"
   inkscape:version="0.91 r13725"
   sodipodi:docname="email_open.svg">
  <defs
     id="defs4" />
  <sodipodi:namedview
     id="base"
     pagecolor="#ffffff"
     bordercolor="#666666"
     borderopacity="1.0"
     inkscape:pageopacity="0.0"
     inkscape:pageshadow="2"
     inkscape:zoom="15.839192"
     inkscape:cx="15.152325"
     inkscape:cy="22.468064"
     inkscape:document-units="px"
     inkscape:current-layer="layer1"
     showgrid="true"
     inkscape:window-width="1920"
     inkscape:window-height="1007"
     inkscape:window-x="0"
     inkscape:window-y="0"
     inkscape:window-maximized="1"
     units="px">
    <inkscape:grid
       type="xygrid"
       id="grid3344"
       empspacing="4" />
  </sodipodi:namedview>
  <metadata
     id="metadata7">
    <rdf:RDF>
      <cc:Work
         rdf:about="">
        <dc:format>image/svg+xml</dc:format>
        <dc:type
           rdf:resource="http://purl.org/dc/dcmitype/StillImage" />
        <dc:title></dc:title>
      </cc:Work>
    </rdf:RDF>
  </metadata>
  <g
     inkscape:label="Ebene 1"
     inkscape:groupmode="layer"
     id="layer1"
     transform="translate(0,-1020.3622)">
    <g
       id="g4137"
       transform="matrix(0.32041994,0,0,0.32041994,-2.1655421,716.84822)">
      <path
         sodipodi:nodetypes="ccccccsscccccssssscccccsssssscccccsscccssscsccssccccccccccc"
         id="path4-4"
         d="m 91.389587,1039.9233 0,-34.6967 c -0.963091,1.0845 -2.002085,2.0788 -3.116981,2.9829 -8.072446,6.2052 -14.487729,11.2956 -19.24585,15.2712 -1.536565,1.2953 -2.786393,2.304 -3.749486,3.0259 -0.963094,0.7219 -2.266054,1.4522 -3.908879,2.1909 -1.642825,0.7388 -3.186136,1.1082 -4.629933,1.1082 l -0.09108,0 c -1.445483,0 -2.988793,-0.3694 -4.629932,-1.1082 -1.641139,-0.7387 -2.944098,-1.469 -3.908879,-2.1909 -0.964779,-0.7219 -2.214608,-1.7306 -3.749487,-3.0259 -4.758122,-3.9756 -11.173405,-9.066 -19.24585,-15.2712 -1.114895,-0.9041 -2.153889,-1.8984 -3.116982,-2.9829 l 0,34.6967 c 0,0.3913 0.143368,0.7303 0.430103,1.017 0.286736,0.2867 0.625758,0.4301 1.017067,0.4301 l 66.504058,0 c 0.39131,0 0.730334,-0.1434 1.017071,-0.4301 0.286737,-0.2867 0.430106,-0.6257 0.430106,-1.017 z m -16.355357,-52.54226 22.099725,-0.11319 0.03925,3.50219 0,49.15566 c 0,1.9886 -0.707563,3.6905 -2.122689,5.1056 -1.415119,1.4151 -3.116976,2.1227 -5.10557,2.1227 l -66.504063,0 c -1.988594,0 -3.690453,-0.7076 -5.105577,-2.1227 -1.415123,-1.4151 -2.122685,-3.117 -2.122685,-5.1056 l 0,-49.15566 0.03924,-3.46521 10.939017,0.16549 0.132679,1.90712 -3.885179,-0.0572 c -0.391309,0 -0.730332,0.14338 -1.017068,0.43014 -0.286735,0.28676 -0.430103,0.62578 -0.430103,1.01707 0,5.06001 2.213766,9.33665 6.641299,12.82975 5.812295,4.5777 11.851449,9.3518 18.117462,14.3225 0.180475,0.1501 0.707561,0.5945 1.58126,1.3333 0.8737,0.7387 1.566082,1.3038 2.077145,1.6951 0.511064,0.3913 1.181519,0.8661 2.011365,1.4244 0.829846,0.5583 1.590538,0.9723 2.282076,1.2422 0.691539,0.2699 1.339224,0.4057 1.943055,0.4074 l 0.09108,0 c 0.602145,0 1.249829,-0.1358 1.943054,-0.4074 0.693225,-0.2715 1.453918,-0.6856 2.282077,-1.2422 0.828159,-0.5567 1.498614,-1.0315 2.011365,-1.4244 0.51275,-0.3929 1.205131,-0.958 2.077144,-1.6951 0.872013,-0.7371 1.399101,-1.1816 1.581262,-1.3333 6.264325,-4.969 12.303478,-9.7432 18.117461,-14.3225 1.625959,-1.2953 3.139753,-3.0352 4.541384,-5.2195 1.401628,-2.18423 2.1016,-4.16439 2.099917,-5.94048 l 0,0.003 0,-1.10811 -0.02277,-0.58703 c -0.0017,-0.4662 -0.228295,-0.66971 -0.384568,-0.97147 -0.251483,-0.39843 -0.637699,-0.41587 -1.039833,-0.45294 l -9.329106,0.1016 z"
         inkscape:connector-curvature="0" />
      <path
         style="fill:#000000"
         sodipodi:nodetypes="ccsccssccccsccssccsccscccccccscccccsscccc"
         id="path4"
         d="m 24.850514,968.8316 c -1.117151,0.90586 -3.610555,1.53911 -7.473263,9.86877 -2.897664,9.23547 -0.736363,11.30384 0.681624,12.72184 1.417988,1.41799 0.891149,-1.44445 2.883768,-1.44445 l 2.229543,-2.21883 c -0.392101,0 -0.73181,-0.14366 -1.019125,-0.43098 -0.287317,-0.28731 -0.430975,-0.62702 -0.430975,-1.01912 0,-5.07028 2.218248,-9.35549 6.654745,-12.85569 5.824062,-4.58697 11.87544,-9.37076 18.154138,-14.35144 0.180841,-0.15035 0.708995,-0.59568 1.584463,-1.336 0.875469,-0.74031 1.569252,-1.30644 2.081349,-1.69853 0.512099,-0.39215 1.183911,-0.86784 2.015436,-1.42725 0.831528,-0.55935 1.59376,-0.97438 2.286697,-1.24479 0.692939,-0.27042 1.341934,-0.40646 1.946987,-0.40816 l 0.09126,0 c 0.603363,0 1.252359,0.13602 1.946987,0.40816 0.694629,0.27206 1.456862,0.68701 2.286696,1.24479 0.829836,0.55769 1.501649,1.03344 2.015437,1.42725 0.513789,0.39381 1.207572,0.95993 2.081351,1.69853 0.873777,0.7386 1.401931,1.18389 1.584461,1.336 6.277007,4.97909 12.328387,9.76287 18.154138,14.35144 1.629251,1.29795 3.146114,3.04134 4.550573,5.22997 1.404473,2.18871 2.105863,4.17285 2.104177,5.95252 l 4.6e-5,-0.003 0,1.11039 -0.02286,0.58814 c -9.81e-4,0.46671 -0.228704,0.67101 -0.385345,0.9735 -0.251996,0.39925 -0.639066,0.41668 -1.041941,0.4538 l 3.574029,3.29026 c 1.992623,0 0.126492,1.79101 1.544478,0.37302 1.417992,-1.418 4.123912,-3.48637 1.226242,-12.72184 -4.833419,-7.80652 -6.900727,-8.83455 -8.017877,-9.7404 -8.088789,-6.21787 -14.517059,-11.44682 -19.284813,-15.43039 -1.539674,-1.29808 -2.792034,-2.30874 -3.757078,-3.03205 -0.965043,-0.72337 -2.27064,-1.45519 -3.916791,-2.19536 -1.646151,-0.74031 -3.192586,-1.11054 -4.639307,-1.11054 l -0.09126,0 c -1.448412,0 -2.994848,0.37023 -4.639307,1.11054 -1.644462,0.74017 -2.950058,1.47199 -3.916792,2.19536 -0.966733,0.72331 -2.219092,1.73397 -3.757078,3.03205 -4.767754,3.98357 -11.196025,9.08415 -19.284813,15.30202"
         inkscape:connector-curvature="0" />
      <path
         sodipodi:nodetypes="cccsscccsssccccssssssssscc"
         id="path4-5"
         d="m 64.433956,979.38896 0,13.66965 13.66964,0 c -0.242954,-0.70305 -0.509669,-1.19987 -0.800144,-1.49035 L 65.924301,980.1891 c -0.290475,-0.29047 -0.787256,-0.5572 -1.490345,-0.80014 z m 13.960788,29.46594 0,-11.1441 -15.125374,0 c -0.969132,0 -1.793036,-0.3394 -2.471693,-1.0179 -0.678657,-0.6787 -1.017996,-1.5026 -1.017996,-2.4718 l 0,-15.12532 -27.921574,0 0,30.12262 -4.654274,-0.2016 c -0.178353,-10.3598 0,-31.08418 0,-31.08418 0,-0.96914 0.339339,-1.79304 1.017995,-2.47171 0.678657,-0.67865 1.502561,-1.01799 2.471692,-1.01799 l 32.57585,0 c 0.969131,0 2.035318,0.24228 3.198541,0.72685 1.163222,0.48457 2.084182,1.06619 2.762839,1.74484 l 11.34454,11.3445 c 0.678656,0.6788 1.260278,1.59973 1.744843,2.76283 0.484566,1.16334 0.726849,2.22945 0.726849,3.19856 l 0,14.7055 z"
         inkscape:connector-curvature="0" />
    </g>
  </g>
</svg>
