<?xml version="1.0" encoding="UTF-8" standalone="no"?>
<!--
  - @copyright Limbas GmbH <https://limbas.com>
  - @license https://opensource.org/licenses/GPL-2.0 GPL-2.0
  -
  - This program is free software; you can redistribute it and/or modify it under the terms of the GNU General Public License as published by the Free Software Foundation; either version 2 of the License, or (at your option) any later version.
  - This program is distributed in the hope that it will be useful, but WITHOUT ANY WARRANTY; without even the implied warranty of MERCHANTABILITY or FITNESS FOR A PARTICULAR PURPOSE. See the GNU General Public License for more details.
  -->

<!-- Created with Inkscape (http://www.inkscape.org/) -->

<svg
   xmlns:dc="http://purl.org/dc/elements/1.1/"
   xmlns:cc="http://creativecommons.org/ns#"
   xmlns:rdf="http://www.w3.org/1999/02/22-rdf-syntax-ns#"
   xmlns:svg="http://www.w3.org/2000/svg"
   xmlns="http://www.w3.org/2000/svg"
   xmlns:sodipodi="http://sodipodi.sourceforge.net/DTD/sodipodi-0.dtd"
   xmlns:inkscape="http://www.inkscape.org/namespaces/inkscape"
   width="32"
   height="32"
   viewBox="0 0 32.000006 32.000008"
   id="svg6063"
   version="1.1"
   inkscape:version="0.91 r13725"
   sodipodi:docname="email_link.svg">
  <defs
     id="defs6065" />
  <sodipodi:namedview
     id="base"
     pagecolor="#ffffff"
     bordercolor="#666666"
     borderopacity="1.0"
     inkscape:pageopacity="0.0"
     inkscape:pageshadow="2"
     inkscape:zoom="11.313708"
     inkscape:cx="20.131359"
     inkscape:cy="14.800212"
     inkscape:document-units="px"
     inkscape:current-layer="layer1"
     showgrid="true"
     units="px"
     inkscape:window-width="1920"
     inkscape:window-height="1007"
     inkscape:window-x="0"
     inkscape:window-y="0"
     inkscape:window-maximized="1">
    <inkscape:grid
       type="xygrid"
       id="grid6071"
       empspacing="4" />
  </sodipodi:namedview>
  <metadata
     id="metadata6068">
    <rdf:RDF>
      <cc:Work
         rdf:about="">
        <dc:format>image/svg+xml</dc:format>
        <dc:type
           rdf:resource="http://purl.org/dc/dcmitype/StillImage" />
        <dc:title></dc:title>
      </cc:Work>
    </rdf:RDF>
  </metadata>
  <g
     inkscape:label="Ebene 1"
     inkscape:groupmode="layer"
     id="layer1"
     transform="translate(0,-1020.2988)">
    <path
       inkscape:connector-curvature="0"
       d="m 11.228929,1043.6233 -1.3007715,2.2124 18.0815345,0 0.618316,-2.2356 m -0.29989,0 0.905176,-0.047 c 0.154666,-0.01 0.288667,-0.057 0.402,-0.17 0.113333,-0.1133 0.17,-0.2473 0.17,-0.402 l -0.002,-10e-4 0,-13.714 c -0.380667,0.4287 -0.791333,0.8217 -1.232,1.179 -3.190667,2.4527 -5.726335,4.4647 -7.607002,6.036 -0.607334,0.512 -1.101334,0.9107 -1.482001,1.196 -0.380666,0.2853 -0.895666,0.574 -1.544999,0.866 -0.649333,0.292 -1.259334,0.438 -1.830001,0.438 l -0.036,0 c -0.571333,0 -1.181333,-0.146 -1.83,-0.438 -0.648667,-0.292 -1.163668,-0.5807 -1.545001,-0.866 -0.381333,-0.2853 -0.875333,-0.684 -1.482,-1.196 -1.8806674,-1.5713 -4.4163351,-3.5833 -7.6070027,-6.036 -0.4406668,-0.3573 -0.8513336,-0.7503 -1.2320004,-1.179 l 0,13.714 c 0,0.1547 0.056667,0.2887 0.1700001,0.402 0.1133333,0.1133 0.2473372,0.1689 0.4020001,0.17 l 9.2286609,0.063 m 17.627346,-19.4034 0,-0.438 -0.009,-0.232 c -0.006,-0.1547 -0.024,-0.229 -0.054,-0.223 -0.03,0.01 -0.06267,-0.047 -0.098,-0.161 -0.03533,-0.1133 -0.089,-0.158 -0.161,-0.134 -0.072,0.024 -0.155333,0.01 -0.25,-0.045 l -26.2860069,0 c -0.1546667,0 -0.2886668,0.057 -0.4020001,0.17 -0.1133334,0.1133 -0.1700001,0.2473 -0.1700001,0.402 0,2 0.8750003,3.6903 2.6250008,5.071 2.297334,1.8093 4.6843349,3.6963 7.1610023,5.661 0.07133,0.059 0.279667,0.235 0.625,0.527 0.345333,0.292 0.619,0.5153 0.821001,0.67 0.202,0.1547 0.467,0.3423 0.795,0.563 0.328,0.2207 0.628667,0.3843 0.902,0.491 0.273333,0.1067 0.529333,0.1603 0.768,0.161 l 0.036,0 c 0.238,0 0.494,-0.054 0.768001,-0.161 0.274,-0.1073 0.574667,-0.271 0.902,-0.491 0.327333,-0.22 0.592333,-0.4077 0.795,-0.563 0.202667,-0.1553 0.476333,-0.3787 0.820999,-0.67 0.344667,-0.2913 0.553,-0.467 0.625,-0.527 2.476001,-1.964 4.863002,-3.851 7.161003,-5.661 0.642667,-0.512 1.241,-1.1997 1.795,-2.063 0.554,-0.8633 0.830667,-1.646 0.83,-2.348 z m -1.807632,21.626 -11.085623,0 m -2.998891,0 -10.9648609,0 c -0.7860003,0 -1.4586671,-0.2797 -2.01800047,-0.839 -0.55933353,-0.5593 -0.8390003,-1.232 -0.8390003,-2.018 l 0,-19.429 c 0,-0.786 0.27966677,-1.4587 0.8390003,-2.018 0.55933337,-0.5593 1.23200017,-0.839 2.01800047,-0.839 l 26.2860069,0 c 0.786001,0 1.458668,0.2797 2.018001,0.839 0.559333,0.5593 0.839,1.232 0.839,2.018 l 0,19.429 c 0,0.786 -0.279667,1.4587 -0.839,2.018 -0.559333,0.5593 -1.232,0.839 -2.018001,0.839 l -1.236632,0"
       id="path4"
       sodipodi:nodetypes="cccccsscccccsssssscccssscccsccscsssccsssscsssssccscccccssssssssssssc" />
    <path
       inkscape:connector-curvature="0"
       d="m 27.064081,1040.9605 q -0.383271,-0.2211 -0.806677,-0.1077 l -3.145061,0.8427 q -0.423405,0.1135 -0.644759,0.4966 -0.232404,0.4029 -0.09208,0.8673 0.04574,-0.012 0.283259,-0.076 0.237529,-0.064 0.325175,-0.087 0.08765,-0.024 0.265291,-0.038 0.176347,-0.019 0.315984,0.016 0.139899,0.036 0.283017,0.118 0.383271,0.2211 0.496738,0.6446 0.113466,0.4234 -0.107888,0.8066 -0.08337,0.1427 -0.18609,0.2437 -0.102721,0.1011 -0.265776,0.1717 -0.162794,0.072 -0.248983,0.099 -0.08722,0.023 -0.325176,0.087 -0.237954,0.064 -0.283258,0.076 0.114845,0.4881 0.517529,0.7205 0.383298,0.2212 0.806702,0.1078 l 3.122619,-0.8367 q 0.408164,-0.1094 0.635017,-0.5025 0.221354,-0.3831 0.127195,-0.7955 l -0.585919,-2.2172 q -0.11344,-0.4234 -0.487094,-0.6391 z m -10.650878,2.8332 q -0.383375,-0.2215 -0.80678,-0.1081 l -3.12262,0.8367 q -0.423407,0.1135 -0.644707,0.4968 -0.215726,0.3737 -0.117528,0.8011 l 0.585919,2.2172 q 0.113492,0.4236 0.487097,0.6391 0.383349,0.2215 0.806754,0.108 l 3.145061,-0.8427 q 0.408164,-0.1094 0.635017,-0.5025 0.232507,-0.4025 0.101222,-0.8619 -0.04573,0.012 -0.283259,0.076 -0.237531,0.064 -0.325177,0.087 -0.08764,0.024 -0.26503,0.039 -0.176348,0.019 -0.315984,-0.016 -0.1399,-0.036 -0.283047,-0.1181 -0.383294,-0.2212 -0.496734,-0.6446 -0.113466,-0.4235 0.107807,-0.8069 0.08299,-0.1442 0.186144,-0.2436 0.102721,-0.101 0.265774,-0.1716 0.162793,-0.072 0.248983,-0.099 0.08722,-0.023 0.325177,-0.087 0.237953,-0.064 0.283259,-0.076 -0.114845,-0.4881 -0.517503,-0.7204 z m 11.71249,-4.6786 q 1.15052,0.6643 1.475599,1.9385 l 0.585944,2.2173 q 0.336284,1.255 -0.327965,2.4054 -0.66983,1.1601 -1.94411,1.4853 l -3.122621,0.8367 q -1.254976,0.3363 -2.405443,-0.3279 -1.178888,-0.6804 -1.516607,-2.0001 l -1.330342,0.3565 q 0.367413,1.3117 -0.30778,2.4808 -0.664225,1.1505 -1.934441,1.4908 l -3.145061,0.8428 q -1.27022,0.3403 -2.420713,-0.324 -1.15052,-0.6643 -1.475599,-1.9385 l -0.5859446,-2.2173 q -0.3362836,-1.255 0.3279657,-2.4054 0.6698299,-1.1601 1.9441099,-1.4853 l 3.122621,-0.8367 q 1.254976,-0.3363 2.405443,0.3279 1.178888,0.6804 1.516607,2.0001 l 1.330342,-0.3565 q -0.367413,-1.3117 0.30778,-2.4808 0.664225,-1.1505 1.934441,-1.4908 l 3.145061,-0.8428 q 1.27022,-0.3403 2.420713,0.324 z"
       id="path4-9" />
  </g>
</svg>
