<?xml version="1.0" encoding="UTF-8" standalone="no"?>
<!--
  - @copyright Limbas GmbH <https://limbas.com>
  - @license https://opensource.org/licenses/GPL-2.0 GPL-2.0
  -
  - This program is free software; you can redistribute it and/or modify it under the terms of the GNU General Public License as published by the Free Software Foundation; either version 2 of the License, or (at your option) any later version.
  - This program is distributed in the hope that it will be useful, but WITHOUT ANY WARRANTY; without even the implied warranty of MERCHANTABILITY or FITNESS FOR A PARTICULAR PURPOSE. See the GNU General Public License for more details.
  -->

<!-- Created with Inkscape (http://www.inkscape.org/) -->

<svg
   xmlns:dc="http://purl.org/dc/elements/1.1/"
   xmlns:cc="http://creativecommons.org/ns#"
   xmlns:rdf="http://www.w3.org/1999/02/22-rdf-syntax-ns#"
   xmlns:svg="http://www.w3.org/2000/svg"
   xmlns="http://www.w3.org/2000/svg"
   xmlns:sodipodi="http://sodipodi.sourceforge.net/DTD/sodipodi-0.dtd"
   xmlns:inkscape="http://www.inkscape.org/namespaces/inkscape"
   width="32"
   height="32"
   viewBox="0 0 31.999999 31.999998"
   id="svg3407"
   version="1.1"
   inkscape:version="0.91 r13725"
   sodipodi:docname="folder_delete.svg">
  <defs
     id="defs3409" />
  <sodipodi:namedview
     id="base"
     pagecolor="#ffffff"
     bordercolor="#666666"
     borderopacity="1.0"
     inkscape:pageopacity="0.0"
     inkscape:pageshadow="2"
     inkscape:zoom="11.2"
     inkscape:cx="6.3420307"
     inkscape:cy="9.782811"
     inkscape:document-units="px"
     inkscape:current-layer="layer1"
     showgrid="true"
     units="px"
     inkscape:window-width="1920"
     inkscape:window-height="1007"
     inkscape:window-x="0"
     inkscape:window-y="0"
     inkscape:window-maximized="1">
    <inkscape:grid
       type="xygrid"
       id="grid4135"
       empspacing="4" />
  </sodipodi:namedview>
  <metadata
     id="metadata3412">
    <rdf:RDF>
      <cc:Work
         rdf:about="">
        <dc:format>image/svg+xml</dc:format>
        <dc:type
           rdf:resource="http://purl.org/dc/dcmitype/StillImage" />
        <dc:title></dc:title>
      </cc:Work>
    </rdf:RDF>
  </metadata>
  <g
     inkscape:label="Ebene 1"
     inkscape:groupmode="layer"
     id="layer1"
     transform="translate(0,-1020.3622)">
    <path
       id="path3428"
       d="m 29.538461,1047.2714 0,-16.0001 q 0,-0.9091 -0.539072,-1.5448 -0.539084,-0.6356 -1.307083,-0.637 l -13.538459,0 q -0.769232,0 -1.307077,-0.6371 -0.537846,-0.6372 -0.539077,-1.5447 l 0,-1.4547 q 0,-0.909 -0.539076,-1.5447 -0.539079,-0.6357 -1.307078,-0.637 l -6.1538459,0 q -0.7692308,0 -1.3070774,0.637 -0.5378457,0.6372 -0.5390765,1.5447 l 0,21.8184 q 0,0.9089 0.5390765,1.5446 0.5390776,0.6357 1.3070774,0.6372 l 23.3846129,0 q 0.769226,0 1.307083,-0.6372 0.537845,-0.6372 0.539072,-1.5446 z m 2.461534,-16.0001 0,16.0001 q 0,2.09 -1.268916,3.5911 -1.268929,1.5011 -3.038773,1.4997 l -23.3846129,0 q -1.7686155,0 -3.0387691,-1.4997 -1.27015358,-1.4996 -1.2689228085187,-3.5911 l 0,-21.8184 q 0,-2.0901 1.2689228085187,-3.5912 1.2689229,-1.5011 3.0387691,-1.4996 l 6.1538459,0 q 1.768615,0 3.03877,1.4996 1.270153,1.4996 1.268922,3.5912 l 0,0.7273 12.923075,0 q 1.768619,0 3.038773,1.4997 1.270154,1.4996 1.268916,3.5913 z"
       inkscape:connector-curvature="0" />
    <path
       id="path3584"
       d="m 11.015162,1045.0161 q 0,-0.2874 -0.210233,-0.4976 -0.210232,-0.2103 -0.49762,-0.2103 -0.287388,0 -0.4976208,0.2103 -0.2102323,0.2102 -0.2102323,0.4976 0,0.2874 0.2102323,0.4977 0.2102328,0.2101 0.4976208,0.2101 0.287388,0 0.49762,-0.2101 0.210233,-0.2103 0.210233,-0.4977 z m 7.123124,-4.645 -7.542881,7.543 q -0.409139,0.4091 -0.9952413,0.4091 -0.5747765,0 -1.0065668,-0.4091 l -1.1722045,-1.1942 q -0.4204646,-0.3978 -0.4204646,-0.9952 0,-0.5861 0.4204646,-1.0066 l 7.5322636,-7.5323 q 0.431082,1.0838 1.266348,1.919 0.835266,0.8353 1.91899,1.2663 z m 7.011992,-4.8112 q 0,0.4311 -0.25412,1.1722 -0.519564,1.4823 -1.819182,2.4053 -1.299618,0.9231 -2.859018,0.9237 -2.046403,0 -3.500333,-1.4546 -1.453929,-1.4547 -1.454637,-3.5004 -7.08e-4,-2.0456 1.454637,-3.5003 1.455346,-1.4546 3.500333,-1.4546 0.641315,0 1.343505,0.1826 0.70219,0.1827 1.189193,0.5147 0.176963,0.1217 0.176963,0.31 0,0.1883 -0.176963,0.31 l -3.240551,1.8694 0,2.4776 2.134884,1.1834 q 0.05521,-0.033 0.873491,-0.5365 0.818278,-0.5033 1.498524,-0.8961 0.680248,-0.3928 0.780054,-0.3928 0.165638,0 0.259783,0.1104 0.09414,0.1104 0.09414,0.2767 z"
       inkscape:connector-curvature="0" />
  </g>
</svg>
