<?xml version="1.0" encoding="utf-8"?>
<!--
  - @copyright Limbas GmbH <https://limbas.com>
  - @license https://opensource.org/licenses/GPL-2.0 GPL-2.0
  -
  - This program is free software; you can redistribute it and/or modify it under the terms of the GNU General Public License as published by the Free Software Foundation; either version 2 of the License, or (at your option) any later version.
  - This program is distributed in the hope that it will be useful, but WITHOUT ANY WARRANTY; without even the implied warranty of MERCHANTABILITY or FITNESS FOR A PARTICULAR PURPOSE. See the GNU General Public License for more details.
  -->

<!-- Generated by IcoMoon.io -->
<!DOCTYPE svg PUBLIC "-//W3C//DTD SVG 1.1//EN" "http://www.w3.org/Graphics/SVG/1.1/DTD/svg11.dtd">
<svg version="1.1" xmlns="http://www.w3.org/2000/svg" xmlns:xlink="http://www.w3.org/1999/xlink" width="32" height="32" viewBox="0 0 32 32">
<path d="M27.429 17.394v-8.821c0-0.476-0.167-0.881-0.5-1.214s-0.738-0.5-1.214-0.5h-12.571c-0.476 0-0.881-0.167-1.214-0.5s-0.5-0.738-0.5-1.214v-1.143c0-0.476-0.167-0.881-0.5-1.214s-0.738-0.5-1.214-0.5h-5.714c-0.476 0-0.881 0.167-1.214 0.5s-0.5 0.738-0.5 1.214v17.143c0 0.476 0.167 0.881 0.5 1.214s0.738 0.5 1.214 0.5h12.339l0.043 2.284h-12.384c-1.095 0-2.036-0.393-2.821-1.179s-1.178-1.726-1.179-2.821v-17.143c0-1.095 0.393-2.036 1.179-2.821s1.726-1.178 2.821-1.179h5.714c1.095 0 2.036 0.393 2.821 1.179s1.178 1.726 1.179 2.821v0.571h12c1.095 0 2.036 0.393 2.821 1.179s1.178 1.726 1.179 2.821v9.938z"></path>
<path d="M27.951 23.094v-1.619q0-0.329-0.24-0.57t-0.57-0.24h-3.238v-3.239q0-0.329-0.24-0.57t-0.57-0.24h-1.62q-0.329 0-0.57 0.24t-0.24 0.57v3.239h-3.238q-0.329 0-0.57 0.24t-0.24 0.57v1.619q0 0.329 0.24 0.57t0.57 0.24h3.238v3.238q0 0.329 0.24 0.57t0.57 0.24h1.62q0.329 0 0.57-0.24t0.24-0.57v-3.239h3.238q0.329 0 0.57-0.24t0.24-0.57zM32 22.284q0 2.644-1.303 4.877t-3.536 3.536-4.877 1.303-4.877-1.303-3.536-3.536-1.303-4.877 1.303-4.877 3.536-3.536 4.877-1.303 4.877 1.303 3.536 3.536 1.303 4.877z"></path>
</svg>
