<?xml version="1.0" encoding="UTF-8" standalone="no"?>
<!--
  - @copyright Limbas GmbH <https://limbas.com>
  - @license https://opensource.org/licenses/GPL-2.0 GPL-2.0
  -
  - This program is free software; you can redistribute it and/or modify it under the terms of the GNU General Public License as published by the Free Software Foundation; either version 2 of the License, or (at your option) any later version.
  - This program is distributed in the hope that it will be useful, but WITHOUT ANY WARRANTY; without even the implied warranty of MERCHANTABILITY or FITNESS FOR A PARTICULAR PURPOSE. See the GNU General Public License for more details.
  -->

<!-- Generated by IcoMoon.io -->

<svg
   xmlns:dc="http://purl.org/dc/elements/1.1/"
   xmlns:cc="http://creativecommons.org/ns#"
   xmlns:rdf="http://www.w3.org/1999/02/22-rdf-syntax-ns#"
   xmlns:svg="http://www.w3.org/2000/svg"
   xmlns="http://www.w3.org/2000/svg"
   xmlns:sodipodi="http://sodipodi.sourceforge.net/DTD/sodipodi-0.dtd"
   xmlns:inkscape="http://www.inkscape.org/namespaces/inkscape"
   version="1.1"
   width="28"
   height="28"
   viewBox="0 0 28 28"
   id="svg3428"
   inkscape:version="0.91 r13725"
   sodipodi:docname="list_edit.svg">
  <metadata
     id="metadata3436">
    <rdf:RDF>
      <cc:Work
         rdf:about="">
        <dc:format>image/svg+xml</dc:format>
        <dc:type
           rdf:resource="http://purl.org/dc/dcmitype/StillImage" />
        <dc:title></dc:title>
      </cc:Work>
    </rdf:RDF>
  </metadata>
  <defs
     id="defs3434" />
  <sodipodi:namedview
     pagecolor="#ffffff"
     bordercolor="#666666"
     borderopacity="1"
     objecttolerance="10"
     gridtolerance="10"
     guidetolerance="10"
     inkscape:pageopacity="0"
     inkscape:pageshadow="2"
     inkscape:window-width="1920"
     inkscape:window-height="1135"
     id="namedview3432"
     showgrid="false"
     inkscape:zoom="16.696429"
     inkscape:cx="24.876592"
     inkscape:cy="17.235471"
     inkscape:window-x="0"
     inkscape:window-y="0"
     inkscape:window-maximized="1"
     inkscape:current-layer="svg3428" />
  <path
     d="m 4,20.5 0,3 C 4,23.635333 3.9506667,23.752667 3.852,23.852 3.7533333,23.951333 3.636,24.000667 3.5,24 l -3,0 C 0.36466667,24 0.24733333,23.950667 0.148,23.852 0.04866667,23.753333 -6.6666667e-4,23.636 0,23.5 l 0,-3 C 0,20.364667 0.04933333,20.247333 0.148,20.148 0.24666667,20.048667 0.364,19.999333 0.5,20 l 3,0 c 0.1353333,0 0.2526667,0.04933 0.352,0.148 C 3.951333,20.24667 4.0006667,20.364 4,20.5 Z m 0,-6 0,3 C 4,17.635333 3.9506667,17.752667 3.852,17.852 3.7533333,17.951333 3.636,18.000667 3.5,18 l -3,0 C 0.36466667,18 0.24733333,17.950667 0.148,17.852 0.04866667,17.753333 -6.6666667e-4,17.636 0,17.5 l 0,-3 C 0,14.364667 0.04933333,14.247333 0.148,14.148 0.24666667,14.048667 0.364,13.999333 0.5,14 l 3,0 c 0.1353333,0 0.2526667,0.04933 0.352,0.148 C 3.951333,14.24667 4.0006667,14.364 4,14.5 Z m 0,-6 0,3 C 4,11.635333 3.9506667,11.752667 3.852,11.852 3.7533333,11.951333 3.636,12.000667 3.5,12 l -3,0 C 0.36466667,12 0.24733333,11.950667 0.148,11.852 0.04866667,11.753333 -6.6666667e-4,11.636 0,11.5 l 0,-3 C 0,8.3646667 0.04933333,8.2473333 0.148,8.148 0.24666667,8.0486667 0.364,7.9993333 0.5,8 l 3,0 C 3.6353333,8 3.7526667,8.0493333 3.852,8.148 3.9513333,8.2466667 4.0006667,8.364 4,8.5 Z M 9.1488324,24 6.5,24 C 6.3646667,24 6.2473333,23.950667 6.148,23.852 6.0486667,23.753333 5.9993333,23.636 6,23.5 l 0,-3 C 6,20.364667 6.0493333,20.247333 6.148,20.148 6.2466667,20.048667 6.364,19.999333 6.5,20 l 6.745939,0 z M 4,2.5 4,5.5 C 4,5.6353333 3.9506667,5.7526667 3.852,5.852 3.7533333,5.9513333 3.636,6.0006667 3.5,6 l -3,0 C 0.36466667,6 0.24733333,5.9506667 0.148,5.852 0.04866667,5.7533333 -6.6666667e-4,5.636 0,5.5 l 0,-3 C 0,2.3646667 0.04933333,2.2473333 0.148,2.148 0.24666667,2.0486667 0.364,1.9993333 0.5,2 l 3,0 C 3.6353333,2 3.7526667,2.0493333 3.852,2.148 3.9513333,2.2466667 4.0006667,2.364 4,2.5 Z M 15.282302,18 6.5,18 C 6.3646667,18 6.2473333,17.950667 6.148,17.852 6.0486667,17.753333 5.9993333,17.636 6,17.5 l 0,-3 C 6,14.364667 6.0493333,14.247333 6.148,14.148 6.2466667,14.048667 6.364,13.999333 6.5,14 l 12.812249,0 z M 28,8.5 l 0,3 c 0,0.135333 -0.04933,0.252667 -0.148,0.352 C 27.75333,11.95133 27.636,12.000667 27.5,12 l -21,0 C 6.3646667,12 6.2473333,11.950667 6.148,11.852 6.0486667,11.753333 5.9993333,11.636 6,11.5 l 0,-3 C 6,8.3646667 6.0493333,8.2473333 6.148,8.148 6.2466667,8.0486667 6.364,7.9993333 6.5,8 l 21,0 c 0.135333,0 0.252667,0.049333 0.352,0.148 C 27.95133,8.246667 28.000667,8.364 28,8.5 Z m 0,-6 0,3 C 28,5.6353333 27.950667,5.7526667 27.852,5.852 27.753333,5.9513333 27.636,6.0006667 27.5,6 L 6.5,6 C 6.3646667,6 6.2473333,5.9506667 6.148,5.852 6.0486667,5.7533333 5.9993333,5.636 6,5.5 l 0,-3 C 6,2.3646667 6.0493333,2.2473333 6.148,2.148 6.2466667,2.0486667 6.364,1.9993333 6.5,2 l 21,0 c 0.135333,0 0.252667,0.049333 0.352,0.148 C 27.95133,2.246667 28.000667,2.364 28,2.5 Z"
     id="path3430"
     inkscape:connector-curvature="0"
     sodipodi:nodetypes="csscsscsscssccsscsscsscssccsscsscsscssccsscssccccsscsscsscssccsscssccccsscsscsscssccsscsscsscssc" />
  <path
     id="path3490"
     d="m 16.858896,25.244488 0.839152,-0.839152 -2.166922,-2.166922 -0.839152,0.839152 0,0.986681 1.180241,0 0,1.180241 0.986681,0 z m 4.822462,-8.556743 q 0,-0.203001 -0.203001,-0.203001 -0.09206,0 -0.156971,0.06433 l -4.997729,4.997729 q -0.06433,0.06433 -0.06433,0.156971 0,0.203001 0.203002,0.203001 0.09205,0 0.156971,-0.06433 l 4.997728,-4.997729 q 0.06433,-0.06433 0.06433,-0.156971 z m -0.498061,-1.770361 3.835781,3.835781 -7.671562,7.671563 -3.835782,0 0,-3.835782 z m 6.297763,0.88518 q 0,0.48862 -0.341089,0.829709 l -1.530772,1.530771 -3.835781,-3.835781 1.530771,-1.52133 q 0.331648,-0.350531 0.829709,-0.350531 0.48862,0 0.839151,0.350531 l 2.166922,2.15748 q 0.341089,0.359383 0.341089,0.839151 z"
     inkscape:connector-curvature="0" />
</svg>
