<?xml version="1.0" encoding="UTF-8" standalone="no"?>
<!--
  - @copyright Limbas GmbH <https://limbas.com>
  - @license https://opensource.org/licenses/GPL-2.0 GPL-2.0
  -
  - This program is free software; you can redistribute it and/or modify it under the terms of the GNU General Public License as published by the Free Software Foundation; either version 2 of the License, or (at your option) any later version.
  - This program is distributed in the hope that it will be useful, but WITHOUT ANY WARRANTY; without even the implied warranty of MERCHANTABILITY or FITNESS FOR A PARTICULAR PURPOSE. See the GNU General Public License for more details.
  -->

<!-- Generated by IcoMoon.io -->

<svg
   xmlns:dc="http://purl.org/dc/elements/1.1/"
   xmlns:cc="http://creativecommons.org/ns#"
   xmlns:rdf="http://www.w3.org/1999/02/22-rdf-syntax-ns#"
   xmlns:svg="http://www.w3.org/2000/svg"
   xmlns="http://www.w3.org/2000/svg"
   xmlns:sodipodi="http://sodipodi.sourceforge.net/DTD/sodipodi-0.dtd"
   xmlns:inkscape="http://www.inkscape.org/namespaces/inkscape"
   version="1.1"
   width="26"
   height="28"
   viewBox="0 0 26 28"
   id="svg3736"
   inkscape:version="0.91 r13725"
   sodipodi:docname="mini_file_manager.svg">
  <metadata
     id="metadata3744">
    <rdf:RDF>
      <cc:Work
         rdf:about="">
        <dc:format>image/svg+xml</dc:format>
        <dc:type
           rdf:resource="http://purl.org/dc/dcmitype/StillImage" />
        <dc:title></dc:title>
      </cc:Work>
    </rdf:RDF>
  </metadata>
  <defs
     id="defs3742" />
  <sodipodi:namedview
     pagecolor="#ffffff"
     bordercolor="#666666"
     borderopacity="1"
     objecttolerance="10"
     gridtolerance="10"
     guidetolerance="10"
     inkscape:pageopacity="0"
     inkscape:pageshadow="2"
     inkscape:window-width="1920"
     inkscape:window-height="1135"
     id="namedview3740"
     showgrid="false"
     inkscape:zoom="5.9599"
     inkscape:cx="107.49164"
     inkscape:cy="6.8520672"
     inkscape:window-x="0"
     inkscape:window-y="0"
     inkscape:window-maximized="1"
     inkscape:current-layer="svg3736" />
  <path
     d="m 21.15293,8.8179316 0.568798,0.4199233 c 0.680639,0.5024918 0.897496,1.3139111 0.896916,2.1479011 l 0,9.569427 c 0,0.83341 -0.298972,1.549377 -0.896916,2.147901 C 21.123784,23.701608 20.407817,24.00058 19.573827,24 L 3.0448174,24 C 2.2114073,24 1.4954402,23.701028 0.89691612,23.103084 0.29839199,22.50514 -5.8009114e-4,21.789173 -1.2589752e-7,20.955183 l 0,-13.0492183 C -1.2589752e-7,7.0725547 0.29897196,6.3565876 0.89691612,5.7580635 1.4948603,5.1595394 2.2108274,4.8605673 3.0448174,4.8611472 l 4.3497393,0 c 0.83341,0 1.5493771,0.2989721 2.1479012,0.8969163 0.5985241,0.5979441 0.8974961,1.3139112 0.8969161,2.1479012 l 0,0.434974 3.410447,0 -1.789521,1.7398953 -2.0559,0 c -0.3624781,0 -0.6704396,-0.1270123 -0.9238844,-0.3810368 C 8.8270708,9.4457725 8.7000584,9.1378109 8.6994785,8.7759126 l 0,-0.8699479 c 0,-0.3624783 -0.1270124,-0.6704398 -0.3810372,-0.9238846 C 8.0644165,6.7286353 7.756455,6.6016229 7.3945567,6.601043 l -4.3497393,0 c -0.3624783,0 -0.6704398,0.1270124 -0.9238846,0.3810371 C 1.8674879,7.2361049 1.7404755,7.5440664 1.7398956,7.9059647 l 0,13.0492183 c 0,0.362478 0.1270124,0.670439 0.3810372,0.923884 0.2540247,0.253445 0.5619863,0.380457 0.9238846,0.381037 l 16.5290096,0 c 0.362478,0 0.670439,-0.127012 0.923884,-0.381037 0.253445,-0.254025 0.380458,-0.561986 0.381037,-0.923884 l 0,-9.569427 c 0,-0.362478 -0.128905,-0.668556 -0.381037,-0.923884 L 20.033573,9.9918509"
     id="path3738"
     inkscape:connector-curvature="0"
     sodipodi:nodetypes="cscsscsscsscssccccsscsscsscsscsscssc" />
  <path
     id="path3748"
     d="m 24.75733,2.0822547 0,6.5183211 c 0,0.2205366 -0.08066,0.411469 -0.241992,0.5727976 -0.161329,0.1613284 -0.352261,0.2419926 -0.572798,0.2419926 -0.220537,0 -0.411469,-0.080664 -0.572797,-0.2419926 L 21.12907,6.9327004 12.828803,15.232966 c -0.08474,0.08474 -0.182242,0.127108 -0.29251,0.127108 -0.110268,0 -0.207772,-0.04237 -0.29251,-0.127108 l -1.451141,-1.451141 c -0.08474,-0.08474 -0.127107,-0.182242 -0.127107,-0.29251 0,-0.110268 0.04237,-0.207771 0.127107,-0.292509 L 19.092909,4.8965399 16.852236,2.655867 C 16.690908,2.4945385 16.610244,2.3036061 16.610244,2.0830695 c 0,-0.2205365 0.08066,-0.411469 0.241992,-0.5727975 0.161329,-0.1613284 0.352261,-0.2419927 0.572798,-0.2419927 l 6.518321,0 c 0.220537,0 0.411469,0.080664 0.572797,0.2419927 0.161329,0.1613285 0.241993,0.352261 0.241993,0.5727975 z"
     inkscape:connector-curvature="0"
     sodipodi:nodetypes="csssscsssssscsssssscc" />
</svg>
