<?xml version="1.0" encoding="utf-8"?>
<!--
  - @copyright Limbas GmbH <https://limbas.com>
  - @license https://opensource.org/licenses/GPL-2.0 GPL-2.0
  -
  - This program is free software; you can redistribute it and/or modify it under the terms of the GNU General Public License as published by the Free Software Foundation; either version 2 of the License, or (at your option) any later version.
  - This program is distributed in the hope that it will be useful, but WITHOUT ANY WARRANTY; without even the implied warranty of MERCHANTABILITY or FITNESS FOR A PARTICULAR PURPOSE. See the GNU General Public License for more details.
  -->

<!-- Generated by IcoMoon.io -->
<!DOCTYPE svg PUBLIC "-//W3C//DTD SVG 1.1//EN" "http://www.w3.org/Graphics/SVG/1.1/DTD/svg11.dtd">
<svg version="1.1" xmlns="http://www.w3.org/2000/svg" xmlns:xlink="http://www.w3.org/1999/xlink" width="32" height="32" viewBox="0 0 32 32">
<path d="M28.075 17.109h-2.183v-2.183h2.183z"></path>
<path d="M31.998 17.109h-2.183v-2.183h2.183z"></path>
<path d="M19.636 15.455v1.091q0 0.239-0.154 0.392t-0.392 0.154h-14.182q-0.239 0-0.392-0.154t-0.154-0.392v-1.091q0-0.239 0.154-0.392t0.392-0.154h14.182q0.239 0 0.392 0.154t0.154 0.392zM21.818 23.091v-14.182q0-1.125-0.801-1.927t-1.927-0.801h-14.182q-1.125 0-1.927 0.801t-0.801 1.927v14.182q0 1.125 0.801 1.927t1.927 0.801h14.182q1.125 0 1.927-0.801t0.801-1.927zM24 8.909v14.182q0 2.028-1.44 3.469t-3.469 1.44h-14.182q-2.028 0-3.469-1.44t-1.44-3.469v-14.182q0-2.028 1.44-3.469t3.469-1.44h14.182q2.028 0 3.469 1.44t1.44 3.469z"></path>
</svg>
