<?xml version="1.0" encoding="UTF-8" standalone="no"?>
<!--
  - @copyright Limbas GmbH <https://limbas.com>
  - @license https://opensource.org/licenses/GPL-2.0 GPL-2.0
  -
  - This program is free software; you can redistribute it and/or modify it under the terms of the GNU General Public License as published by the Free Software Foundation; either version 2 of the License, or (at your option) any later version.
  - This program is distributed in the hope that it will be useful, but WITHOUT ANY WARRANTY; without even the implied warranty of MERCHANTABILITY or FITNESS FOR A PARTICULAR PURPOSE. See the GNU General Public License for more details.
  -->

<!-- Created with Inkscape (http://www.inkscape.org/) -->

<svg
   xmlns:dc="http://purl.org/dc/elements/1.1/"
   xmlns:cc="http://creativecommons.org/ns#"
   xmlns:rdf="http://www.w3.org/1999/02/22-rdf-syntax-ns#"
   xmlns:svg="http://www.w3.org/2000/svg"
   xmlns="http://www.w3.org/2000/svg"
   xmlns:sodipodi="http://sodipodi.sourceforge.net/DTD/sodipodi-0.dtd"
   xmlns:inkscape="http://www.inkscape.org/namespaces/inkscape"
   width="32"
   height="32"
   viewBox="0 0 31.999999 31.999998"
   id="svg2"
   version="1.1"
   inkscape:version="0.91 r13725"
   sodipodi:docname="page_new_alternate.svg">
  <defs
     id="defs4" />
  <sodipodi:namedview
     id="base"
     pagecolor="#ffffff"
     bordercolor="#666666"
     borderopacity="1.0"
     inkscape:pageopacity="0.0"
     inkscape:pageshadow="2"
     inkscape:zoom="25.6875"
     inkscape:cx="16"
     inkscape:cy="16"
     inkscape:document-units="px"
     inkscape:current-layer="layer1"
     showgrid="true"
     inkscape:window-width="1920"
     inkscape:window-height="1007"
     inkscape:window-x="0"
     inkscape:window-y="0"
     inkscape:window-maximized="1"
     units="px">
    <inkscape:grid
       type="xygrid"
       id="grid3344"
       empspacing="4" />
  </sodipodi:namedview>
  <metadata
     id="metadata7">
    <rdf:RDF>
      <cc:Work
         rdf:about="">
        <dc:format>image/svg+xml</dc:format>
        <dc:type
           rdf:resource="http://purl.org/dc/dcmitype/StillImage" />
        <dc:title></dc:title>
      </cc:Work>
    </rdf:RDF>
  </metadata>
  <g
     inkscape:label="Ebene 1"
     inkscape:groupmode="layer"
     id="layer1"
     transform="translate(0,-1020.3622)">
    <g
       id="g4136"
       transform="matrix(0.34432453,0,0,0.34432453,-3.5207641,693.52883)">
      <path
         inkscape:connector-curvature="0"
         d="m 80.86243,1004.3731 0,6.5924 q 0,1.3727 -0.961282,2.334 -0.961282,0.9613 -2.333993,0.9613 l -14.282727,0 0,14.2827 q 0,1.3727 -0.961282,2.334 -0.961282,0.9613 -2.333993,0.9613 l -6.592471,0 q -1.372711,0 -2.333993,-0.9613 -0.961282,-0.9613 -0.961282,-2.334 l 0,-14.2827 -14.282729,0 q -1.372711,0 -2.333993,-0.9613 -0.961282,-0.9613 -0.961282,-2.334 l 0,-6.5924 q 0,-1.3727 0.961282,-2.334 0.961282,-0.9613 2.333993,-0.9613 l 14.282729,0 0,-14.28274 q 0,-1.37271 0.961282,-2.33399 0.961282,-0.96128 2.333993,-0.96128 l 6.592471,0 q 1.372711,0 2.333993,0.96128 0.961282,0.96128 0.961282,2.33399 l 0,14.28274 14.282727,0 q 1.372711,0 2.333993,0.9613 0.961282,0.9613 0.961282,2.334 z"
         id="path5064" />
      <path
         inkscape:connector-curvature="0"
         d="m 93.038278,968.8799 q 1.453815,1.45382 2.491838,3.94554 1.038023,2.49184 1.038023,4.56788 l 0,59.81288 q 0,2.0761 -1.453814,3.5299 -1.453814,1.4538 -3.529861,1.4538 l -69.783094,0 q -2.076047,0 -3.529861,-1.4538 -1.453814,-1.4538 -1.453814,-3.5299 l 0,-83.07379 q 0,-2.07605 1.453814,-3.52986 1.453814,-1.45382 3.529861,-1.45382 l 46.522062,0 q 2.076047,0 4.567884,1.03803 2.491838,1.03802 3.945652,2.49184 z m -23.051683,-12.66854 0,19.52171 19.521819,0 q -0.520465,-1.50615 -1.142698,-2.12839 L 72.114979,957.35406 q -0.622232,-0.62223 -2.128384,-1.1427 z m 19.93761,79.33464 0,-53.169 -21.600773,0 q -2.076047,0 -3.529862,-1.45382 -1.453814,-1.45381 -1.453814,-3.52986 l 0,-21.60065 -39.875222,0 0,79.75333 66.459671,0 z"
         id="path5075" />
    </g>
  </g>
</svg>
