<?xml version="1.0" encoding="UTF-8" standalone="no"?>
<!--
  - @copyright Limbas GmbH <https://limbas.com>
  - @license https://opensource.org/licenses/GPL-2.0 GPL-2.0
  -
  - This program is free software; you can redistribute it and/or modify it under the terms of the GNU General Public License as published by the Free Software Foundation; either version 2 of the License, or (at your option) any later version.
  - This program is distributed in the hope that it will be useful, but WITHOUT ANY WARRANTY; without even the implied warranty of MERCHANTABILITY or FITNESS FOR A PARTICULAR PURPOSE. See the GNU General Public License for more details.
  -->

<!-- Created with Inkscape (http://www.inkscape.org/) -->

<svg
   xmlns:dc="http://purl.org/dc/elements/1.1/"
   xmlns:cc="http://creativecommons.org/ns#"
   xmlns:rdf="http://www.w3.org/1999/02/22-rdf-syntax-ns#"
   xmlns:svg="http://www.w3.org/2000/svg"
   xmlns="http://www.w3.org/2000/svg"
   xmlns:sodipodi="http://sodipodi.sourceforge.net/DTD/sodipodi-0.dtd"
   xmlns:inkscape="http://www.inkscape.org/namespaces/inkscape"
   width="32"
   height="32"
   viewBox="0 0 31.999999 31.999998"
   id="svg2"
   version="1.1"
   inkscape:version="0.91 r13725"
   sodipodi:docname="page_delete.svg">
  <defs
     id="defs4" />
  <sodipodi:namedview
     id="base"
     pagecolor="#ffffff"
     bordercolor="#666666"
     borderopacity="1.0"
     inkscape:pageopacity="0.0"
     inkscape:pageshadow="2"
     inkscape:zoom="25.6875"
     inkscape:cx="8.6812652"
     inkscape:cy="14.442822"
     inkscape:document-units="px"
     inkscape:current-layer="g4136"
     showgrid="true"
     inkscape:window-width="1920"
     inkscape:window-height="1007"
     inkscape:window-x="0"
     inkscape:window-y="0"
     inkscape:window-maximized="1"
     units="px">
    <inkscape:grid
       type="xygrid"
       id="grid3344"
       empspacing="4" />
  </sodipodi:namedview>
  <metadata
     id="metadata7">
    <rdf:RDF>
      <cc:Work
         rdf:about="">
        <dc:format>image/svg+xml</dc:format>
        <dc:type
           rdf:resource="http://purl.org/dc/dcmitype/StillImage" />
        <dc:title></dc:title>
      </cc:Work>
    </rdf:RDF>
  </metadata>
  <g
     inkscape:label="Ebene 1"
     inkscape:groupmode="layer"
     id="layer1"
     transform="translate(0,-1020.3622)">
    <g
       id="g4136"
       transform="matrix(0.30563062,0,0,0.30563062,-1.305476,731.82069)">
      <path
         sodipodi:nodetypes="csssssssssssscccsssccccccccssc"
         inkscape:connector-curvature="0"
         d="m 68.945166,1033.8974 -56.927989,0 c -1.336652,0 -2.4729932,-0.468 -3.4090237,-1.4041 -0.9360308,-0.9361 -1.4040462,-2.0724 -1.4040462,-3.409 l 0,-80.22995 c 0,-1.33665 0.4680154,-2.473 1.4040462,-3.40903 0.9360305,-0.93603 2.0723717,-1.40404 3.4090237,-1.40404 l 44.929482,0 c 1.336652,0 2.807156,0.33416 4.411513,1.00249 1.604357,0.66833 2.87455,1.4705 3.810581,2.40653 l 15.646693,15.6467 c 0.936031,0.93603 1.73821,2.20622 2.406536,3.81057 0.668326,1.60436 1.002489,3.07487 1.002489,4.41152 l 0,25.41083 -6.416494,-6.63586 0,-13.9619 -20.861318,0 c -1.336652,0 -2.472994,-0.46802 -3.409025,-1.40405 -0.936031,-0.93603 -1.404046,-2.07237 -1.404046,-3.40902 l 0,-20.86133 -38.510182,0 0,77.02314 49.292779,0.3052 z m -10.392278,-83.03527 0,18.85353 18.853531,0 c -0.335099,-0.96973 -0.702958,-1.6549 -1.103579,-2.05552 L 60.608411,951.96571 c -0.400621,-0.40061 -1.085796,-0.76847 -2.055523,-1.10358 z"
         id="path4962" />
      <path
         inkscape:connector-curvature="0"
         d="m 93.329834,1020.8733 0,-5.0842 c 0,-0.6879 -0.251317,-1.284 -0.753951,-1.7881 -0.502635,-0.5041 -1.098679,-0.7554 -1.788134,-0.7539 l -10.166116,0 -10.16834,0 -10.166116,0 c -0.687972,0 -1.284017,0.2513 -1.788134,0.7539 -0.504117,0.5027 -0.755434,1.0987 -0.753951,1.7881 l 0,5.0842 c 0,0.688 0.251317,1.284 0.753951,1.7881 0.502635,0.5041 1.098679,0.7555 1.788134,0.754 l 10.166116,0 10.16834,0 10.166116,0 c 0.687972,0 1.284017,-0.2513 1.788134,-0.754 0.504117,-0.5026 0.755434,-1.0986 0.753951,-1.7881 z m 12.710436,-2.5421 c 0,5.5335 -1.36334,10.6369 -4.09003,15.3104 -2.726682,4.6735 -6.426754,8.3735 -11.100217,11.1002 -4.673463,2.7267 -9.776909,4.09 -15.310336,4.09 -5.533427,0 -10.636873,-1.3633 -15.310336,-4.09 -4.673463,-2.7267 -8.373534,-6.4267 -11.100215,-11.1002 -2.726683,-4.6735 -4.090024,-9.7769 -4.090024,-15.3104 0,-5.5334 1.363341,-10.6368 4.090024,-15.3103 2.726681,-4.67345 6.426752,-8.37354 11.100215,-11.10028 4.673463,-2.72668 9.776909,-4.09002 15.310336,-4.09002 5.533427,0 10.636873,1.36334 15.310336,4.09002 4.673463,2.72674 8.373535,6.42683 11.100217,11.10028 2.72669,4.6735 4.09003,9.7769 4.09003,15.3103 z"
         id="path5053"
         sodipodi:nodetypes="csscccsccsccccsccsssssssssssss" />
    </g>
  </g>
</svg>
