<?xml version="1.0" encoding="UTF-8" standalone="no"?>
<!--
  - @copyright Limbas GmbH <https://limbas.com>
  - @license https://opensource.org/licenses/GPL-2.0 GPL-2.0
  -
  - This program is free software; you can redistribute it and/or modify it under the terms of the GNU General Public License as published by the Free Software Foundation; either version 2 of the License, or (at your option) any later version.
  - This program is distributed in the hope that it will be useful, but WITHOUT ANY WARRANTY; without even the implied warranty of MERCHANTABILITY or FITNESS FOR A PARTICULAR PURPOSE. See the GNU General Public License for more details.
  -->

<!-- Created with Inkscape (http://www.inkscape.org/) -->

<svg
   xmlns:dc="http://purl.org/dc/elements/1.1/"
   xmlns:cc="http://creativecommons.org/ns#"
   xmlns:rdf="http://www.w3.org/1999/02/22-rdf-syntax-ns#"
   xmlns:svg="http://www.w3.org/2000/svg"
   xmlns="http://www.w3.org/2000/svg"
   xmlns:sodipodi="http://sodipodi.sourceforge.net/DTD/sodipodi-0.dtd"
   xmlns:inkscape="http://www.inkscape.org/namespaces/inkscape"
   width="32"
   height="32"
   viewBox="0 0 31.999999 31.999998"
   id="svg2"
   version="1.1"
   inkscape:version="0.91 r13725"
   sodipodi:docname="page_cut.svg">
  <defs
     id="defs4" />
  <sodipodi:namedview
     id="base"
     pagecolor="#ffffff"
     bordercolor="#666666"
     borderopacity="1.0"
     inkscape:pageopacity="0.0"
     inkscape:pageshadow="2"
     inkscape:zoom="16"
     inkscape:cx="19.149584"
     inkscape:cy="14.092005"
     inkscape:document-units="px"
     inkscape:current-layer="layer1"
     showgrid="true"
     inkscape:window-width="1920"
     inkscape:window-height="1007"
     inkscape:window-x="0"
     inkscape:window-y="0"
     inkscape:window-maximized="1"
     units="px">
    <inkscape:grid
       type="xygrid"
       id="grid3344"
       empspacing="4" />
  </sodipodi:namedview>
  <metadata
     id="metadata7">
    <rdf:RDF>
      <cc:Work
         rdf:about="">
        <dc:format>image/svg+xml</dc:format>
        <dc:type
           rdf:resource="http://purl.org/dc/dcmitype/StillImage" />
        <dc:title></dc:title>
      </cc:Work>
    </rdf:RDF>
  </metadata>
  <g
     inkscape:label="Ebene 1"
     inkscape:groupmode="layer"
     id="layer1"
     transform="translate(0,-1020.3622)">
    <g
       id="g4136"
       transform="matrix(0.29401422,0,0,0.29401422,-0.9619748,743.81136)">
      <path
         inkscape:connector-curvature="0"
         d="m 63.652506,1008.2956 q -0.74091,-0.7408 -0.742502,-1.8251 -0.0017,-1.0842 0.742504,-1.8251 0.744086,-0.7409 1.825136,-0.7425 1.081025,0 1.82513,0.7425 0.744106,0.7441 0.742512,1.8251 -0.0017,1.081 -0.742513,1.8251 -0.740936,0.7441 -1.825128,0.7426 -1.084226,0 -1.825139,-0.7426 z m -6.728879,-10.37906 -3.108986,-25.80572 q -0.228402,-1.36839 0.88461,-2.30895 1.140123,-0.85589 2.452627,-0.45664 l 5.475442,1.82509 q 0.570074,0.17085 1.026757,0.62753 0.485425,0.48541 0.656228,1.11301 l 8.63876,30.70944 5.018662,1.2534 q 0.341713,0.1147 0.483862,0.1996 0.997963,-1.7963 2.479721,-3.0513 2.395233,-1.996 5.802748,-2.6092 3.407599,-0.6132 7.284576,0.2426 6.158816,1.3686 10.292896,5.5027 3.87862,3.8786 4.10535,8.5539 0.17089,4.9612 -3.64863,8.1549 -2.36646,1.9672 -5.78828,2.5946 -3.421986,0.6277 -7.270231,-0.1995 -6.158825,-1.3685 -10.321662,-5.5313 -2.366446,-2.3665 -3.420323,-5.1896 -0.627542,0.1135 -1.25508,0 l -5.561631,-1.3972 1.397194,5.5617 q 0.113377,0.6274 -10e-7,1.255 2.823128,1.0539 5.189574,3.4203 4.162836,4.1629 5.531287,10.3218 0.827138,3.8481 0.199604,7.2701 -0.627542,3.422 -2.594785,5.7884 -1.540905,1.8251 -3.66464,2.78 -2.123736,0.9548 -4.463031,0.8415 -4.67701,-0.1708 -8.582763,-4.0766 -4.134095,-4.1341 -5.502539,-10.293 -0.883027,-3.8498 -0.25709,-7.2701 0.625948,-3.4203 2.62353,-5.8172 1.255079,-1.4818 3.051471,-2.4798 -0.0846,-0.142 -0.199599,-0.4838 l -1.253477,-5.0186 -30.709505,-8.6387 q -0.627544,-0.1709 -1.112967,-0.6563 -0.456684,-0.4566 -0.627539,-1.0268 l -1.825132,-5.4754 q -0.399197,-1.31253 0.45668,-2.45263 0.940509,-1.11293 2.308966,-0.8846 z m 12.004687,26.83246 q -2.508567,-0.1134 -3.679011,2.4814 -1.170452,2.5947 -0.312971,6.3585 0.94051,4.3065 3.792381,7.1583 2.109361,2.1094 4.249061,2.1957 2.508559,0.1134 3.679012,-2.4815 1.170452,-2.5947 0.312972,-6.3585 -0.94051,-4.3065 -3.79238,-7.1583 -2.109361,-2.1093 -4.249064,-2.1956 z m 23.667617,-18.8197 q -3.763679,-0.8543 -6.358437,0.3129 -2.594758,1.1672 -2.481393,3.679 0.08466,2.1381 2.195627,4.249 2.851869,2.8519 7.158426,3.7924 3.763512,0.8544 6.358356,-0.3129 2.59476,-1.1673 2.48139,-3.679 -0.0846,-2.1381 -2.19562,-4.2491 -2.851875,-2.8517 -7.158349,-3.7923 z m -22.556249,12.4037 -1.082625,-4.3911 -0.312972,0.313 q -1.026736,1.0268 -2.537309,0.6562 l -0.627534,-0.1708 0.913366,3.5927 1.481821,0 q 0.172451,0 0.598799,-0.027 0.426341,-0.027 0.683421,0 0.114955,0 0.213976,0.013 0.09897,0.013 0.158086,0.014 z m -6e-6,-12.7742 -1.825133,-3.6487 -37.411236,-4.56201 1.825132,5.47541 34.18732,9.6095 3.222322,-3.2224 7.298936,1.8252 -0.02874,-0.4854 q -1.7e-5,-0.1147 -0.02875,-0.3706 6e-6,-0.2267 0.02875,-0.6547 0.02875,-0.4278 0.02875,-0.6545 l 1.7e-5,-1.482 z m -8.210775,-31.93578 -5.475359,-1.82517 3.193619,26.46205 8.981963,1.113 q 0.143735,-0.029 0.570074,0.1708 z"
         id="path3357" />
      <path
         sodipodi:nodetypes="ccscccccsssssssssssscccccccccssccc"
         inkscape:connector-curvature="0"
         d="m 55.80259,967.38494 c -1.802587,-0.0227 -2.603271,2.04814 -3.748656,3.1615 -0.917347,-0.91735 -1.06352,-1.85244 -1.06352,-3.16241 l 0,-20.44487 -37.741461,0 0,75.48564 45.223979,0 c -1.472929,1.9374 -2.026963,2.8726 -2.145772,6.2884 l -44.652373,0 c -1.309971,0 -2.4236294,-0.4587 -3.3409754,-1.376 -0.917346,-0.9173 -1.376019,-2.031 -1.376019,-3.341 l 0,-78.62845 c 0,-1.30997 0.458673,-2.42363 1.376019,-3.34098 0.917346,-0.91735 2.0310044,-1.37602 3.3409754,-1.37602 l 44.032622,0 c 1.30997,0 2.751121,0.32749 4.323452,0.98248 1.572332,0.65499 2.817171,1.44115 3.734517,2.3585 l 15.334363,15.33436 c 0.917346,0.91735 1.703512,2.16218 2.358497,3.73449 0.654985,1.57233 0.982478,3.01348 0.982478,4.32345 l 0,31.27341 c -2.440711,1.70476 -3.440711,2.70476 -4.091224,4.62186 l -2.197187,-0.6815 0,-30.49677 -10.285583,-0.0631 c -0.06782,-0.7004 0.02902,-1.36787 -0.841266,-2.22876 -1.025452,-1.44696 -7.025453,-2.44696 -9.222866,-2.42423 z m 9.233916,-1.57229 10.722256,0 c -0.32841,-0.95037 -0.688927,-1.62187 -1.081551,-2.01449 L 59.296067,948.41701 c -0.392624,-0.39263 -1.064121,-0.75314 -2.014492,-1.08155 l 0,18.47716 z"
         id="path3368" />
    </g>
  </g>
</svg>
