<?xml version="1.0" encoding="UTF-8" standalone="no"?>
<!--
  - @copyright Limbas GmbH <https://limbas.com>
  - @license https://opensource.org/licenses/GPL-2.0 GPL-2.0
  -
  - This program is free software; you can redistribute it and/or modify it under the terms of the GNU General Public License as published by the Free Software Foundation; either version 2 of the License, or (at your option) any later version.
  - This program is distributed in the hope that it will be useful, but WITHOUT ANY WARRANTY; without even the implied warranty of MERCHANTABILITY or FITNESS FOR A PARTICULAR PURPOSE. See the GNU General Public License for more details.
  -->

<!-- Created with Inkscape (http://www.inkscape.org/) -->

<svg
   xmlns:dc="http://purl.org/dc/elements/1.1/"
   xmlns:cc="http://creativecommons.org/ns#"
   xmlns:rdf="http://www.w3.org/1999/02/22-rdf-syntax-ns#"
   xmlns:svg="http://www.w3.org/2000/svg"
   xmlns="http://www.w3.org/2000/svg"
   xmlns:sodipodi="http://sodipodi.sourceforge.net/DTD/sodipodi-0.dtd"
   xmlns:inkscape="http://www.inkscape.org/namespaces/inkscape"
   width="32"
   height="32"
   viewBox="0 0 32.000006 32.000008"
   id="svg6063"
   version="1.1"
   inkscape:version="0.91 r13725"
   sodipodi:docname="report_magnify.svg">
  <defs
     id="defs6065" />
  <sodipodi:namedview
     id="base"
     pagecolor="#ffffff"
     bordercolor="#666666"
     borderopacity="1.0"
     inkscape:pageopacity="0.0"
     inkscape:pageshadow="2"
     inkscape:zoom="0.5"
     inkscape:cx="-6.1156877"
     inkscape:cy="16.196064"
     inkscape:document-units="px"
     inkscape:current-layer="layer1"
     showgrid="true"
     units="px"
     inkscape:window-width="1920"
     inkscape:window-height="1007"
     inkscape:window-x="0"
     inkscape:window-y="0"
     inkscape:window-maximized="1">
    <inkscape:grid
       type="xygrid"
       id="grid6071"
       empspacing="4" />
  </sodipodi:namedview>
  <metadata
     id="metadata6068">
    <rdf:RDF>
      <cc:Work
         rdf:about="">
        <dc:format>image/svg+xml</dc:format>
        <dc:type
           rdf:resource="http://purl.org/dc/dcmitype/StillImage" />
        <dc:title></dc:title>
      </cc:Work>
    </rdf:RDF>
  </metadata>
  <g
     inkscape:label="Ebene 1"
     inkscape:groupmode="layer"
     id="layer1"
     transform="translate(0,-1020.2988)">
    <path
       id="path4157"
       d="m 25.740817,1040.5642 q 0,-2.2616 -1.607238,-3.8689 -1.607237,-1.6072 -3.86887,-1.6072 -2.261632,0 -3.868871,1.6072 -1.607238,1.6073 -1.607238,3.8689 0,2.2616 1.607238,3.8689 1.607239,1.6072 3.868871,1.6072 2.261633,0 3.86887,-1.6072 1.607238,-1.6073 1.607238,-3.8689 z m 6.258507,10.1698 q 0,0.6359 -0.464784,1.1 -0.464785,0.4641 -1.100014,0.4648 -0.65987,0 -1.100013,-0.4648 l -4.192645,-4.1803 q -2.187705,1.5155 -4.877159,1.5155 -1.748247,0 -3.343165,-0.6783 -1.594916,-0.6784 -2.750375,-1.8339 -1.155458,-1.1554 -1.833812,-2.7503 -0.678352,-1.5949 -0.678352,-3.3432 0,-1.7482 0.678352,-3.3432 0.678354,-1.5949 1.833812,-2.7503 1.155459,-1.1555 2.750375,-1.8338 1.594918,-0.6784 3.343165,-0.6784 1.748248,0 3.343164,0.6784 1.594917,0.6783 2.750375,1.8338 1.155459,1.1554 1.833812,2.7503 0.678353,1.595 0.678353,3.3432 0,2.6895 -1.515513,4.8772 l 4.192646,4.1926 q 0.452463,0.4525 0.452463,1.1 z"
       inkscape:connector-curvature="0" />
    <path
       id="path4168"
       d="m 10.775647,1043.1156 -6.9050295,0 c -0.76255,0 -1.4979257,-0.2648 -2.206127,-0.7944 -0.70820134,-0.5296 -1.20094768,-1.1807 -1.47823901,-1.9532 -0.237916,-0.6633 -0.24789933,-1.2922 -0.02995,-1.8867 0,-0.039 0.0149733,-0.173 0.04492,-0.401 0.0299467,-0.2279 0.0496333,-0.4112 0.05906,-0.5499 0.00998,-0.079 -0.004993,-0.1857 -0.04492,-0.3194 -0.0399333,-0.1337 -0.0549067,-0.2302 -0.04492,-0.2895 0.0199667,-0.1087 0.0596193,-0.2126 0.118958,-0.3119 0.05934,-0.099 0.141141,-0.2157 0.245403,-0.3494 0.10426133,-0.1337 0.18606233,-0.2501 0.245403,-0.3494 0.22793331,-0.3766 0.45087531,-0.8297 0.66882601,-1.3593 0.2179507,-0.5296 0.3665787,-0.9827 0.445884,-1.3593 0.029947,-0.099 0.032447,-0.2479 0.0075,-0.4459 -0.024953,-0.1979 -0.027453,-0.3366 -0.0075,-0.4159 0.029947,-0.1087 0.114243,-0.2473 0.252889,-0.4159 0.1386453,-0.1686 0.2229417,-0.2826 0.252889,-0.3419 0.2079687,-0.3566 0.415937,-0.8122 0.623905,-1.3668 0.2079687,-0.5546 0.3316407,-1.0002 0.371016,-1.3368 0.00998,-0.089 -0.0025,-0.2476 -0.03743,-0.475 -0.03494,-0.2274 -0.03244,-0.366 0.0075,-0.4159 0.039373,-0.1287 0.1483487,-0.2798 0.326926,-0.4534 0.1785753,-0.1736 0.2875507,-0.2851 0.326926,-0.3344 0.1880033,-0.2573 0.3984673,-0.6758 0.631392,-1.2553 0.2329247,-0.5795 0.3690747,-1.0573 0.40845,-1.4333 0.00998,-0.079 -0.00499,-0.2055 -0.04492,-0.3785 -0.039933,-0.1731 -0.049917,-0.3042 -0.02995,-0.3935 0.019967,-0.079 0.06461,-0.1684 0.133931,-0.2671 0.069323,-0.099 0.158334,-0.2126 0.267032,-0.3419 0.108698,-0.1292 0.1929943,-0.2332 0.252889,-0.3119 0.079305,-0.1187 0.1611063,-0.2698 0.245403,-0.4534 0.084296,-0.1835 0.15861,-0.3568 0.222942,-0.5199 0.064333,-0.1631 0.1436383,-0.3414 0.237915,-0.5349 0.094279,-0.1935 0.1907767,-0.3519 0.289492,-0.475 0.098716,-0.1231 0.2298747,-0.2396 0.393476,-0.3494 0.163602,-0.1098 0.3419003,-0.1666 0.534895,-0.1705 0.1929947,-0.01 0.4281373,0.021 0.705428,0.082 l -0.01497,0.045 c 0.3765613,-0.089 0.6291737,-0.1339 0.757837,-0.1339 l 11.3043245,0 c 0.732603,0 1.297168,0.2773 1.693694,0.8319 0.396526,0.5545 0.485536,1.1981 0.267031,1.9308 l -2.390975,7.8019 c -1.224595,0.1281 -3.920631,0.4444 -6.056246,2.3024 -1.781962,1.5503 -3.182261,5.2044 -3.212877,6.125 l -8.2907165,0.022 c -0.2673078,7e-4 -0.4555893,0.074 -0.564842,0.223 -0.108698,0.1586 -0.113688,0.3715 -0.01497,0.6388 0.237916,0.6933 0.9508313,1.0399 2.138746,1.0399 l 6.7800295,0 c -0.07994,0.6286 -0.05221,1.2889 0.11167,1.901 z m 11.084211,-12.1559 1.543162,-5.2537 c 0.06932,-0.218 0.094,-0.5003 0.07404,-0.8469 0.376561,0.1487 0.668826,0.3616 0.876795,0.6389 l 0.0025,0 c 0.395972,0.5645 0.484983,1.2034 0.267032,1.9166 l -1.313461,4.1441 c -0.309892,-0.2585 -0.927262,-0.6003 -1.45004,-0.5976 z m -13.3091225,-5.4341 c -0.039373,0.1287 -0.02939,0.2401 0.02995,0.3344 0.05934,0.094 0.158333,0.1414 0.296979,0.1414 l 9.0316485,0 c 0.128663,0 0.254831,-0.047 0.378503,-0.1414 0.123671,-0.094 0.205472,-0.2057 0.245402,-0.3344 l 0.311952,-0.9508 c 0.03937,-0.1287 0.02939,-0.2402 -0.02995,-0.3345 -0.05934,-0.094 -0.158333,-0.1414 -0.296979,-0.1414 l -9.0316485,0 c -0.1286627,0 -0.25483,0.047 -0.378502,0.1414 -0.123672,0.094 -0.205473,0.2058 -0.245403,0.3345 z m -1.232835,3.8033 c -0.039373,0.1287 -0.02939,0.2401 0.02995,0.3344 0.05934,0.094 0.158333,0.1414 0.296979,0.1414 l 9.0316475,0 c 0.128663,0 0.25483,-0.047 0.378502,-0.1414 0.123672,-0.094 0.205473,-0.2057 0.245403,-0.3344 l 0.311952,-0.9508 c 0.03937,-0.1287 0.02939,-0.2401 -0.02995,-0.3344 -0.05934,-0.094 -0.158333,-0.1414 -0.296979,-0.1414 l -9.0316475,0 c -0.1286633,0 -0.254831,0.047 -0.378503,0.1414 -0.1236713,0.094 -0.205472,0.2057 -0.245402,0.3344 z"
       inkscape:connector-curvature="0"
       style="fill:#000000"
       sodipodi:nodetypes="cssccccccsscscccscscccscscccccccscsscccsscccscsccscccscccccccsssscccssccccscssccsssscccc" />
  </g>
</svg>
