<?xml version="1.0" encoding="UTF-8" standalone="no"?>
<!--
  - @copyright Limbas GmbH <https://limbas.com>
  - @license https://opensource.org/licenses/GPL-2.0 GPL-2.0
  -
  - This program is free software; you can redistribute it and/or modify it under the terms of the GNU General Public License as published by the Free Software Foundation; either version 2 of the License, or (at your option) any later version.
  - This program is distributed in the hope that it will be useful, but WITHOUT ANY WARRANTY; without even the implied warranty of MERCHANTABILITY or FITNESS FOR A PARTICULAR PURPOSE. See the GNU General Public License for more details.
  -->

<!-- Created with Inkscape (http://www.inkscape.org/) -->

<svg
   xmlns:dc="http://purl.org/dc/elements/1.1/"
   xmlns:cc="http://creativecommons.org/ns#"
   xmlns:rdf="http://www.w3.org/1999/02/22-rdf-syntax-ns#"
   xmlns:svg="http://www.w3.org/2000/svg"
   xmlns="http://www.w3.org/2000/svg"
   xmlns:sodipodi="http://sodipodi.sourceforge.net/DTD/sodipodi-0.dtd"
   xmlns:inkscape="http://www.inkscape.org/namespaces/inkscape"
   width="32"
   height="32"
   viewBox="0 0 32.000006 32.000008"
   id="svg6063"
   version="1.1"
   inkscape:version="0.91 r13725"
   sodipodi:docname="report_edit.svg">
  <defs
     id="defs6065" />
  <sodipodi:namedview
     id="base"
     pagecolor="#ffffff"
     bordercolor="#666666"
     borderopacity="1.0"
     inkscape:pageopacity="0.0"
     inkscape:pageshadow="2"
     inkscape:zoom="16"
     inkscape:cx="12.409895"
     inkscape:cy="17.148917"
     inkscape:document-units="px"
     inkscape:current-layer="layer1"
     showgrid="true"
     units="px"
     inkscape:window-width="1920"
     inkscape:window-height="1007"
     inkscape:window-x="0"
     inkscape:window-y="0"
     inkscape:window-maximized="1">
    <inkscape:grid
       type="xygrid"
       id="grid6071"
       empspacing="4" />
  </sodipodi:namedview>
  <metadata
     id="metadata6068">
    <rdf:RDF>
      <cc:Work
         rdf:about="">
        <dc:format>image/svg+xml</dc:format>
        <dc:type
           rdf:resource="http://purl.org/dc/dcmitype/StillImage" />
        <dc:title></dc:title>
      </cc:Work>
    </rdf:RDF>
  </metadata>
  <g
     inkscape:label="Ebene 1"
     inkscape:groupmode="layer"
     id="layer1"
     transform="translate(0,-1020.2988)">
    <path
       id="path4179"
       d="m 11.59625,1043.1347 -7.7223964,0 c -0.7631881,0 -1.4991789,-0.265 -2.2079725,-0.7951 -0.70879365,-0.5301 -1.20195194,-1.1817 -1.47947488,-1.9548 -0.23811469,-0.6638 -0.24810536,-1.2932 -0.029972,-1.8883 0,-0.04 0.0149862,-0.1737 0.0449586,-0.4012 0.0299724,-0.2282 0.0496766,-0.4117 0.0591127,-0.5505 0.009991,-0.079 -0.004995,-0.1858 -0.0449586,-0.3196 -0.0399635,-0.1338 -0.0549497,-0.2304 -0.0449586,-0.2898 0.0199813,-0.1088 0.0596671,-0.2129 0.11905742,-0.3122 0.0593898,-0.099 0.14125903,-0.2159 0.24560769,-0.3497 0.10434863,-0.1337 0.1862179,-0.2503 0.24560779,-0.3496 0.22812388,-0.3769 0.45125248,-0.8304 0.66938558,-1.3605 0.2181329,-0.5301 0.3668852,-0.9835 0.4462567,-1.3604 0.029973,-0.099 0.032473,-0.248 0.0075,-0.4462 -0.024977,-0.1982 -0.027477,-0.337 -0.0075,-0.4164 0.029973,-0.1087 0.1143397,-0.2475 0.253101,-0.4162 0.1387615,-0.1687 0.2231284,-0.2828 0.2531009,-0.3421 0.2081422,-0.3569 0.4162844,-0.8129 0.6244266,-1.368 0.2081422,-0.5551 0.3319175,-1.001 0.3713258,-1.3379 0.00999,-0.089 -0.0025,-0.2479 -0.037465,-0.4755 -0.034968,-0.2275 -0.032468,-0.3663 0.0075,-0.4162 0.039409,-0.1288 0.1484752,-0.28 0.3271996,-0.4537 0.1787248,-0.1738 0.2877913,-0.2854 0.3271996,-0.3348 0.1881605,-0.2575 0.3988004,-0.6762 0.6319197,-1.2563 0.2331193,-0.58 0.369383,-1.0582 0.4087913,-1.4346 0.00999,-0.079 -0.00499,-0.2055 -0.044959,-0.3787 -0.039963,-0.1732 -0.049954,-0.3045 -0.029972,-0.3939 0.019981,-0.079 0.064662,-0.1684 0.1340436,-0.2672 0.069381,-0.099 0.1584657,-0.2129 0.2672546,-0.3422 0.1087889,-0.1293 0.1931559,-0.2333 0.253101,-0.3122 0.079372,-0.1188 0.1612407,-0.27 0.2456075,-0.4537 0.084367,-0.1837 0.1587435,-0.3572 0.2231281,-0.5204 0.064385,-0.1631 0.1437566,-0.3416 0.2381157,-0.5354 0.094358,-0.1937 0.1909354,-0.3521 0.2897329,-0.4753 0.098798,-0.1232 0.2300668,-0.2398 0.3938054,-0.3498 0.1637386,-0.1099 0.3421859,-0.1667 0.5353419,-0.1705 0.1931561,-0.01 0.4284954,0.02 0.7060181,0.082 l -0.014984,0.045 c 0.3768767,-0.089 0.6297001,-0.134 0.75847,-0.134 l 11.3137792,0 c 0.733216,0 1.298253,0.2775 1.69511,0.8326 0.396858,0.5549 0.485943,1.199 0.267254,1.9323 l -4.073758,13.7202 -2.630186,2.5449 -13.2635541,0 c -0.2675321,0 -0.4559701,0.074 -0.5653142,0.2231 -0.108789,0.1587 -0.1137847,0.3719 -0.014987,0.6394 0.2381147,0.6938 0.9516262,1.0407 2.1405345,1.0407 l 9.7223988,0 z m 9.440044,-9.0247 2.386286,-8.3995 c 0.06258,-0.2203 0.09408,-0.5007 0.07409,-0.8476 0.376876,0.1488 0.669385,0.3619 0.877528,0.6394 l 0.0025,0 c 0.396303,0.5651 0.485387,1.2045 0.267254,1.9183 l -1.231873,4.3914 z m -12.4784084,-8.5791 c -0.039407,0.1287 -0.029418,0.2403 0.029969,0.3346 0.059393,0.094 0.1584687,0.1416 0.2972262,0.1416 l 9.0391992,0 c 0.128771,0 0.255045,-0.047 0.37882,-0.1416 0.123775,-0.094 0.205644,-0.2059 0.245608,-0.3346 l 0.312212,-0.9517 c 0.03941,-0.1288 0.02942,-0.2403 -0.02997,-0.3346 -0.05939,-0.094 -0.158469,-0.1416 -0.297228,-0.1416 l -9.0391998,0 c -0.1287699,0 -0.2550428,0.047 -0.3788187,0.1416 -0.1237752,0.094 -0.2056441,0.2058 -0.2456068,0.3346 z m -1.2338668,3.8065 c -0.039407,0.1287 -0.029418,0.2402 0.029969,0.3346 0.059393,0.094 0.1584687,0.1416 0.2972262,0.1416 l 9.0392,0 c 0.12877,0 0.255043,-0.047 0.378818,-0.1416 0.123775,-0.094 0.205645,-0.2059 0.245608,-0.3346 l 0.312214,-0.9517 c 0.03941,-0.1288 0.02942,-0.2404 -0.02997,-0.3347 -0.05939,-0.094 -0.158462,-0.1415 -0.297226,-0.1415 l -9.0391993,0 c -0.1287715,0 -0.2550444,0.047 -0.3788188,0.1415 -0.1237751,0.094 -0.2056444,0.2059 -0.2456079,0.3347 z"
       inkscape:connector-curvature="0"
       sodipodi:nodetypes="cssccccscsccccccscscccccccscscccccsccccssccccsccscccsccccccccssccccsscccccsssccsssscc" />
    <path
       id="path4201"
       d="m 15.149648,1050.4263 1.331025,-1.331 -3.43691,-3.4369 -1.331024,1.331 0,1.5653 1.872443,0 0,1.8724 1.565285,0 z m 7.649502,-13.574 q 0,-0.322 -0.321903,-0.322 -0.146618,0 -0.249005,0.1023 l -7.927992,7.9279 q -0.102391,0.1022 -0.102391,0.2491 0,0.3219 0.321903,0.3219 0.146617,0 0.249004,-0.1022 l 7.927992,-7.928 q 0.102392,-0.1023 0.102392,-0.249 z m -0.789606,-2.8079 6.085036,6.0851 -12.169252,12.1693 -6.0850336,0 0,-6.0851 z m 9.990465,1.404 q 0,0.7748 -0.541419,1.3162 l -2.42779,2.4278 -6.085034,-6.085 2.42779,-2.4131 q 0.526675,-0.5562 1.31628,-0.5562 0.774861,0 1.331024,0.5562 l 3.436911,3.4231 q 0.54142,0.57 0.54142,1.331 z"
       inkscape:connector-curvature="0" />
  </g>
</svg>
