<?xml version="1.0" encoding="UTF-8" standalone="no"?>
<!--
  - @copyright Limbas GmbH <https://limbas.com>
  - @license https://opensource.org/licenses/GPL-2.0 GPL-2.0
  -
  - This program is free software; you can redistribute it and/or modify it under the terms of the GNU General Public License as published by the Free Software Foundation; either version 2 of the License, or (at your option) any later version.
  - This program is distributed in the hope that it will be useful, but WITHOUT ANY WARRANTY; without even the implied warranty of MERCHANTABILITY or FITNESS FOR A PARTICULAR PURPOSE. See the GNU General Public License for more details.
  -->

<!-- Created with Inkscape (http://www.inkscape.org/) -->

<svg
   xmlns:dc="http://purl.org/dc/elements/1.1/"
   xmlns:cc="http://creativecommons.org/ns#"
   xmlns:rdf="http://www.w3.org/1999/02/22-rdf-syntax-ns#"
   xmlns:svg="http://www.w3.org/2000/svg"
   xmlns="http://www.w3.org/2000/svg"
   xmlns:sodipodi="http://sodipodi.sourceforge.net/DTD/sodipodi-0.dtd"
   xmlns:inkscape="http://www.inkscape.org/namespaces/inkscape"
   width="32"
   height="32"
   viewBox="0 0 32.000006 32.000008"
   id="svg6063"
   version="1.1"
   inkscape:version="0.91 r13725"
   sodipodi:docname="table_refresh.svg">
  <defs
     id="defs6065" />
  <sodipodi:namedview
     id="base"
     pagecolor="#ffffff"
     bordercolor="#666666"
     borderopacity="1.0"
     inkscape:pageopacity="0.0"
     inkscape:pageshadow="2"
     inkscape:zoom="16"
     inkscape:cx="17.745991"
     inkscape:cy="15.984662"
     inkscape:document-units="px"
     inkscape:current-layer="layer1"
     showgrid="true"
     units="px"
     inkscape:window-width="1920"
     inkscape:window-height="1007"
     inkscape:window-x="0"
     inkscape:window-y="0"
     inkscape:window-maximized="1">
    <inkscape:grid
       type="xygrid"
       id="grid6071"
       empspacing="4" />
  </sodipodi:namedview>
  <metadata
     id="metadata6068">
    <rdf:RDF>
      <cc:Work
         rdf:about="">
        <dc:format>image/svg+xml</dc:format>
        <dc:type
           rdf:resource="http://purl.org/dc/dcmitype/StillImage" />
        <dc:title></dc:title>
      </cc:Work>
    </rdf:RDF>
  </metadata>
  <g
     inkscape:label="Ebene 1"
     inkscape:groupmode="layer"
     id="layer1"
     transform="translate(0,-1020.2988)">
    <path
       id="path4244"
       d="m 9.1430017,1042.5838 0,-3.429 c 0,-0.1667 -0.053667,-0.3037 -0.161,-0.411 -0.1073334,-0.1073 -0.2443335,-0.161 -0.4110002,-0.161 l -5.7140017,0 c -0.1666667,0 -0.3036668,0.054 -0.4110001,0.161 -0.1073334,0.1073 -0.1610001,0.2443 -0.1610001,0.411 l 0,3.429 c 0,0.1667 0.053667,0.3037 0.1610001,0.411 0.1073333,0.1073 0.2443334,0.161 0.4110001,0.161 l 5.7140017,0 c 0.1666667,0 0.3036668,-0.054 0.4110002,-0.161 0.1073333,-0.1073 0.161,-0.2443 0.161,-0.411 z m 0,-6.857 0,-3.429 c 0,-0.1667 -0.053667,-0.3037 -0.161,-0.411 -0.1073334,-0.1073 -0.2443335,-0.161 -0.4110002,-0.161 l -5.7140017,0 c -0.1666667,0 -0.3036668,0.054 -0.4110001,0.161 -0.1073334,0.1073 -0.1610001,0.2443 -0.1610001,0.411 l 0,3.429 c 0,0.1667 0.053667,0.3037 0.1610001,0.411 0.1073333,0.1073 0.2443334,0.161 0.4110001,0.161 l 5.7140017,0 c 0.1666667,0 0.3036668,-0.054 0.4110002,-0.161 0.1073333,-0.1073 0.161,-0.2443 0.161,-0.411 z m 0,-6.857 0,-3.429 c 0,-0.1667 -0.053667,-0.3037 -0.161,-0.411 -0.1073334,-0.1073 -0.2443335,-0.161 -0.4110002,-0.161 l -5.7140017,0 c -0.1666667,0 -0.3036668,0.054 -0.4110001,0.161 -0.1073334,0.1073 -0.1610001,0.2443 -0.1610001,0.411 l 0,3.429 c 0,0.1667 0.053667,0.3037 0.1610001,0.411 0.1073333,0.1073 0.2443334,0.161 0.4110001,0.161 l 5.7140017,0 c 0.1666667,0 0.3036668,-0.054 0.4110002,-0.161 0.1073333,-0.1073 0.161,-0.2443 0.161,-0.411 z m 9.1430023,0 0,-3.429 c 0,-0.1667 -0.05367,-0.3037 -0.161,-0.411 -0.107333,-0.1073 -0.244333,-0.161 -0.411,-0.161 l -5.714001,0 c -0.166667,0 -0.303667,0.054 -0.411,0.161 -0.107334,0.1073 -0.161001,0.2443 -0.161001,0.411 l 0,3.429 c 0,0.1667 0.05367,0.3037 0.161001,0.411 0.107333,0.1073 0.244333,0.161 0.411,0.161 l 5.714001,0 c 0.166667,0 0.303667,-0.054 0.411,-0.161 0.107333,-0.1073 0.161,-0.2443 0.161,-0.411 z m 9.143003,0 0,-3.429 c 0,-0.1667 -0.05367,-0.3037 -0.161,-0.411 -0.107333,-0.1073 -0.244333,-0.161 -0.411,-0.161 l -5.714002,0 c -0.166667,0 -0.303667,0.054 -0.411,0.161 -0.107333,0.1073 -0.161,0.2443 -0.161,0.411 l 0,3.429 c 0,0.1667 0.05367,0.3037 0.161,0.411 0.107333,0.1073 0.244333,0.161 0.411,0.161 l 5.714002,0 c 0.166667,0 0.303667,-0.054 0.411,-0.161 0.107333,-0.1073 0.161,-0.2443 0.161,-0.411 z m -16.172548,16.572 -8.3994592,0 c -0.7860003,0 -1.4586671,-0.2797 -2.01800055,-0.839 -0.55933347,-0.5593 -0.8390002036746,-1.232 -0.8390002036746,-2.018 l 0,-19.429 c 0,-0.786 0.2796667336746,-1.4587 0.8390002036746,-2.018 0.55933345,-0.5593 1.23200025,-0.839 2.01800055,-0.839 l 24.0000072,0 c 0.786,0 1.458667,0.2797 2.018001,0.839 0.559333,0.5593 0.839,1.232 0.839,2.018 l 0,8.5654 -2.857001,0 -5.714002,0 -3.429001,0 -5.714001,0 c -0.166667,0 -0.303667,0.054 -0.411,0.161 -0.107334,0.1073 -0.161001,0.2443 -0.161001,0.411 z"
       inkscape:connector-curvature="0"
       sodipodi:nodetypes="ssssssssssssssssssssssssssssssssssssssssssssssssssssssssssssssssscsssssssssccccsscc" />
    <path
       id="path4255"
       d="m 31.673192,1044.361 q 0,0.065 -0.01317,0.091 -0.835684,3.4991 -3.499199,5.6729 -2.663514,2.1736 -6.240944,2.1736 -1.906061,0 -3.688562,-0.718 -1.782499,-0.7179 -3.178962,-2.05 l -1.68453,1.6845 q -0.247854,0.2479 -0.58783,0.2479 -0.339976,0 -0.58783,-0.2479 -0.247854,-0.2478 -0.247854,-0.5879 l 0,-5.8491 q 0,-0.3392 0.247854,-0.5878 0.247854,-0.2486 0.58783,-0.2478 l 5.849059,0 q 0.339245,0 0.58783,0.2478 0.248586,0.2478 0.247854,0.5878 -7.31e-4,0.3401 -0.247854,0.5879 l -1.788349,1.7884 q 0.927075,0.8619 2.102005,1.3314 1.174929,0.4694 2.44125,0.4702 1.749599,0 3.263772,-0.849 1.514176,-0.8488 2.42809,-2.3367 0.143303,-0.2222 0.691652,-1.5273 0.104548,-0.3005 0.391888,-0.3005 l 2.507052,0 q 0.169622,0 0.293914,0.124 0.124293,0.124 0.124293,0.2939 z m 0.326817,-10.4449 0,5.849 q 0,0.3392 -0.247854,0.5878 -0.247854,0.2486 -0.58783,0.2478 l -5.849059,0 q -0.339245,0 -0.587828,-0.2478 -0.248586,-0.2478 -0.247854,-0.5878 7.3e-4,-0.3401 0.247854,-0.5879 l 1.80151,-1.8014 q -1.932384,-1.7884 -4.556416,-1.7884 -1.7496,0 -3.263774,0.8489 -1.514175,0.8488 -2.42809,2.3367 -0.143301,0.2222 -0.691651,1.5272 -0.104548,0.3005 -0.391887,0.3005 l -2.598445,0 q -0.169623,0 -0.293914,-0.124 -0.124293,-0.1239 -0.124293,-0.2939 l 0,-0.091 q 0.848842,-3.4991 3.524788,-5.6729 2.675945,-2.1736 6.266535,-2.1736 1.906062,0 3.707571,0.7246 1.80151,0.7245 3.198702,2.0434 l 1.696959,-1.6845 q 0.247853,-0.2479 0.587829,-0.2479 0.339977,0 0.58783,0.2479 0.247854,0.2478 0.247854,0.5879 z"
       inkscape:connector-curvature="0"
       style="fill:#000000" />
  </g>
</svg>
