<?xml version="1.0" encoding="UTF-8" standalone="no"?>
<!--
  - @copyright Limbas GmbH <https://limbas.com>
  - @license https://opensource.org/licenses/GPL-2.0 GPL-2.0
  -
  - This program is free software; you can redistribute it and/or modify it under the terms of the GNU General Public License as published by the Free Software Foundation; either version 2 of the License, or (at your option) any later version.
  - This program is distributed in the hope that it will be useful, but WITHOUT ANY WARRANTY; without even the implied warranty of MERCHANTABILITY or FITNESS FOR A PARTICULAR PURPOSE. See the GNU General Public License for more details.
  -->

<!-- Created with Inkscape (http://www.inkscape.org/) -->

<svg
   xmlns:dc="http://purl.org/dc/elements/1.1/"
   xmlns:cc="http://creativecommons.org/ns#"
   xmlns:rdf="http://www.w3.org/1999/02/22-rdf-syntax-ns#"
   xmlns:svg="http://www.w3.org/2000/svg"
   xmlns="http://www.w3.org/2000/svg"
   xmlns:sodipodi="http://sodipodi.sourceforge.net/DTD/sodipodi-0.dtd"
   xmlns:inkscape="http://www.inkscape.org/namespaces/inkscape"
   width="32"
   height="32"
   viewBox="0 0 32.000005 32.000008"
   id="svg6063"
   version="1.1"
   inkscape:version="0.91 r13725"
   sodipodi:docname="table_multiple.svg">
  <defs
     id="defs6065" />
  <sodipodi:namedview
     id="base"
     pagecolor="#ffffff"
     bordercolor="#666666"
     borderopacity="1.0"
     inkscape:pageopacity="0.0"
     inkscape:pageshadow="2"
     inkscape:zoom="25.6875"
     inkscape:cx="16"
     inkscape:cy="16"
     inkscape:document-units="px"
     inkscape:current-layer="layer1"
     showgrid="true"
     units="px"
     inkscape:window-width="1920"
     inkscape:window-height="1007"
     inkscape:window-x="0"
     inkscape:window-y="0"
     inkscape:window-maximized="1">
    <inkscape:grid
       type="xygrid"
       id="grid6071"
       empspacing="4" />
  </sodipodi:namedview>
  <metadata
     id="metadata6068">
    <rdf:RDF>
      <cc:Work
         rdf:about="">
        <dc:format>image/svg+xml</dc:format>
        <dc:type
           rdf:resource="http://purl.org/dc/dcmitype/StillImage" />
        <dc:title></dc:title>
      </cc:Work>
    </rdf:RDF>
  </metadata>
  <g
     inkscape:label="Ebene 1"
     inkscape:groupmode="layer"
     id="layer1"
     transform="translate(0,-1020.2988)">
    <g
       id="g4137"
       transform="matrix(0.29026167,0,0,0.29026167,-2.5767412,749.43398)">
      <path
         inkscape:connector-curvature="0"
         d="m 59.407879,1028.5046 0,-9.957 q 0,-0.726 -0.467506,-1.1935 -0.467507,-0.4675 -1.193448,-0.4675 l -16.59213,0 q -0.725942,0 -1.193451,0.4675 -0.467507,0.4675 -0.467507,1.1935 l 0,9.957 q 0,0.7259 0.467507,1.1934 0.467509,0.4675 1.193451,0.4675 l 16.59213,0 q 0.725941,0 1.193448,-0.4675 0.467506,-0.4675 0.467506,-1.1934 z m 0,-19.9112 0,-9.95701 q 0,-0.72594 -0.467506,-1.19345 -0.467507,-0.4675 -1.193448,-0.4675 l -16.59213,0 q -0.725942,0 -1.193451,0.4675 -0.467507,0.46751 -0.467507,1.19345 l 0,9.95701 q 0,0.726 0.467507,1.1935 0.467509,0.4675 1.193451,0.4675 l 16.59213,0 q 0.725941,0 1.193448,-0.4675 0.467506,-0.4675 0.467506,-1.1935 z m 26.549148,19.9112 0,-9.957 q 0,-0.726 -0.467506,-1.1935 -0.467507,-0.4675 -1.193449,-0.4675 l -16.592129,0 q -0.725942,0 -1.193449,0.4675 -0.467506,0.4675 -0.467506,1.1935 l 0,9.957 q 0,0.7259 0.467506,1.1934 0.467507,0.4675 1.193449,0.4675 l 16.592129,0 q 0.725942,0 1.193449,-0.4675 0.467506,-0.4675 0.467506,-1.1934 z m -26.549148,-39.82232 0,-9.95702 q 0,-0.72594 -0.467506,-1.19345 -0.467507,-0.4675 -1.193448,-0.4675 l -16.59213,0 q -0.725942,0 -1.193451,0.4675 -0.467507,0.46751 -0.467507,1.19345 l 0,9.95702 q 0,0.72594 0.467507,1.19345 0.467509,0.4675 1.193451,0.4675 l 16.59213,0 q 0.725941,0 1.193448,-0.4675 0.467506,-0.46751 0.467506,-1.19345 z m 26.549148,19.91112 0,-9.95701 q 0,-0.72594 -0.467506,-1.19345 -0.467507,-0.4675 -1.193449,-0.4675 l -16.592129,0 q -0.725942,0 -1.193449,0.4675 -0.467506,0.46751 -0.467506,1.19345 l 0,9.95701 q 0,0.726 0.467506,1.1935 0.467507,0.4675 1.193449,0.4675 l 16.592129,0 q 0.725942,0 1.193449,-0.4675 0.467506,-0.4675 0.467506,-1.1935 z m 26.549153,19.9112 0,-9.957 q 0,-0.726 -0.46751,-1.1935 -0.4675,-0.4675 -1.19345,-0.4675 l -16.592127,0 q -0.725941,0 -1.193448,0.4675 -0.467507,0.4675 -0.467507,1.1935 l 0,9.957 q 0,0.7259 0.467507,1.1934 0.467507,0.4675 1.193448,0.4675 l 16.592127,0 q 0.72595,0 1.19345,-0.4675 0.46751,-0.4675 0.46751,-1.1934 z m -26.549153,-39.82232 0,-9.95702 q 0,-0.72594 -0.467506,-1.19345 -0.467507,-0.4675 -1.193449,-0.4675 l -16.592129,0 q -0.725942,0 -1.193449,0.4675 -0.467506,0.46751 -0.467506,1.19345 l 0,9.95702 q 0,0.72594 0.467506,1.19345 0.467507,0.4675 1.193449,0.4675 l 16.592129,0 q 0.725942,0 1.193449,-0.4675 0.467506,-0.46751 0.467506,-1.19345 z m 26.549153,19.91112 0,-9.95701 q 0,-0.72594 -0.46751,-1.19345 -0.4675,-0.4675 -1.19345,-0.4675 l -16.592127,0 q -0.725941,0 -1.193448,0.4675 -0.467507,0.46751 -0.467507,1.19345 l 0,9.95701 q 0,0.726 0.467507,1.1935 0.467507,0.4675 1.193448,0.4675 l 16.592127,0 q 0.72595,0 1.19345,-0.4675 0.46751,-0.4675 0.46751,-1.1935 z m 0,-19.91112 0,-9.95702 q 0,-0.72594 -0.46751,-1.19345 -0.4675,-0.4675 -1.19345,-0.4675 l -16.592127,0 q -0.725941,0 -1.193448,0.4675 -0.467507,0.46751 -0.467507,1.19345 l 0,9.95702 q 0,0.72594 0.467507,1.19345 0.467507,0.4675 1.193448,0.4675 l 16.592127,0 q 0.72595,0 1.19345,-0.4675 0.46751,-0.46751 0.46751,-1.19345 z m 6.63511,-16.59213 0,56.41735 q 0,3.4235 -2.43626,5.8598 -2.43627,2.4362 -5.85981,2.4362 l -69.690425,0 q -3.423545,0 -5.859805,-2.4362 -2.436261,-2.4363 -2.436261,-5.8598 l 0,-56.41735 q 0,-3.42354 2.436261,-5.8598 2.43626,-2.43626 5.859805,-2.43626 l 69.690425,0 q 3.42354,0 5.85981,2.43626 2.43626,2.43626 2.43626,5.8598 z"
         id="path3398" />
      <path
         style="fill:#000000"
         sodipodi:nodetypes="csssssscccsssssscccscsssssssccccccssssssccccc"
         id="path3407"
         d="m 37.223759,1004.8866 -8.068966,0 c -0.483961,0 -0.881778,0.1558 -1.193451,0.4675 -0.311671,0.3117 -0.467507,0.7095 -0.467507,1.1935 l 0,9.957 c 0,0.4839 0.155836,0.8817 0.467507,1.1934 0.311673,0.3117 0.70949,0.4675 1.193451,0.4675 l 8.068966,0 z m 0,-19.91115 -8.068966,0 c -0.483961,0 -0.881778,0.15583 -1.193451,0.4675 -0.311671,0.31167 -0.467507,0.70949 -0.467507,1.19345 l 0,9.95701 c 0,0.484 0.155836,0.88183 0.467507,1.1935 0.311673,0.31167 0.70949,0.4675 1.193451,0.4675 l 8.068966,0 z m 0.0021,39.76205 -8.071109,0.063 c -2.282295,0.018 -4.235632,-0.8121 -5.859805,-2.4362 -1.624174,-1.6242 -2.436261,-3.5775 -2.436261,-5.8598 l 0,-56.41734 c 0,-2.28236 0.812087,-4.23563 2.436261,-5.8598 1.624173,-1.62417 3.577442,-2.43626 5.859805,-2.43626 l 69.690425,0 c 2.282365,0 4.235635,0.81209 5.859815,2.43626 1.62417,1.62417 2.43626,3.57744 2.43626,5.8598 l 0,4.84889 -8.296075,0.12527 -16.592127,0 -9.957021,0 -16.592129,0 -9.957018,0.003 -16.59213,0 c -0.483961,0 -0.881778,0.15583 -1.193451,0.4675 -0.311671,0.31167 -0.467507,0.70949 -0.467507,1.19345 l 0,9.95702 c 0,0.48396 0.155836,0.88178 0.467507,1.19345 0.311673,0.31167 0.70949,0.4675 1.193451,0.4675 l 8.068966,0 m 18.480182,-0.003 16.592129,0 9.957021,0 16.592127,0"
         inkscape:connector-curvature="0" />
      <path
         inkscape:connector-curvature="0"
         d="m 25.223759,992.8866 -8.068966,0 c -0.483961,0 -0.881778,0.1558 -1.193451,0.4675 -0.311671,0.3117 -0.467507,0.7095 -0.467507,1.1935 l 0,9.957 c 0,0.4839 0.155836,0.8817 0.467507,1.1934 0.311673,0.3117 0.70949,0.4675 1.193451,0.4675 l 8.068966,0 z m 0,-19.91115 -8.068966,0 c -0.483961,0 -0.881778,0.15583 -1.193451,0.4675 -0.311671,0.31167 -0.467507,0.70949 -0.467507,1.19345 l 0,9.95701 c 0,0.484 0.155836,0.88183 0.467507,1.1935 0.311673,0.31167 0.70949,0.4675 1.193451,0.4675 l 8.068966,0 z m 0.0021,39.76205 -8.071109,0.063 c -2.282295,0.018 -4.235632,-0.8121 -5.859805,-2.4362 -1.6241744,-1.6242 -2.4362614,-3.5775 -2.4362614,-5.8598 l 0,-56.41734 c 0,-2.28236 0.812087,-4.23563 2.4362614,-5.8598 1.624173,-1.62417 3.577442,-2.43626 5.859805,-2.43626 l 69.690425,0 c 2.282365,0 4.235635,0.81209 5.859815,2.43626 1.62417,1.62417 2.43626,3.57744 2.43626,5.8598 l 0,4.84889 -8.296075,0.12527 -16.592127,0 -9.957021,0 -16.592129,0 -9.957018,0.003 -16.59213,0 c -0.483961,0 -0.881778,0.15583 -1.193451,0.4675 -0.311671,0.31167 -0.467507,0.70949 -0.467507,1.19345 l 0,9.95702 c 0,0.48396 0.155836,0.88178 0.467507,1.19345 0.311673,0.31167 0.70949,0.4675 1.193451,0.4675 l 8.068966,0 m 18.480182,-0.003 16.592129,0 9.957021,0 16.592127,0"
         id="path3409"
         sodipodi:nodetypes="csssssscccsssssscccscsssssssccccccssssssccccc"
         style="fill:#000000" />
    </g>
  </g>
</svg>
