<?xml version="1.0" encoding="UTF-8" standalone="no"?>
<!--
  - @copyright Limbas GmbH <https://limbas.com>
  - @license https://opensource.org/licenses/GPL-2.0 GPL-2.0
  -
  - This program is free software; you can redistribute it and/or modify it under the terms of the GNU General Public License as published by the Free Software Foundation; either version 2 of the License, or (at your option) any later version.
  - This program is distributed in the hope that it will be useful, but WITHOUT ANY WARRANTY; without even the implied warranty of MERCHANTABILITY or FITNESS FOR A PARTICULAR PURPOSE. See the GNU General Public License for more details.
  -->

<!-- Created with Inkscape (http://www.inkscape.org/) -->

<svg
   xmlns:dc="http://purl.org/dc/elements/1.1/"
   xmlns:cc="http://creativecommons.org/ns#"
   xmlns:rdf="http://www.w3.org/1999/02/22-rdf-syntax-ns#"
   xmlns:svg="http://www.w3.org/2000/svg"
   xmlns="http://www.w3.org/2000/svg"
   xmlns:sodipodi="http://sodipodi.sourceforge.net/DTD/sodipodi-0.dtd"
   xmlns:inkscape="http://www.inkscape.org/namespaces/inkscape"
   width="32"
   height="32"
   viewBox="0 0 32.000005 32.000008"
   id="svg6063"
   version="1.1"
   inkscape:version="0.91 r13725"
   sodipodi:docname="table_relationship_add.svg">
  <defs
     id="defs6065" />
  <sodipodi:namedview
     id="base"
     pagecolor="#ffffff"
     bordercolor="#666666"
     borderopacity="1.0"
     inkscape:pageopacity="0.0"
     inkscape:pageshadow="2"
     inkscape:zoom="16"
     inkscape:cx="-3.6157304"
     inkscape:cy="12.767105"
     inkscape:document-units="px"
     inkscape:current-layer="g4165"
     showgrid="true"
     units="px"
     inkscape:window-width="1920"
     inkscape:window-height="1007"
     inkscape:window-x="0"
     inkscape:window-y="0"
     inkscape:window-maximized="1">
    <inkscape:grid
       type="xygrid"
       id="grid6071"
       empspacing="4" />
  </sodipodi:namedview>
  <metadata
     id="metadata6068">
    <rdf:RDF>
      <cc:Work
         rdf:about="">
        <dc:format>image/svg+xml</dc:format>
        <dc:type
           rdf:resource="http://purl.org/dc/dcmitype/StillImage" />
        <dc:title />
      </cc:Work>
    </rdf:RDF>
  </metadata>
  <g
     inkscape:label="Ebene 1"
     inkscape:groupmode="layer"
     id="layer1"
     transform="translate(0,-1020.2988)">
    <g
       id="g4165"
       transform="matrix(0.28869065,0,0,0.28869065,-2.3438818,751.6831)">
      <path
         id="path4"
         d="m 118.97909,1008.7046 -12.46217,0 c -0.6851,0 -1.24825,0.2144 -1.68946,0.6432 -0.44121,0.4287 -0.66181,0.976 -0.66181,1.6418 l 0,13.6979 c 0,0.6659 0.2206,1.2132 0.66181,1.642 0.44121,0.4287 1.00436,0.643 1.68946,0.643 l 12.46217,0 z m 0,-27.39185 -12.46217,0 c -0.6851,0 -1.24825,0.21438 -1.68946,0.64315 -0.44121,0.42877 -0.66181,0.97605 -0.66181,1.64184 l 0,13.69796 c 0,0.66573 0.2206,1.213 0.66181,1.6418 0.44121,0.4288 1.00436,0.6432 1.68946,0.6432 l 12.46217,0 z m 0,-27.39188 -12.46217,0 c -0.6851,0 -1.24825,0.21438 -1.68946,0.64315 -0.44121,0.42877 -0.66181,0.97605 -0.66181,1.64184 l 0,13.69794 c 0,0.66579 0.2206,1.21306 0.66181,1.64183 0.44121,0.42877 1.00436,0.64316 1.68946,0.64316 l 12.46217,0 z m -0.01,82.18363 -12.45258,0 c -3.23095,0 -5.99602,-1.1172 -8.29523,-3.3516 -2.299202,-2.2343 -3.448803,-4.9214 -3.448803,-8.0613 l 0,-77.6137 c 0,-3.13985 1.149601,-5.82698 3.448803,-8.06137 2.29921,-2.23439 5.06428,-3.35158 8.29523,-3.35158 l 12.45258,0 z"
         inkscape:connector-curvature="0"
         sodipodi:nodetypes="cscsscscccsssssscccsssssscccsssssscc" />
      <path
         id="path4-2"
         d="m 92.508567,961.34809 c -1.378691,-0.36943 -2.680118,-0.20075 -3.90428,0.50602 l -13.639631,7.87484 c -1.224163,0.70677 -2.020951,1.74951 -2.390366,3.12821 -0.388069,1.44815 -0.169467,2.83747 0.655806,4.16794 0.132213,-0.0764 0.536753,-0.32134 1.21362,-0.73493 0.676871,-0.41362 1.14695,-0.68502 1.410237,-0.8142 0.263287,-0.12919 0.659802,-0.30042 1.189543,-0.51371 0.533659,-0.20651 1.03297,-0.31278 1.497935,-0.31881 0.465197,-0.006 0.95557,0.0602 1.471121,0.19874 1.378617,0.3693 2.421321,1.16605 3.128112,2.39025 0.70675,1.22413 0.875418,2.52554 0.506005,3.90423 -0.138653,0.51751 -0.326466,0.97531 -0.563441,1.3734 -0.237048,0.39797 -0.578773,0.77719 -1.025176,1.13766 -0.445909,0.36132 -0.792462,0.61909 -1.039659,0.77332 -0.242292,0.16271 -0.712371,0.4341 -1.410237,0.81419 -0.697865,0.38009 -1.11229,0.60794 -1.243275,0.68356 0.764959,1.4239 1.871528,2.32985 3.319707,2.71786 1.378729,0.36949 2.680175,0.20085 3.904338,-0.50592 l 13.559979,-7.78805 c 1.180095,-0.68133 1.959525,-1.72869 2.338285,-3.14208 0.36949,-1.37857 0.23558,-2.67066 -0.40172,-3.87628 l -5.513713,-9.62636 c -0.706787,-1.22419 -1.732126,-2.0163 -3.076017,-2.37635 z M 32.32485,1012.8766 c 0.706754,1.2241 1.821951,2.0162 3.165838,2.3762 1.378691,0.3694 2.680119,0.2007 3.904282,-0.506 l 13.639631,-7.8748 c 1.180094,-0.6813 1.95952,-1.7287 2.338277,-3.1422 0.388071,-1.4481 0.185876,-2.833 -0.606586,-4.15472 -0.132214,0.0764 -0.536754,0.32133 -1.213619,0.73492 -0.676871,0.4136 -1.14695,0.685 -1.410236,0.8142 -0.263287,0.1292 -0.659818,0.3004 -1.189595,0.5136 -0.533621,0.2066 -1.032935,0.3129 -1.497941,0.3188 -0.465154,0.01 -0.955528,-0.06 -1.471121,-0.1987 -1.378613,-0.3693 -2.421296,-1.166 -3.12805,-2.39015 -0.70675,-1.22413 -0.875437,-2.52558 -0.50606,-3.90433 0.138689,-0.51745 0.3265,-0.97525 0.563433,-1.37342 0.237085,-0.39789 0.578829,-0.77708 1.025232,-1.13755 0.445907,-0.36133 0.792463,-0.6191 1.039666,-0.77331 0.242293,-0.16272 0.712371,-0.43412 1.410236,-0.8142 0.697865,-0.38009 1.11229,-0.60794 1.243275,-0.68356 -0.764999,-1.42397 -1.871568,-2.32993 -3.319705,-2.71786 l -0.0096,-0.0251 c -1.378617,-0.36931 -2.680009,-0.20057 -3.904174,0.5062 l -10.143667,5.82654 -0.01403,-11.7465 1.454919,-0.89323 3.605714,-2.09572 c 3.628419,-2.09487 7.511621,-2.58793 11.649604,-1.47917 4.240321,1.13617 7.437024,3.61835 9.590111,7.44656 l 5.76948,-3.33101 c -2.238787,-3.77872 -2.794744,-7.77089 -1.667872,-11.97651 1.108782,-4.13797 3.499418,-7.26712 7.171907,-9.38743 l 13.639631,-7.87484 c 3.67249,-2.12032 7.577727,-2.6261 11.71571,-1.51734 l -2.88e-4,-5.3e-4 c 4.138057,1.10888 7.245198,3.51226 9.321418,7.21015 l 5.5137,9.62637 c 2.09481,3.62831 2.58787,7.51155 1.47919,11.6497 -1.11816,4.17263 -3.52617,7.29712 -7.22404,9.37349 l -13.560224,7.78763 c -3.628421,2.09486 -7.511632,2.5879 -11.649631,1.47913 -4.24032,-1.13618 -7.437023,-3.61837 -9.590108,-7.44657 l -5.769483,3.33101 c 2.238787,3.77875 2.794747,7.77095 1.667881,11.97655 -1.108767,4.138 -3.499396,7.2672 -7.171886,9.3875 l -13.639629,7.8748 c -3.672491,2.1203 -8.083591,2.5101 -12.22159,1.4013 z"
         inkscape:connector-curvature="0"
         sodipodi:nodetypes="csscccccccsccccsccccccccccccsccssccccccccsccccccccsccssscccccccsccssscc" />
      <path
         sodipodi:nodetypes="cccscscccssscsccccsssssscccsssssscc"
         inkscape:connector-curvature="0"
         d="m 8.1190051,1008.7046 9.9879429,0 4.825496,8.3159 0,7.667 c 0,0.6659 -0.2206,1.2132 -0.66181,1.642 -0.44121,0.4287 -1.00436,0.643 -1.68946,0.643 l -12.4621689,0 z m 0,-27.39184 12.4621689,0 c 0.6851,0 1.24825,0.21438 1.68946,0.64315 0.44121,0.42877 0.66181,0.97605 0.66181,1.64184 l 0,4.26497 c -1.665887,1.49779 -3.2324,3.13879 -4.527788,4.9665 -1.377694,1.94384 -2.294385,4.36947 -2.346676,6.75145 l -7.9389749,0 z m 0,-27.39188 12.4621689,0 c 0.6851,0 1.24825,0.21438 1.68946,0.64315 0.44121,0.42877 0.66181,0.97605 0.66181,1.64184 l 0,13.69794 c 0,0.66579 -0.2206,1.21306 -0.66181,1.64183 -0.44121,0.42877 -1.00436,0.64316 -1.68946,0.64316 l -12.4621689,0 z m 0.01,82.18362 12.4525789,0 c 3.23095,0 5.99602,-1.1172 8.29523,-3.3516 2.299202,-2.2343 3.448005,-4.9214 3.448036,-8.0613 l 7.67e-4,-77.61369 c 3.1e-5,-3.13985 -1.149601,-5.82698 -3.448803,-8.06137 -2.29921,-2.23439 -5.06428,-3.35158 -8.29523,-3.35158 l -12.4525789,0 z"
         id="path4138" />
    </g>
  </g>
</svg>
