<?xml version="1.0" encoding="UTF-8" standalone="no"?>
<!--
  - @copyright Limbas GmbH <https://limbas.com>
  - @license https://opensource.org/licenses/GPL-2.0 GPL-2.0
  -
  - This program is free software; you can redistribute it and/or modify it under the terms of the GNU General Public License as published by the Free Software Foundation; either version 2 of the License, or (at your option) any later version.
  - This program is distributed in the hope that it will be useful, but WITHOUT ANY WARRANTY; without even the implied warranty of MERCHANTABILITY or FITNESS FOR A PARTICULAR PURPOSE. See the GNU General Public License for more details.
  -->

<svg
   xmlns:dc="http://purl.org/dc/elements/1.1/"
   xmlns:cc="http://creativecommons.org/ns#"
   xmlns:rdf="http://www.w3.org/1999/02/22-rdf-syntax-ns#"
   xmlns:svg="http://www.w3.org/2000/svg"
   xmlns="http://www.w3.org/2000/svg"
   xmlns:sodipodi="http://sodipodi.sourceforge.net/DTD/sodipodi-0.dtd"
   xmlns:inkscape="http://www.inkscape.org/namespaces/inkscape"
   version="1.1"
   id="svg6063"
   viewBox="0 0 32.000005 32.000008"
   height="32"
   width="32"
   inkscape:version="0.91 r13725"
   sodipodi:docname="table_relationship_del.svg">
  <sodipodi:namedview
     pagecolor="#ffffff"
     bordercolor="#666666"
     borderopacity="1"
     objecttolerance="10"
     gridtolerance="10"
     guidetolerance="10"
     inkscape:pageopacity="0"
     inkscape:pageshadow="2"
     inkscape:window-width="1920"
     inkscape:window-height="1007"
     id="namedview10"
     showgrid="true"
     inkscape:zoom="25.6875"
     inkscape:cx="16"
     inkscape:cy="16"
     inkscape:window-x="0"
     inkscape:window-y="0"
     inkscape:window-maximized="1"
     inkscape:current-layer="layer1">
    <inkscape:grid
       type="xygrid"
       id="grid4136"
       empspacing="4" />
  </sodipodi:namedview>
  <defs
     id="defs6065" />
  <metadata
     id="metadata6068">
    <rdf:RDF>
      <cc:Work
         rdf:about="">
        <dc:format>image/svg+xml</dc:format>
        <dc:type
           rdf:resource="http://purl.org/dc/dcmitype/StillImage" />
        <dc:title></dc:title>
      </cc:Work>
    </rdf:RDF>
  </metadata>
  <g
     transform="translate(0,-1020.2988)"
     id="layer1">
    <g
       id="g4138"
       transform="matrix(0.25018519,0,0,0.25018519,-0.01185216,789.04108)">
      <path
         sodipodi:nodetypes="ccccccccccccccccccccccscccscscccscccsccccccccsccccccccccsccccccsccccccccccccscsssscccsscccsssccccccccccsccc"
         style="fill:#000000"
         inkscape:connector-curvature="0"
         d="m 80.37063,1013.3483 9.193058,15.9227 c 0.207014,0.4069 0.253594,0.8228 0.139741,1.2477 -0.105058,0.3919 -0.353344,0.7287 -0.744859,1.0106 -0.40694,0.207 -0.822884,0.2535 -1.247833,0.1396 -0.424868,-0.1138 -0.761741,-0.3621 -1.01062,-0.7449 l -9.192881,-15.9226 c -0.207123,-0.407 -0.253735,-0.8229 -0.139838,-1.2477 0.113861,-0.4249 0.362158,-0.7618 0.744893,-1.0106 0.406483,-0.2077 0.822363,-0.2543 1.24764,-0.1399 0.424873,0.1138 0.761773,0.3622 1.010699,0.7451 z m 4.235401,-7.7519 15.698009,4.2062 c 0.45796,0.1228 0.79489,0.3711 1.01078,0.7449 0.21582,0.3739 0.26238,0.7898 0.13967,1.2477 -0.12262,0.4579 -0.37086,0.7948 -0.74473,1.0107 -0.37401,0.2157 -0.789952,0.2623 -1.247836,0.1397 l -15.698073,-4.2063 c -0.457909,-0.1228 -0.794788,-0.3711 -1.010638,-0.745 -0.215843,-0.3739 -0.262413,-0.7897 -0.139709,-1.2475 0.122706,-0.4579 0.371001,-0.7948 0.744886,-1.0106 0.373892,-0.2159 0.789772,-0.2625 1.247641,-0.1398 z m -13.933795,8.0446 c 0.457875,0.1227 0.794734,0.3709 1.010577,0.7448 0.21585,0.3739 0.262443,0.7898 0.139778,1.2477 l -4.206317,15.6981 c -0.122623,0.458 -0.370881,0.7949 -0.744773,1.0108 -0.373885,0.2159 -0.789805,0.2624 -1.247762,0.1396 -0.457868,-0.1227 -0.794724,-0.3709 -1.010568,-0.7448 -0.215849,-0.3739 -0.262442,-0.7897 -0.139777,-1.2476 l 4.206316,-15.6982 c 0.122706,-0.4578 0.371004,-0.7946 0.744894,-1.0105 0.373886,-0.2159 0.789763,-0.2626 1.247632,-0.1399 z m 22.893898,-60.32995 c 3.924993,1.0517 6.872166,3.33135 8.841526,6.83894 l 5.22977,9.13081 c 1.98696,3.44151 2.45458,7.12476 1.40286,11.04975 -1.06053,3.95798 -3.34457,6.92163 -6.85214,8.89095 l -20.824192,11.9823 c -0.870821,0.5029 -1.970616,0.9443 -3.299385,1.3244 l 2.260024,-11.96167 17.031265,-9.79111 c 1.119357,-0.64626 1.866939,-1.63749 2.242744,-2.97369 0.377309,-1.33583 0.242024,-2.56364 -0.405857,-3.68341 l -5.229879,-9.13081 c -0.670393,-1.16114 -1.642964,-1.91249 -2.917712,-2.25406 -1.307713,-0.35041 -2.542146,-0.19041 -3.7033,0.47998 l -17.093953,9.82743 -11.489207,-4.02373 c 0.993551,-0.96067 1.925754,-1.69241 2.796611,-2.19522 l 20.900689,-12.06702 c 3.549366,-1.99354 7.253595,-2.47328 11.112688,-1.43922 z m -43.628016,20.7531 -2.259971,11.96179 -17.031251,9.79122 c -1.161148,0.67039 -1.916924,1.65945 -2.267327,2.96717 -0.341571,1.27477 -0.19806,2.50477 0.430533,3.69007 l 5.229869,9.1307 c 0.670385,1.1613 1.642948,1.9127 2.917688,2.2542 1.307697,0.3503 2.542119,0.1902 3.703267,-0.4802 l 17.044513,-9.8405 11.538584,4.0368 c -0.993532,0.9607 -1.925728,1.6924 -2.796589,2.1952 l -20.900692,12.067 c -3.549036,1.9941 -7.253264,2.4739 -11.112684,1.4392 -3.924941,-1.0516 -6.872073,-3.3312 -8.841398,-6.8387 l -1.319659,-2.2827 0,-26.0039 c 0.400212,-0.27724 1.100521,-0.53895 1.538969,-0.78512 l 20.824717,-11.98139 c 0.870861,-0.50279 1.970664,-0.94424 3.299411,-1.32434 z m 12.441545,-29.94864 c 0.457881,0.12269 0.794755,0.37097 1.01062,0.74485 0.215874,0.37391 0.262462,0.78979 0.139765,1.24766 l -4.206296,15.69814 c -0.122695,0.45789 -0.370987,0.79476 -0.744878,1.01062 -0.373891,0.21587 -0.789777,0.26246 -1.247658,0.13977 -0.457884,-0.12269 -0.794759,-0.37098 -1.010626,-0.74487 -0.215866,-0.37389 -0.262454,-0.78977 -0.139765,-1.24766 l 4.206304,-15.69812 c 0.122689,-0.45789 0.370979,-0.79477 0.74487,-1.01064 0.373892,-0.21587 0.78978,-0.26245 1.247664,-0.13975 z m -33.840397,19.53676 15.698119,4.2063 c 0.457886,0.12269 0.794761,0.37097 1.010626,0.74486 0.215867,0.37389 0.262457,0.78979 0.139772,1.24768 -0.122693,0.45787 -0.370986,0.79475 -0.744877,1.01062 -0.373891,0.21586 -0.789777,0.26245 -1.247656,0.13976 l -15.69843,-4.20682 c -0.457889,-0.1227 -0.794766,-0.371 -1.010632,-0.74489 -0.21586,-0.37389 -0.262446,-0.78977 -0.139758,-1.24766 0.122691,-0.45789 0.370978,-0.79476 0.744863,-1.01062 0.373891,-0.21587 0.78978,-0.26246 1.247665,-0.13977 z m 12.759755,-17.98208 9.19305,15.92284 c 0.198695,0.43799 0.245286,0.85388 0.139771,1.24767 -0.105517,0.39377 -0.353806,0.73065 -0.744869,1.01063 -0.406847,0.20705 -0.822735,0.25364 -1.247664,0.13976 -0.424917,-0.11387 -0.761795,-0.36216 -1.010632,-0.74488 l -9.193053,-15.92284 c -0.20703,-0.40687 -0.253618,-0.82276 -0.139765,-1.24767 0.113857,-0.42492 0.362147,-0.76179 0.74487,-1.01062 0.406852,-0.20705 0.82274,-0.25364 1.247664,-0.13977 0.424917,0.11385 0.761793,0.36215 1.010628,0.74488 z"
         id="path4-1" />
      <path
         sodipodi:nodetypes="cscsscscccsssssscccsssssscccsssssscc"
         inkscape:connector-curvature="0"
         d="m 128.00002,1011.181 -12.49614,0 c -0.687,0 -1.25166,0.215 -1.69406,0.645 -0.44244,0.4299 -0.66362,0.9786 -0.66362,1.6463 l 0,13.7352 c 0,0.6677 0.22125,1.2165 0.66362,1.6465 0.4424,0.4299 1.00706,0.6448 1.69406,0.6448 l 12.49614,0 z m 0,-27.46677 -12.49614,0 c -0.687,0 -1.25166,0.215 -1.69406,0.6449 -0.44244,0.42997 -0.66362,0.97872 -0.66362,1.64634 l 0,13.73529 c 0,0.66764 0.22125,1.21634 0.66362,1.64634 0.4424,0.4299 1.00706,0.645 1.69406,0.645 l 12.49614,0 z m 0,-27.46657 -12.49614,0 c -0.687,0 -1.25166,0.215 -1.69406,0.6449 -0.44244,0.42997 -0.66362,0.97872 -0.66362,1.64634 l 0,13.7353 c 0,0.66758 0.22125,1.21634 0.66362,1.6463 0.4424,0.42994 1.00706,0.6449 1.69406,0.6449 l 12.49614,0 z m -0.0104,82.40794 -12.48652,0 c -3.23977,0 -6.01238,-1.1202 -8.31786,-3.3607 -2.30549,-2.2404 -3.45819,-4.9348 -3.45819,-8.0833 l 0,-77.82556 c 0,-3.14839 1.1527,-5.84285 3.45819,-8.08334 2.30548,-2.24049 5.07809,-3.36072 8.31786,-3.36072 l 12.48652,0 z"
         id="path4-5" />
      <path
         id="path4145"
         d="m -3.8146979e-6,1011.181 12.4961418146979,0 c 0.687001,0 1.251661,0.215 1.694061,0.645 0.44244,0.4299 0.66362,0.9786 0.66362,1.6463 l 0,13.7352 c 0,0.6677 -0.22125,1.2165 -0.66362,1.6465 -0.4424,0.4299 -1.00706,0.6448 -1.694061,0.6448 l -12.4961418146979,0 z m 0,-27.46675 12.4961418146979,0 c 0.687001,0 1.251661,0.215 1.694061,0.6449 0.44244,0.42997 0.66362,0.97872 0.66362,1.64634 l 0,13.73529 c 0,0.66762 -0.22125,1.21632 -0.66362,1.64632 -0.4424,0.4299 -1.00706,0.6449 -1.694061,0.6449 l -12.4961418146979,0 z m 0,-27.46657 12.4961418146979,0 c 0.687001,0 1.251661,0.215 1.694061,0.6449 0.44244,0.42997 0.66362,0.97872 0.66362,1.64634 l 0,13.7353 c 0,0.66758 -0.22125,1.21634 -0.66362,1.6463 -0.4424,0.42994 -1.00706,0.6449 -1.694061,0.6449 l -12.4961418146979,0 z M 0.01039619,1038.6556 l 12.48652181,0 c 3.239771,0 6.012381,-1.1202 8.317862,-3.3607 2.30548,-2.2404 3.458179,-4.9348 3.458181,-8.0833 l 4e-5,-77.82554 c 1e-6,-3.14839 -1.152741,-5.84285 -3.458221,-8.08334 -2.305481,-2.24049 -5.078091,-3.36072 -8.317862,-3.36072 l -12.48652181,0 z"
         inkscape:connector-curvature="0"
         sodipodi:nodetypes="cscsscscccsssssscccsssssscccsssssscc" />
    </g>
  </g>
</svg>
