<?xml version="1.0" encoding="UTF-8" standalone="no"?>
<!--
  - @copyright Limbas GmbH <https://limbas.com>
  - @license https://opensource.org/licenses/GPL-2.0 GPL-2.0
  -
  - This program is free software; you can redistribute it and/or modify it under the terms of the GNU General Public License as published by the Free Software Foundation; either version 2 of the License, or (at your option) any later version.
  - This program is distributed in the hope that it will be useful, but WITHOUT ANY WARRANTY; without even the implied warranty of MERCHANTABILITY or FITNESS FOR A PARTICULAR PURPOSE. See the GNU General Public License for more details.
  -->

<!-- Created with Inkscape (http://www.inkscape.org/) -->

<svg
   xmlns:dc="http://purl.org/dc/elements/1.1/"
   xmlns:cc="http://creativecommons.org/ns#"
   xmlns:rdf="http://www.w3.org/1999/02/22-rdf-syntax-ns#"
   xmlns:svg="http://www.w3.org/2000/svg"
   xmlns="http://www.w3.org/2000/svg"
   xmlns:sodipodi="http://sodipodi.sourceforge.net/DTD/sodipodi-0.dtd"
   xmlns:inkscape="http://www.inkscape.org/namespaces/inkscape"
   width="32"
   height="32"
   viewBox="0 0 32.000005 32.000008"
   id="svg6063"
   version="1.1"
   inkscape:version="0.91 r13725"
   sodipodi:docname="text_list_numbers_add.svg">
  <defs
     id="defs6065" />
  <sodipodi:namedview
     id="base"
     pagecolor="#ffffff"
     bordercolor="#666666"
     borderopacity="1.0"
     inkscape:pageopacity="0.0"
     inkscape:pageshadow="2"
     inkscape:zoom="11.313708"
     inkscape:cx="16.789475"
     inkscape:cy="6.5956742"
     inkscape:document-units="px"
     inkscape:current-layer="layer1"
     showgrid="true"
     units="px"
     inkscape:window-width="1920"
     inkscape:window-height="1007"
     inkscape:window-x="0"
     inkscape:window-y="0"
     inkscape:window-maximized="1">
    <inkscape:grid
       type="xygrid"
       id="grid6071"
       empspacing="4" />
  </sodipodi:namedview>
  <metadata
     id="metadata6068">
    <rdf:RDF>
      <cc:Work
         rdf:about="">
        <dc:format>image/svg+xml</dc:format>
        <dc:type
           rdf:resource="http://purl.org/dc/dcmitype/StillImage" />
        <dc:title></dc:title>
      </cc:Work>
    </rdf:RDF>
  </metadata>
  <g
     inkscape:label="Ebene 1"
     inkscape:groupmode="layer"
     id="layer1"
     transform="translate(0,-1020.2988)">
    <path
       id="path4229"
       d="m 6.67,1049.1478 c 0,0.9527 -0.3243334,1.7027 -0.9730002,2.25 -0.6486668,0.5473 -1.4553336,0.821 -2.4200004,0.821 -1.2620003,0 -2.28566715,-0.393 -3.07100064,-1.179 l 1.01800024,-1.571 c 0.5833334,0.536 1.2143335,0.804 1.8930003,0.804 0.3453334,0 0.6460001,-0.086 0.9020002,-0.259 0.2560001,-0.1727 0.3840001,-0.4257 0.3840001,-0.759 0,-0.762 -0.6250001,-1.0953 -1.8750004,-1 l -0.4640001,-1 c 0.095333,-0.1193 0.2886668,-0.3783 0.5800001,-0.777 0.2913334,-0.3987 0.5443335,-0.72 0.7590002,-0.964 0.2146667,-0.244 0.435,-0.4733 0.6610001,-0.688 l 0,-0.018 c -0.1906667,0 -0.4793335,0.01 -0.8660002,0.018 -0.3866667,0.012 -0.6753334,0.018 -0.8660001,0.018 l 0,0.946 -1.89300034,0 0,-2.714 5.94600104,0 0,1.571 -1.6960003,2.054 c 0.6073335,0.1427 1.0893336,0.4343 1.4460003,0.875 0.3566667,0.4407 0.5353334,0.9643 0.5360001,1.571 z m 0.035,-11.197 0,2.839 -6.46400124,0 c -0.0713333,-0.4287 -0.107,-0.75 -0.107,-0.964 0,-0.6073 0.14000003,-1.161 0.4200001,-1.661 0.28,-0.5 0.61633334,-0.9047 1.00900014,-1.214 0.3926668,-0.3093 0.7856669,-0.592 1.1790003,-0.848 0.3933334,-0.256 0.7296668,-0.515 1.0090001,-0.777 0.2793334,-0.262 0.4193334,-0.53 0.4200001,-0.804 0,-0.2973 -0.086333,-0.5267 -0.259,-0.688 -0.1726667,-0.1613 -0.4076668,-0.2417 -0.7050002,-0.241 -0.5473334,0 -1.0293335,0.3453 -1.4460002,1.036 l -1.51800034,-1.054 c 0.28600007,-0.6073 0.71166681,-1.0807 1.27700024,-1.42 0.5653335,-0.3393 1.1933336,-0.509 1.8840004,-0.509 0.8693335,0 1.6013336,0.247 2.1960004,0.741 0.5946667,0.494 0.8923334,1.1637 0.8930001,2.009 0,0.5953 -0.2023334,1.14 -0.6070001,1.634 -0.4046667,0.494 -0.8510001,0.878 -1.3390002,1.152 -0.4880001,0.274 -0.9373335,0.5747 -1.3480003,0.902 -0.4106667,0.3273 -0.6220001,0.64 -0.6340001,0.938 l 2.2680004,0 0,-1.071 1.8750004,0 z m 6.506626,9.698 -3.6316255,0 c -0.1546667,0 -0.2886668,-0.057 -0.4020001,-0.17 -0.1133333,-0.1133 -0.17,-0.2473 -0.17,-0.402 l 0,-3.429 c 0,-0.1667 0.053667,-0.3037 0.161,-0.411 0.1073333,-0.1073 0.2443334,-0.161 0.4110001,-0.161 l 3.6316255,0 c -0.285443,1.3548 -0.316536,3.1089 0,4.573 z m 15.950754,-4.573 2.131625,0 c 0.154667,0 0.288667,0.057 0.402,0.17 0.113333,0.1133 0.17,0.2473 0.17,0.402 l 0,3.429 c 0,0.1547 -0.05667,0.2887 -0.17,0.402 -0.113333,0.1133 -0.247333,0.17 -0.402,0.17 l -2.131625,0 c 0.306374,-1.35 0.306374,-3.35 0,-4.573 z m -22.43938,-15.482 0,1.768 -5.98200114,0 0,-1.768 1.91100034,0 c 0,-0.488 0.003,-1.2143 0.009,-2.179 0.006,-0.9647 0.009,-1.685 0.009,-2.161 l 0,-0.214 -0.036,0 c -0.095333,0.2027 -0.393,0.524 -0.8930001,0.964 l -1.26800024,-1.357 2.42900044,-2.268 1.8930003,0 0,7.214 1.9290004,0 z m 25.143005,6.911 0,3.429 c 0,0.1547 -0.05667,0.2887 -0.17,0.402 -0.113333,0.1133 -0.247333,0.17 -0.402,0.17 l -6.319126,0 c -1.152554,-1.0387 -2.573346,-1.3566 -3.975376,-1.375 -1.421827,-0.01 -2.805516,0.3669 -4.037876,1.375 l -7.3816265,0 c -0.1546667,0 -0.2886668,-0.057 -0.4020001,-0.17 -0.1133333,-0.1133 -0.17,-0.2473 -0.17,-0.402 l 0,-3.429 c 0,-0.1667 0.053667,-0.3037 0.161,-0.411 0.1073333,-0.1073 0.2443334,-0.161 0.4110001,-0.161 l 21.7140045,0 c 0.154667,0 0.288667,0.057 0.402,0.17 0.113333,0.1133 0.17,0.2473 0.17,0.402 z m 0,-9.143 0,3.429 c 0,0.1547 -0.05667,0.2887 -0.17,0.402 -0.113333,0.1133 -0.247333,0.17 -0.402,0.17 l -21.7140045,0 c -0.1546667,0 -0.2886668,-0.057 -0.4020001,-0.17 -0.1133333,-0.1133 -0.17,-0.2473 -0.17,-0.402 l 0,-3.429 c 0,-0.1547 0.056667,-0.2887 0.17,-0.402 0.1133333,-0.1133 0.2473334,-0.17 0.4020001,-0.17 l 21.7140045,0 c 0.154667,0 0.288667,0.057 0.402,0.17 0.113333,0.1133 0.17,0.2473 0.17,0.402 z"
       inkscape:connector-curvature="0"
       sodipodi:nodetypes="cssccsssccssccscccccccscccccssssscscccssscsssccccccsssssscccsssssscccccccsscccccccccsssscccssssssssssssssssssssss" />
    <path
       id="path4240"
       d="m 25.121212,1045.9665 0,-1.1516 q 0,-0.2337 -0.170763,-0.4049 -0.170764,-0.1713 -0.404996,-0.1708 l -2.302531,0 0,-2.3025 q 0,-0.2338 -0.170763,-0.405 -0.170763,-0.1713 -0.404996,-0.1708 l -1.151517,0 q -0.233729,0 -0.404996,0.1708 -0.171267,0.1707 -0.170763,0.405 l 0,2.3025 -2.302531,0 q -0.233729,0 -0.404996,0.1708 -0.171266,0.1707 -0.170763,0.4049 l 0,1.1516 q 0,0.2337 0.170763,0.405 0.170763,0.1712 0.404996,0.1707 l 2.302531,0 0,2.3026 q 0,0.2337 0.170763,0.4049 0.170763,0.1713 0.404996,0.1708 l 1.151517,0 q 0.233729,0 0.404996,-0.1708 0.171267,-0.1707 0.170763,-0.4049 l 0,-2.3026 2.302531,0 q 0.233729,0 0.404996,-0.1707 0.171266,-0.1708 0.170763,-0.405 z m 2.878793,-0.5758 q 0,1.8799 -0.926352,3.4677 -0.926352,1.5877 -2.514096,2.514 -1.587744,0.9264 -3.467649,0.9264 -1.879905,0 -3.467649,-0.9264 -1.587744,-0.9263 -2.514096,-2.514 -0.926352,-1.5878 -0.926352,-3.4677 0,-1.8799 0.926352,-3.4676 0.926352,-1.5878 2.514096,-2.5141 1.587744,-0.9264 3.467649,-0.9264 1.879905,0 3.467649,0.9264 1.587744,0.9263 2.514096,2.5141 0.926352,1.5877 0.926352,3.4676 z"
       inkscape:connector-curvature="0" />
  </g>
</svg>
