<?xml version="1.0" encoding="UTF-8" standalone="no"?>
<!--
  - @copyright Limbas GmbH <https://limbas.com>
  - @license https://opensource.org/licenses/GPL-2.0 GPL-2.0
  -
  - This program is free software; you can redistribute it and/or modify it under the terms of the GNU General Public License as published by the Free Software Foundation; either version 2 of the License, or (at your option) any later version.
  - This program is distributed in the hope that it will be useful, but WITHOUT ANY WARRANTY; without even the implied warranty of MERCHANTABILITY or FITNESS FOR A PARTICULAR PURPOSE. See the GNU General Public License for more details.
  -->

<!-- Created with Inkscape (http://www.inkscape.org/) -->

<svg
   xmlns:dc="http://purl.org/dc/elements/1.1/"
   xmlns:cc="http://creativecommons.org/ns#"
   xmlns:rdf="http://www.w3.org/1999/02/22-rdf-syntax-ns#"
   xmlns:svg="http://www.w3.org/2000/svg"
   xmlns="http://www.w3.org/2000/svg"
   xmlns:sodipodi="http://sodipodi.sourceforge.net/DTD/sodipodi-0.dtd"
   xmlns:inkscape="http://www.inkscape.org/namespaces/inkscape"
   width="32"
   height="32"
   viewBox="0 0 32.000006 32.000008"
   id="svg6063"
   version="1.1"
   inkscape:version="0.91 r13725"
   sodipodi:docname="text_dropcaps.svg">
  <defs
     id="defs6065" />
  <sodipodi:namedview
     id="base"
     pagecolor="#ffffff"
     bordercolor="#666666"
     borderopacity="1.0"
     inkscape:pageopacity="0.0"
     inkscape:pageshadow="2"
     inkscape:zoom="11.313708"
     inkscape:cx="19.442635"
     inkscape:cy="13.058445"
     inkscape:document-units="px"
     inkscape:current-layer="layer1"
     showgrid="true"
     units="px"
     inkscape:window-width="1920"
     inkscape:window-height="1007"
     inkscape:window-x="0"
     inkscape:window-y="0"
     inkscape:window-maximized="1">
    <inkscape:grid
       type="xygrid"
       id="grid6071"
       empspacing="4" />
  </sodipodi:namedview>
  <metadata
     id="metadata6068">
    <rdf:RDF>
      <cc:Work
         rdf:about="">
        <dc:format>image/svg+xml</dc:format>
        <dc:type
           rdf:resource="http://purl.org/dc/dcmitype/StillImage" />
        <dc:title />
      </cc:Work>
    </rdf:RDF>
  </metadata>
  <g
     inkscape:label="Ebene 1"
     inkscape:groupmode="layer"
     id="layer1"
     transform="translate(0,-1020.2988)">
    <path
       id="path4138"
       d="m 32.000009,1045.4413 0,2.286 c 0,0.3093 -0.113,0.5773 -0.339001,0.804 -0.226,0.2267 -0.494,0.3397 -0.804,0.339 l -29.7140092,0 c -0.30933333,0 -0.57733332,-0.113 -0.80399999,-0.339 -0.22666667,-0.226 -0.3396666651,-0.494 -0.3389999952973,-0.804 l 0,-2.286 c 0,-0.3093 0.1129999952973,-0.5773 0.3389999952973,-0.804 0.226,-0.2267 0.494,-0.3397 0.80399999,-0.339 l 29.7140092,0 c 0.309333,0 0.577333,0.113 0.804,0.339 0.226667,0.226 0.339668,0.494 0.339001,0.804 z m 0,-6.857 0,2.286 c 0,0.3093 -0.113,0.5773 -0.339001,0.804 -0.226,0.2267 -0.494,0.3397 -0.804,0.339 l -29.7140092,0 c -0.30933333,0 -0.57733332,-0.113 -0.80399999,-0.339 -0.22666667,-0.226 -0.3396666651,-0.494 -0.3389999952973,-0.804 l 0,-2.286 c 0,-0.3093 0.1129999952973,-0.5773 0.3389999952973,-0.804 0.226,-0.2267 0.494,-0.3397 0.80399999,-0.339 l 29.7140092,0 c 0.309333,0 0.577333,0.113 0.804,0.339 0.226667,0.226 0.339668,0.494 0.339001,0.804 z m 0,-6.857 0,2.286 c 0,0.3093 -0.113,0.5773 -0.339001,0.804 -0.226,0.2267 -0.494,0.3397 -0.804,0.339 l -15.714005,0 c -0.309333,0 -0.577333,-0.113 -0.804,-0.339 -0.226667,-0.226 -0.339667,-0.494 -0.339,-0.804 l 0,-2.286 c 0,-0.3093 0.113,-0.5773 0.339,-0.804 0.226,-0.2267 0.494,-0.3397 0.804,-0.339 l 15.714005,0 c 0.309333,0 0.577333,0.113 0.804,0.339 0.226667,0.226 0.339668,0.494 0.339001,0.804 z m 0,-6.857 0,2.286 c 0,0.3093 -0.113,0.5773 -0.339001,0.804 -0.226,0.2267 -0.494,0.3397 -0.804,0.339 l -15.714005,0 c -0.309333,0 -0.577333,-0.113 -0.804,-0.339 -0.226667,-0.226 -0.339667,-0.494 -0.339,-0.804 l 0,-2.286 c 0,-0.3093 0.113,-0.5773 0.339,-0.804 0.226,-0.2267 0.494,-0.3397 0.804,-0.339 l 15.714005,0 c 0.309333,0 0.577333,0.113 0.804,0.339 0.226667,0.226 0.339668,0.494 0.339001,0.804 z"
       inkscape:connector-curvature="0"
       sodipodi:nodetypes="csscsscsscssccsscsscsscssccsscsscsscssccsscsscsscssc" />
    <path
       id="path4149"
       d="m 5.6158212,1034.3963 q 0.6339249,0.2742 1.1997083,0.2742 3.2219325,0 3.2219325,-2.8708 0,-0.9772 -0.3512743,-1.5423 -0.2313027,-0.3772 -0.5269114,-0.6342 -0.2956075,-0.2565 -0.5782585,-0.398 -0.2826515,-0.1421 -0.6900719,-0.2142 -0.4074204,-0.073 -0.7198235,-0.092 -0.3124031,-0.021 -0.8100438,-0.021 -0.6257665,0 -0.8657079,0.086 0,0.454 -0.00433,1.3623 -0.00433,0.9084 -0.00433,1.3538 0,0.068 -0.00865,0.5781 -0.00865,0.5099 -0.00433,0.8271 0.00433,0.3172 0.038389,0.7154 0.034072,0.3982 0.1026954,0.5701 z m -0.1199716,-6.393 q 0.3599122,0.06 0.9338533,0.06 0.702548,0 1.2256197,-0.1119 0.5230729,-0.1119 0.9424908,-0.3817 0.4194175,-0.2701 0.6382439,-0.7667 0.2188265,-0.4966 0.2183467,-1.2171 0,-0.5997 -0.2485793,-1.0499 -0.2485804,-0.45 -0.6771142,-0.7023 -0.4285366,-0.2526 -0.9256951,-0.3731 -0.4971586,-0.1203 -1.0624604,-0.1203 -0.4285357,0 -1.1138086,0.1118 0,0.4285 0.034072,1.2936 0.034072,0.8655 0.034072,1.3025 0,0.2314 -0.00433,0.6858 -0.00433,0.4545 -0.00433,0.6771 0,0.3942 0.00865,0.5913 z m -4.63614927,7.6182 0.0172766,-0.8057 q 0.12860797,-0.032 0.72846267,-0.1378 0.5998537,-0.105 0.9084184,-0.2312 0.059984,-0.1049 0.1070137,-0.2314 0.047028,-0.1289 0.072941,-0.2868 0.025914,-0.1589 0.047028,-0.2785 0.021115,-0.1203 0.025913,-0.3215 0.0048,-0.2011 0.00433,-0.2915 l 0,-0.5613 q 0,-8.4152 -0.1885938,-8.7838 -0.034072,-0.068 -0.1885939,-0.1246 -0.1545225,-0.055 -0.381507,-0.094 -0.2269846,-0.038 -0.4242167,-0.06 -0.1972319,-0.022 -0.4155787,-0.038 -0.21834685,-0.022 -0.26153631,-0.025 l -0.0340722,-0.711 q 0.83979521,-0.022 2.91336961,-0.097 2.0735738,-0.08 3.1965009,-0.08 0.1972305,0 0.5868968,0 0.3896639,0 0.578259,0 0.5998533,0 1.1699544,0.1119 0.570101,0.1119 1.1013292,0.36 0.53123,0.2483 0.925697,0.6082 0.394465,0.3603 0.633927,0.8958 0.239461,0.5353 0.239941,1.1779 0,0.4459 -0.141569,0.8181 -0.141568,0.3726 -0.333999,0.6171 -0.192432,0.2448 -0.552827,0.4931 -0.360394,0.2478 -0.62577,0.3858 -0.265373,0.1376 -0.7198214,0.3428 1.3196764,0.2997 2.1978674,1.148 0.878186,0.8486 0.878186,2.1255 0,0.857 -0.299928,1.5379 -0.299927,0.681 -0.801403,1.1181 -0.501481,0.4374 -1.182438,0.733 -0.6809513,0.2956 -1.4012558,0.4156 -0.7203039,0.1203 -1.508273,0.1203 -0.3771866,0 -1.1310835,-0.024 -0.7538961,-0.024 -1.1310838,-0.024 -0.9084185,0 -2.6307184,0.093 -1.7223001,0.092 -1.97951737,0.105 z"
       inkscape:connector-curvature="0" />
  </g>
</svg>
