<?xml version="1.0" encoding="UTF-8" standalone="no"?>
<!--
  - @copyright Limbas GmbH <https://limbas.com>
  - @license https://opensource.org/licenses/GPL-2.0 GPL-2.0
  -
  - This program is free software; you can redistribute it and/or modify it under the terms of the GNU General Public License as published by the Free Software Foundation; either version 2 of the License, or (at your option) any later version.
  - This program is distributed in the hope that it will be useful, but WITHOUT ANY WARRANTY; without even the implied warranty of MERCHANTABILITY or FITNESS FOR A PARTICULAR PURPOSE. See the GNU General Public License for more details.
  -->

<!-- Generated by IcoMoon.io -->

<svg
   xmlns:dc="http://purl.org/dc/elements/1.1/"
   xmlns:cc="http://creativecommons.org/ns#"
   xmlns:rdf="http://www.w3.org/1999/02/22-rdf-syntax-ns#"
   xmlns:svg="http://www.w3.org/2000/svg"
   xmlns="http://www.w3.org/2000/svg"
   xmlns:sodipodi="http://sodipodi.sourceforge.net/DTD/sodipodi-0.dtd"
   xmlns:inkscape="http://www.inkscape.org/namespaces/inkscape"
   version="1.1"
   width="28"
   height="28"
   viewBox="0 0 28 28"
   id="svg3416"
   inkscape:version="0.91 r13725"
   sodipodi:docname="txt-ol-edit.svg">
  <metadata
     id="metadata3424">
    <rdf:RDF>
      <cc:Work
         rdf:about="">
        <dc:format>image/svg+xml</dc:format>
        <dc:type
           rdf:resource="http://purl.org/dc/dcmitype/StillImage" />
        <dc:title></dc:title>
      </cc:Work>
    </rdf:RDF>
  </metadata>
  <defs
     id="defs3422" />
  <sodipodi:namedview
     pagecolor="#ffffff"
     bordercolor="#666666"
     borderopacity="1"
     objecttolerance="10"
     gridtolerance="10"
     guidetolerance="10"
     inkscape:pageopacity="0"
     inkscape:pageshadow="2"
     inkscape:window-width="1920"
     inkscape:window-height="1135"
     id="namedview3420"
     showgrid="false"
     inkscape:zoom="23.8396"
     inkscape:cx="27.303255"
     inkscape:cy="10.728075"
     inkscape:window-x="0"
     inkscape:window-y="0"
     inkscape:window-maximized="1"
     inkscape:current-layer="svg3416" />
  <path
     d="m 5.953,25.312 c 0,0.833333 -0.284,1.489667 -0.852,1.969 C 4.533,27.760333 3.8273333,28 2.984,28 1.88,28 0.984,27.656333 0.296,26.969 l 0.891,-1.375 c 0.5106667,0.468667 1.0626667,0.703 1.656,0.703 0.302,0 0.565,-0.07567 0.789,-0.227 0.224,-0.151333 0.336,-0.372667 0.336,-0.664 0,-0.666667 -0.547,-0.958333 -1.641,-0.875 L 1.921,23.656 c 0.083333,-0.104 0.2526667,-0.330667 0.508,-0.68 0.2553333,-0.349333 0.4766667,-0.630667 0.664,-0.844 0.1873333,-0.213333 0.38,-0.414 0.578,-0.602 l 0,-0.016 c -0.1666667,0 -0.4193333,0.0053 -0.758,0.016 -0.3386667,0.01067 -0.5913333,0.016 -0.758,0.016 l 0,0.828 -1.656,0 0,-2.375 5.203,0 0,1.375 -1.484,1.797 c 0.5313333,0.124667 0.9533333,0.38 1.266,0.766 0.3126667,0.386 0.469,0.844333 0.469,1.375 z m 0.031,-9.796 0,2.484 -5.656,0 C 0.2653333,17.625333 0.234,17.344 0.234,17.156 c 0,-0.531333 0.12233333,-1.015667 0.367,-1.453 0.24466667,-0.437333 0.539,-0.791333 0.883,-1.062 0.344,-0.270667 0.6876667,-0.518 1.031,-0.742 0.3433333,-0.224 0.6376667,-0.450667 0.883,-0.68 0.2453333,-0.229333 0.3676667,-0.463667 0.367,-0.703 0,-0.260667 -0.075667,-0.461333 -0.227,-0.602 -0.1513333,-0.140667 -0.357,-0.211 -0.617,-0.211 -0.4793333,0 -0.9013333,0.302 -1.266,0.906 L 0.327,11.687 C 0.577,11.155667 0.94933333,10.741667 1.444,10.445 1.9386667,10.148333 2.488,10 3.092,10 c 0.7606667,0 1.4013333,0.216 1.922,0.648 0.5206667,0.432 0.781,1.018 0.781,1.758 0,0.520667 -0.177,0.997333 -0.531,1.43 -0.354,0.432667 -0.7446667,0.768667 -1.172,1.008 -0.4273333,0.239333 -0.8206667,0.502333 -1.18,0.789 -0.3593333,0.286667 -0.5443333,0.56 -0.555,0.82 l 1.984,0 0,-0.938 1.641,0 z M 8.7449538,24 8.5,24 C 8.3646667,24 8.2473333,23.950667 8.148,23.852 8.0486667,23.753333 7.9993333,23.636 8,23.5 l 0,-3 C 8,20.354 8.047,20.234333 8.141,20.141 8.235,20.047667 8.3546667,20.000667 8.5,20 l 4.412742,0 z M 6,6.453 6,8 0.766,8 l 0,-1.547 1.672,0 C 2.438,6.0256667 2.44067,5.3903333 2.446,4.547 2.45133,3.7036667 2.454,3.0733333 2.454,2.656 l 0,-0.187 -0.031,0 C 2.3396667,2.6463333 2.0793333,2.9276667 1.642,3.313 L 0.533,2.125 2.658,0.141 l 1.656,0 0,6.312 1.687,0 z M 16.632569,16 8.5,16 C 8.3646667,16 8.2473333,15.950667 8.148,15.852 8.0486667,15.753333 7.9993333,15.636 8,15.5 l 0,-3 C 8,12.354 8.047,12.234333 8.141,12.141 8.235,12.047667 8.3546667,12.000667 8.5,12 l 12.300357,0 z M 28,4.5 l 0,3 C 28,7.6353333 27.950667,7.7526667 27.852,7.852 27.753333,7.9513333 27.636,8.0006667 27.5,8 L 8.5,8 C 8.3646667,8 8.2473333,7.9506667 8.148,7.852 8.0486667,7.7533333 7.9993333,7.636 8,7.5 l 0,-3 C 8,4.3646667 8.0493333,4.2473333 8.148,4.148 8.2466667,4.0486667 8.364,3.9993333 8.5,4 l 19,0 c 0.135333,0 0.252667,0.049333 0.352,0.148 C 27.95133,4.246667 28.000667,4.364 28,4.5 Z"
     id="path3418"
     inkscape:connector-curvature="0"
     sodipodi:nodetypes="sssccsssccssccscccccccsscccssssscssccsssssssccccccsscssccccccccssccccccccccsscssccccsscsscsscssc" />
  <path
     id="path3428"
     d="m 16.607227,25.126037 0.805509,-0.805508 -2.080049,-2.080049 -0.805508,0.805509 0,0.947124 1.132924,0 0,1.132924 0.947124,0 z m 4.629128,-8.213698 q 0,-0.194864 -0.194863,-0.194864 -0.08837,0 -0.150679,0.06175 l -4.797367,4.797366 q -0.06175,0.06175 -0.06175,0.150679 0,0.194863 0.194863,0.194863 0.08837,0 0.150679,-0.06174 l 4.797366,-4.797367 q 0.06175,-0.06174 0.06175,-0.150678 z m -0.478094,-1.699386 3.682003,3.682002 -7.364006,7.364006 -3.682003,0 0,-3.682003 z m 6.045282,0.849693 q 0,0.46903 -0.327415,0.796445 l -1.469402,1.469402 -3.682003,-3.682002 1.469402,-1.46034 q 0.318352,-0.336477 0.796446,-0.336477 0.469031,0 0.805508,0.336477 l 2.080049,2.070986 q 0.327415,0.344976 0.327415,0.805509 z"
     inkscape:connector-curvature="0" />
</svg>
