<?xml version="1.0" encoding="UTF-8" standalone="no"?>
<!--
  - @copyright Limbas GmbH <https://limbas.com>
  - @license https://opensource.org/licenses/GPL-2.0 GPL-2.0
  -
  - This program is free software; you can redistribute it and/or modify it under the terms of the GNU General Public License as published by the Free Software Foundation; either version 2 of the License, or (at your option) any later version.
  - This program is distributed in the hope that it will be useful, but WITHOUT ANY WARRANTY; without even the implied warranty of MERCHANTABILITY or FITNESS FOR A PARTICULAR PURPOSE. See the GNU General Public License for more details.
  -->

<!-- Generated by IcoMoon.io -->

<svg
   xmlns:dc="http://purl.org/dc/elements/1.1/"
   xmlns:cc="http://creativecommons.org/ns#"
   xmlns:rdf="http://www.w3.org/1999/02/22-rdf-syntax-ns#"
   xmlns:svg="http://www.w3.org/2000/svg"
   xmlns="http://www.w3.org/2000/svg"
   xmlns:sodipodi="http://sodipodi.sourceforge.net/DTD/sodipodi-0.dtd"
   xmlns:inkscape="http://www.inkscape.org/namespaces/inkscape"
   version="1.1"
   width="28"
   height="28"
   viewBox="0 0 28 28"
   id="svg3416"
   inkscape:version="0.91 r13725"
   sodipodi:docname="user1-2.svg">
  <metadata
     id="metadata3424">
    <rdf:RDF>
      <cc:Work
         rdf:about="">
        <dc:format>image/svg+xml</dc:format>
        <dc:type
           rdf:resource="http://purl.org/dc/dcmitype/StillImage" />
        <dc:title></dc:title>
      </cc:Work>
    </rdf:RDF>
  </metadata>
  <defs
     id="defs3422" />
  <sodipodi:namedview
     pagecolor="#ffffff"
     bordercolor="#666666"
     borderopacity="1"
     objecttolerance="10"
     gridtolerance="10"
     guidetolerance="10"
     inkscape:pageopacity="0"
     inkscape:pageshadow="2"
     inkscape:window-width="1920"
     inkscape:window-height="1135"
     id="namedview3420"
     showgrid="false"
     inkscape:zoom="8.4285714"
     inkscape:cx="37.948289"
     inkscape:cy="-9.8866869"
     inkscape:window-x="0"
     inkscape:window-y="0"
     inkscape:window-maximized="1"
     inkscape:current-layer="svg3416" />
  <path
     d="m 14.690965,21.248641 c -0.248832,1.09756 -0.530956,2.172374 -1.278552,2.883935 -0.747599,0.71156 -1.740574,1.06734 -2.978924,1.06734 l -5.9282853,0 c -1.2390071,0 -2.231982,-0.35578 -2.9789244,-1.06734 -0.74694236,-0.711561 -1.12074119,-1.681605 -1.12139646,-2.910128 0,-0.542515 0.0180185,-1.072255 0.0540552,-1.589218 0.0360366,-0.516963 0.10778236,-1.074876 0.21523735,-1.67374 0.10745478,-0.598864 0.24308382,-1.154158 0.40688701,-1.66588 0.1638031,-0.511721 0.3839545,-1.010664 0.6604543,-1.496833 0.2764998,-0.486168 0.5939502,-0.900917 0.9523515,-1.244248 0.3584014,-0.343332 0.7960835,-0.617211 1.3130463,-0.821638 0.5169629,-0.204425 1.0876532,-0.306967 1.7120709,-0.30762 0.092386,0 0.3072946,0.110072 0.6447292,0.330226 0.3374345,0.22015 0.7187683,0.465855 1.1440013,0.737113 0.4252332,0.27126 0.977905,0.516963 1.6580158,0.737115 0.6801105,0.22015 1.3634983,0.330227 2.0501613,0.330227 0.686662,0 1.370048,-0.110074 2.05016,-0.330227 0.680112,-0.220152 1.232783,-0.465855 1.658015,-0.737115 0.425234,-0.271258 0.806567,-0.516963 1.144002,-0.737113 0.337435,-0.220151 0.554427,-0.349736 0.64473,-0.330226 -1.972984,3.22901 -1.476371,5.909139 -2.021835,8.82537 z M 17.112806,7.509174 c 0,1.6275481 -0.575931,3.017254 -1.727794,4.169119 -1.151865,1.151864 -2.541572,1.727796 -4.169119,1.727796 -1.6275497,0 -3.0172552,-0.575932 -4.1691192,-1.727796 C 5.89491,10.526428 5.3189779,9.1367221 5.3189779,7.509174 c 0,-1.6275484 0.5759321,-3.0172548 1.7277959,-4.1691187 1.151864,-1.1518638 2.5415695,-1.7277958 4.1691192,-1.7277958 1.627547,0 3.017254,0.575932 4.169119,1.7277958 1.151863,1.1518639 1.727794,2.5415703 1.727794,4.1691187 z"
     id="path3657"
     inkscape:connector-curvature="0"
     sodipodi:nodetypes="csssscsssssscsssssssccsssssssss" />
  <path
     id="path3667"
     d="m 20.207012,19.131787 4.59985,0 0,-1.724945 q 0,-0.952169 -0.673879,-1.626046 -0.673877,-0.673878 -1.626046,-0.673878 -0.95217,0 -1.626049,0.673878 -0.673876,0.673877 -0.673876,1.626046 l 0,1.724945 z m 7.474755,0.862472 0,5.17483 q 0,0.359362 -0.251842,0.610629 -0.251843,0.251266 -0.610631,0.251842 l -8.624717,0 q -0.359363,0 -0.61063,-0.251842 -0.251265,-0.251842 -0.251841,-0.610629 l 0,-5.17483 q 0,-0.359366 0.251841,-0.610632 0.251841,-0.251267 0.61063,-0.25184 l 0.287491,0 0,-1.724945 q 0,-1.65307 1.186186,-2.838682 1.186186,-1.185612 2.838683,-1.186186 1.652495,-5.75e-4 2.838683,1.186186 1.186184,1.186761 1.186184,2.838682 l 0,1.724945 0.28749,0 q 0.359364,0 0.610631,0.25184 0.251267,0.251841 0.251842,0.610632 z"
     inkscape:connector-curvature="0" />
</svg>
