<?xml version="1.0" encoding="UTF-8" standalone="no"?>
<!--
  - @copyright Limbas GmbH <https://limbas.com>
  - @license https://opensource.org/licenses/GPL-2.0 GPL-2.0
  -
  - This program is free software; you can redistribute it and/or modify it under the terms of the GNU General Public License as published by the Free Software Foundation; either version 2 of the License, or (at your option) any later version.
  - This program is distributed in the hope that it will be useful, but WITHOUT ANY WARRANTY; without even the implied warranty of MERCHANTABILITY or FITNESS FOR A PARTICULAR PURPOSE. See the GNU General Public License for more details.
  -->

<!-- Created with Inkscape (http://www.inkscape.org/) -->

<svg
   xmlns:dc="http://purl.org/dc/elements/1.1/"
   xmlns:cc="http://creativecommons.org/ns#"
   xmlns:rdf="http://www.w3.org/1999/02/22-rdf-syntax-ns#"
   xmlns:svg="http://www.w3.org/2000/svg"
   xmlns="http://www.w3.org/2000/svg"
   xmlns:sodipodi="http://sodipodi.sourceforge.net/DTD/sodipodi-0.dtd"
   xmlns:inkscape="http://www.inkscape.org/namespaces/inkscape"
   width="32"
   height="32"
   viewBox="0 0 32.000006 32.000008"
   id="svg6063"
   version="1.1"
   inkscape:version="0.91 r13725"
   sodipodi:docname="view_relation.svg">
  <defs
     id="defs6065" />
  <sodipodi:namedview
     id="base"
     pagecolor="#ffffff"
     bordercolor="#666666"
     borderopacity="1.0"
     inkscape:pageopacity="0.0"
     inkscape:pageshadow="2"
     inkscape:zoom="16"
     inkscape:cx="3.85584"
     inkscape:cy="17.8125"
     inkscape:document-units="px"
     inkscape:current-layer="layer1"
     showgrid="true"
     units="px"
     inkscape:window-width="1920"
     inkscape:window-height="1007"
     inkscape:window-x="0"
     inkscape:window-y="0"
     inkscape:window-maximized="1">
    <inkscape:grid
       type="xygrid"
       id="grid6071"
       empspacing="4" />
  </sodipodi:namedview>
  <metadata
     id="metadata6068">
    <rdf:RDF>
      <cc:Work
         rdf:about="">
        <dc:format>image/svg+xml</dc:format>
        <dc:type
           rdf:resource="http://purl.org/dc/dcmitype/StillImage" />
        <dc:title />
      </cc:Work>
    </rdf:RDF>
  </metadata>
  <g
     inkscape:label="Ebene 1"
     inkscape:groupmode="layer"
     id="layer1"
     transform="translate(0,-1020.2988)">
    <g
       id="g4136"
       transform="matrix(1.0891876,0,0,1.0891876,-1.4269997,-92.524333)">
      <path
         inkscape:connector-curvature="0"
         d="m 27.624764,1030.3919 q -2.30054,-3.572 -5.767455,-5.3436 0.923098,1.5741 0.923098,3.4059 0,2.8006 -1.990298,4.7909 -1.990296,1.9903 -4.790954,1.9903 -2.800657,0 -4.790954,-1.9903 -1.9902967,-1.9903 -1.9902967,-4.7909 0,-1.8318 0.9230977,-3.4059 -3.4660672,1.7707 -5.7674547,5.3436 2.0131843,3.1033 5.0477946,4.9418 3.0346091,1.8386 6.5769661,1.8394 3.542356,9e-4 6.576966,-1.8394 3.034611,-1.8402 5.047795,-4.9418 z m -10.89832,-5.8124 q 0,-0.3026 -0.211914,-0.5145 -0.211914,-0.2119 -0.514527,-0.2119 -1.891969,0 -3.246524,1.3545 -1.354555,1.3546 -1.354555,3.2466 0,0.3026 0.211914,0.5145 0.211914,0.2119 0.514527,0.2119 0.302614,0 0.514528,-0.2119 0.211914,-0.2119 0.211914,-0.5145 0,-1.302 0.923098,-2.2251 0.923097,-0.9231 2.225098,-0.9231 0.302613,0 0.514527,-0.212 0.211914,-0.2119 0.211914,-0.5145 z m 12.836063,5.8124 q 0,0.5145 -0.302614,1.0443 -2.11914,3.4813 -5.698794,5.5776 -3.579654,2.0962 -7.561096,2.0962 -3.981442,0 -7.561095,-2.1038 -3.5796534,-2.1039 -5.6987947,-5.57 -0.3026134,-0.5298 -0.3026134,-1.0443 0,-0.5145 0.3026134,-1.0443 2.1191413,-3.4661 5.6987947,-5.57 3.579653,-2.1038 7.561095,-2.1038 3.981442,0 7.561096,2.1038 3.579654,2.1039 5.698794,5.57 0.302614,0.5298 0.302614,1.0443 z"
         id="path4157" />
      <path
         inkscape:connector-curvature="0"
         d="m 26.453322,1042.8724 q -0.41466,-0.4146 -0.995415,-0.4146 l -4.313855,0 q -0.580757,0 -0.995416,0.4146 -0.435567,0.4356 -0.415241,1.0785 0.06272,0 0.388526,-0.01 0.325804,-0.01 0.44602,0 0.120217,0.01 0.352519,0.041 0.232303,0.036 0.398979,0.1295 0.166677,0.093 0.321739,0.2486 0.41466,0.4146 0.41466,0.9953 0,0.5808 -0.41466,0.9955 -0.155642,0.1556 -0.321739,0.2486 -0.166097,0.093 -0.39898,0.1294 -0.232883,0.037 -0.352519,0.041 -0.119635,0.01 -0.44602,0 -0.326385,-0.01 -0.388525,-0.01 -0.02033,0.6638 0.41524,1.0993 0.41466,0.4147 0.995415,0.4147 l 4.283076,0.01 q 0.559848,0 0.984962,-0.4251 0.41466,-0.4146 0.435567,-0.9745 l 0.01046,-3.0385 q 0,-0.5807 -0.404205,-0.9849 z m -14.601947,-0.021 q -0.41466,-0.4146 -0.995415,-0.4146 l -4.2830757,-0.01 q -0.5807559,0 -0.9954157,0.4146 -0.4042062,0.4042 -0.4251135,0.985 l -0.010454,3.0385 q -1e-7,0.5807 0.404206,0.9849 0.4146597,0.4147 0.9954157,0.4147 l 4.3138552,0 q 0.559849,0 0.984962,-0.4251 0.435567,-0.4356 0.425114,-1.0686 -0.06272,0 -0.388526,0.01 -0.325804,0.01 -0.446021,0 -0.120216,-0.01 -0.352518,-0.041 -0.232303,-0.036 -0.39898,-0.1295 -0.166677,-0.094 -0.321738,-0.2486 -0.4146604,-0.4146 -0.4146604,-0.9954 0,-0.5807 0.4146604,-0.9954 0.155642,-0.1556 0.321739,-0.2486 0.166096,-0.093 0.398979,-0.1294 0.232884,-0.037 0.352519,-0.041 0.119636,-0.01 0.446021,0 0.326385,0.01 0.388525,0.01 0.02033,-0.6638 -0.41524,-1.0993 z m 16.59336,-1.9711 q 1.24456,1.2447 1.223651,2.9869 l -0.01046,3.0385 q 0,1.7214 -1.24456,2.966 -1.255014,1.2549 -2.997282,1.2341 l -4.283075,-0.01 q -1.721361,0 -2.96592,-1.2445 -1.27534,-1.2754 -1.255014,-3.0798 l -1.824734,0 q 0.02033,1.8044 -1.244561,3.0694 -1.244561,1.2445 -2.986828,1.2445 l -4.3138555,0 q -1.7422678,0 -2.9868276,-1.2445 -1.2445598,-1.2447 -1.2236523,-2.9869 l 0.010454,-3.0385 q 2e-7,-1.7214 1.2445603,-2.966 1.2550137,-1.2549 2.997282,-1.2341 l 4.2830741,0.01 q 1.721361,0 2.965921,1.2445 1.275339,1.2754 1.255013,3.0798 l 1.824735,0 q -0.02033,-1.8044 1.24456,-3.0694 1.24456,-1.2445 2.986828,-1.2445 l 4.313855,0 q 1.742268,0 2.986828,1.2445 z"
         id="path4168" />
    </g>
  </g>
</svg>
