<?xml version="1.0" encoding="UTF-8" standalone="no"?>
<!--
  - @copyright Limbas GmbH <https://limbas.com>
  - @license https://opensource.org/licenses/GPL-2.0 GPL-2.0
  -
  - This program is free software; you can redistribute it and/or modify it under the terms of the GNU General Public License as published by the Free Software Foundation; either version 2 of the License, or (at your option) any later version.
  - This program is distributed in the hope that it will be useful, but WITHOUT ANY WARRANTY; without even the implied warranty of MERCHANTABILITY or FITNESS FOR A PARTICULAR PURPOSE. See the GNU General Public License for more details.
  -->

<!-- Created with Inkscape (http://www.inkscape.org/) -->

<svg
   xmlns:dc="http://purl.org/dc/elements/1.1/"
   xmlns:cc="http://creativecommons.org/ns#"
   xmlns:rdf="http://www.w3.org/1999/02/22-rdf-syntax-ns#"
   xmlns:svg="http://www.w3.org/2000/svg"
   xmlns="http://www.w3.org/2000/svg"
   xmlns:sodipodi="http://sodipodi.sourceforge.net/DTD/sodipodi-0.dtd"
   xmlns:inkscape="http://www.inkscape.org/namespaces/inkscape"
   width="32"
   height="32"
   viewBox="0 0 32.000005 32.000008"
   id="svg6063"
   version="1.1"
   inkscape:version="0.91 r13725"
   sodipodi:docname="view_locked.svg">
  <defs
     id="defs6065" />
  <sodipodi:namedview
     id="base"
     pagecolor="#ffffff"
     bordercolor="#666666"
     borderopacity="1.0"
     inkscape:pageopacity="0.0"
     inkscape:pageshadow="2"
     inkscape:zoom="25.6875"
     inkscape:cx="16"
     inkscape:cy="16"
     inkscape:document-units="px"
     inkscape:current-layer="layer1"
     showgrid="true"
     units="px"
     inkscape:window-width="1920"
     inkscape:window-height="1007"
     inkscape:window-x="0"
     inkscape:window-y="0"
     inkscape:window-maximized="1">
    <inkscape:grid
       type="xygrid"
       id="grid6071"
       empspacing="4" />
  </sodipodi:namedview>
  <metadata
     id="metadata6068">
    <rdf:RDF>
      <cc:Work
         rdf:about="">
        <dc:format>image/svg+xml</dc:format>
        <dc:type
           rdf:resource="http://purl.org/dc/dcmitype/StillImage" />
        <dc:title></dc:title>
      </cc:Work>
    </rdf:RDF>
  </metadata>
  <g
     inkscape:label="Ebene 1"
     inkscape:groupmode="layer"
     id="layer1"
     transform="translate(0,-1020.2988)">
    <g
       id="g4136"
       transform="matrix(0.26161419,0,0,0.26161419,-0.74330848,777.8485)">
      <path
         inkscape:connector-curvature="0"
         d="m 64.419167,968.4673 23.16443,0 0,-8.68761 q 0,-4.79605 -3.392449,-8.18851 -3.392453,-3.39244 -8.188499,-3.39244 -4.796047,0 -8.188496,3.39244 -3.392452,3.39246 -3.392452,8.18851 l 0,8.68761 z m 37.641243,4.34506 0,26.06037 q 0,1.80887 -1.26679,3.07577 -1.266786,1.2667 -3.075743,1.2667 l -43.432987,0 q -1.80897,0 -3.075754,-1.2667 -1.266787,-1.2669 -1.266787,-3.07577 l 0,-26.06037 q 0,-1.80896 1.266787,-3.07575 1.266784,-1.26678 3.075754,-1.26678 l 1.446668,0 0,-8.68761 q 0,-8.32531 5.971623,-14.29693 5.971625,-5.97162 14.296934,-5.97162 8.325312,0 14.296935,5.97162 5.971623,5.97162 5.971623,14.29693 l 0,8.68761 1.446669,0 q 1.808974,0 3.075748,1.26678 1.26678,1.26679 1.26678,3.07575 z"
         id="path4158" />
      <path
         sodipodi:nodetypes="scssssscsssssssssssssssssscsscs"
         inkscape:connector-curvature="0"
         d="m 29.112888,1023.2141 c 0,3.6353 -1.271977,6.7249 -3.815931,9.2688 -2.543952,2.544 -5.633582,3.816 -9.268888,3.816 -3.635306,0 -6.7249375,-1.272 -9.2688919,-3.816 -2.5439514,-2.5439 -3.8159271,-5.6335 -3.8159271,-9.2688 0,-3.6354 1.2719757,-6.725 3.8159271,-9.2689 2.5439544,-2.544 5.6335859,-3.8159 9.2688919,-3.8159 3.635306,0 6.724936,1.2719 9.268888,3.8159 2.543954,2.5439 3.815931,5.6335 3.815931,9.2689 z m 0,-49.82435 c 0,3.6353 -1.271977,6.72493 -3.815931,9.26889 -2.543952,2.54393 -5.633582,3.8159 -9.268888,3.8159 -3.635306,0 -6.7249375,-1.27197 -9.2688919,-3.8159 -2.5439514,-2.54396 -3.8159271,-5.63359 -3.8159271,-9.26889 0,-3.63531 1.2719757,-6.72494 3.8159271,-9.26889 2.5439544,-2.54396 5.6335859,-3.81593 9.2688919,-3.81593 3.635306,0 6.724936,1.27197 9.268888,3.81593 2.543954,2.54395 3.815931,5.63358 3.815931,9.26889 z m 95.943882,43.28385 0,13.0847 c 0,0.5902 -0.21624,1.1016 -0.64872,1.534 -0.43247,0.4325 -0.9438,0.6488 -1.53399,0.6488 l -82.859067,0 c -0.590198,0 -1.101532,-0.2163 -1.534003,-0.6488 -0.432473,-0.4324 -0.648709,-0.9438 -0.648709,-1.534 l 0,-13.0847 c 0,-0.5903 0.216236,-1.1016 0.648709,-1.534 0.432471,-0.4326 0.943805,-0.6488 1.534003,-0.6488 l 82.859067,0 c 0.59019,0 1.10152,0.2162 1.53399,0.6488 0.43248,0.4324 0.64872,0.9437 0.64872,1.534 z"
         id="path4202" />
    </g>
  </g>
</svg>
