<?xml version="1.0" encoding="UTF-8" standalone="no"?>
<!--
  - @copyright Limbas GmbH <https://limbas.com>
  - @license https://opensource.org/licenses/GPL-2.0 GPL-2.0
  -
  - This program is free software; you can redistribute it and/or modify it under the terms of the GNU General Public License as published by the Free Software Foundation; either version 2 of the License, or (at your option) any later version.
  - This program is distributed in the hope that it will be useful, but WITHOUT ANY WARRANTY; without even the implied warranty of MERCHANTABILITY or FITNESS FOR A PARTICULAR PURPOSE. See the GNU General Public License for more details.
  -->

<!-- Generated by IcoMoon.io -->

<svg
   xmlns:dc="http://purl.org/dc/elements/1.1/"
   xmlns:cc="http://creativecommons.org/ns#"
   xmlns:rdf="http://www.w3.org/1999/02/22-rdf-syntax-ns#"
   xmlns:svg="http://www.w3.org/2000/svg"
   xmlns="http://www.w3.org/2000/svg"
   xmlns:sodipodi="http://sodipodi.sourceforge.net/DTD/sodipodi-0.dtd"
   xmlns:inkscape="http://www.inkscape.org/namespaces/inkscape"
   version="1.1"
   width="24"
   height="28"
   viewBox="0 0 24 28"
   id="svg3545"
   inkscape:version="0.91 r13725"
   sodipodi:docname="view_archived.svg">
  <metadata
     id="metadata3553">
    <rdf:RDF>
      <cc:Work
         rdf:about="">
        <dc:format>image/svg+xml</dc:format>
        <dc:type
           rdf:resource="http://purl.org/dc/dcmitype/StillImage" />
        <dc:title></dc:title>
      </cc:Work>
    </rdf:RDF>
  </metadata>
  <defs
     id="defs3551" />
  <sodipodi:namedview
     pagecolor="#ffffff"
     bordercolor="#666666"
     borderopacity="1"
     objecttolerance="10"
     gridtolerance="10"
     guidetolerance="10"
     inkscape:pageopacity="0"
     inkscape:pageshadow="2"
     inkscape:window-width="1920"
     inkscape:window-height="1135"
     id="namedview3549"
     showgrid="false"
     inkscape:zoom="0.70710678"
     inkscape:cx="15.829846"
     inkscape:cy="64.267444"
     inkscape:window-x="0"
     inkscape:window-y="0"
     inkscape:window-maximized="1"
     inkscape:current-layer="svg3545" />
  <path
     d="M 16,2.125 16,8 21.875,8 C 21.771,7.698 21.656333,7.4843333 21.531,7.359 L 16.64,2.468 C 16.515333,2.3433333 16.301667,2.2286667 15.999,2.124 Z M 22,16.013457 22,10 15.5,10 C 15.083333,10 14.729333,9.854 14.438,9.562 14.146667,9.27 14.000667,8.916 14,8.5 L 14,2 9.0084746,2 l 0,2 -2,0 0,-2 L 2,2 2,26 5.1745163,26 8,28.001 l -6.5,0 C 1.0833333,28.001 0.72933333,27.855 0.438,27.563 0.14666667,27.271 6.6666667e-4,26.917 0,26.501 l 0,-25 C 0,1.0843333 0.146,0.73033333 0.438,0.439 0.73,0.14766667 1.084,0.00166667 1.5,0.001 l 14,0 c 0.416667,0 0.875,0.10433333 1.375,0.313 0.5,0.20866667 0.896,0.45866667 1.188,0.75 l 4.874,4.874 c 0.292,0.292 0.542,0.688 0.75,1.188 0.208,0.5 0.312333,0.9583333 0.313,1.375 l 0,9.293629 M 9.2114746,6.734 10.883475,12.187 c 0.08333,0.281333 0.125,0.552 0.125,0.812 0,0.864667 -0.377667,1.580667 -1.1330004,2.148 -0.7553334,0.567333 -1.711,0.851333 -2.867,0.852 -1.156,6.67e-4 -2.1116667,-0.283333 -2.867,-0.852 -0.7553334,-0.568667 -1.133,-1.284667 -1.133,-2.148 0,-0.260667 0.041667,-0.531333 0.125,-0.812 0.2186666,-0.656 0.8436666,-2.718667 1.875,-6.188 l 0,-2 2,0 0,2 1.234,0 c 0.2293333,0 0.4323333,0.06767 0.609,0.203 0.1766666,0.135333 0.2963333,0.312333 0.359,0.531 z m -2.203,7.266 c 0.552,0 1.0233333,-0.099 1.414,-0.297 0.3906666,-0.198 0.586,-0.432333 0.586,-0.703 0,-0.270667 -0.1953334,-0.505 -0.586,-0.703 -0.3906667,-0.198 -0.862,-0.297 -1.414,-0.297 -0.552,0 -1.0233334,0.099 -1.414,0.297 -0.3906667,0.198 -0.586,0.432333 -0.586,0.703 0,0.270667 0.1953333,0.505 0.586,0.703 0.3906666,0.198 0.862,0.297 1.414,0.297 z"
     id="path3547"
     inkscape:connector-curvature="0"
     sodipodi:nodetypes="cccssccccssccccccccccsscsscsscssccccssssscccccssccsssssssss" />
  <path
     id="path3557"
     d="m 22.5432,21.704582 q -1.661821,-2.579842 -4.165395,-3.859619 0.666828,1.137036 0.666828,2.460193 0,2.022871 -1.437912,3.460082 -1.437909,1.437211 -3.460082,1.437909 -2.022172,7.01e-4 -3.460084,-1.437909 -1.4379103,-1.438611 -1.4379103,-3.460082 0,-1.323157 0.666827,-2.460193 -2.5035729,1.279076 -4.1653917,3.859619 1.4540038,2.241182 3.6462053,3.569938 2.1922017,1.328755 4.7503537,1.328055 2.558151,-7e-4 4.750355,-1.328055 2.1922,-1.327357 3.646206,-3.569938 z m -7.871776,-4.19828 q 0,-0.219009 -0.153238,-0.371547 -0.153237,-0.152538 -0.371547,-0.153238 -1.366541,0 -2.345441,0.9782 -0.978897,0.978198 -0.978199,2.345439 0,0.21901 0.153239,0.371548 0.153237,0.152536 0.371549,0.153238 0.218308,6.99e-4 0.371547,-0.153238 0.153237,-0.153937 0.153237,-0.371548 0,-0.940415 0.666825,-1.607241 0.666827,-0.666828 1.607243,-0.666828 0.21901,0 0.371547,-0.153237 0.152538,-0.153238 0.153238,-0.371548 z m 9.271202,4.19828 q 0,0.371549 -0.219011,0.754291 -1.530972,2.51477 -4.116413,4.028949 -2.585441,1.51418 -5.461263,1.51418 -2.875822,0 -5.4612619,-1.519776 Q 6.099236,24.962448 4.5682636,22.458873 4.3492534,22.076131 4.3492534,21.704582 q 0,-0.371547 0.2190102,-0.754291 1.5309724,-2.503574 4.1164135,-4.023351 2.5854399,-1.519777 5.4612619,-1.519777 2.875822,0 5.461263,1.519777 2.585441,1.519777 4.116413,4.023351 0.219011,0.382744 0.219011,0.754291 z"
     inkscape:connector-curvature="0" />
</svg>
